<?xml version="1.0" encoding="UTF-8" standalone="no"?>
<!DOCTYPE svg PUBLIC "-//W3C//DTD SVG 1.1//EN" "http://www.w3.org/Graphics/SVG/1.1/DTD/svg11.dtd">
<svg width="100%" height="100%" viewBox="0 0 225 220" version="1.1" xmlns="http://www.w3.org/2000/svg" xmlns:xlink="http://www.w3.org/1999/xlink" xml:space="preserve" xmlns:serif="http://www.serif.com/" style="fill-rule:evenodd;clip-rule:evenodd;stroke-linejoin:round;stroke-miterlimit:1.41421;">
    <g transform="matrix(1,0,0,1,-40.7482,-0.517562)">
        <g transform="matrix(4.16667,0,0,4.16667,-1368.08,-956.862)">
            <path d="M338.759,259.117C338.759,259.117 338.188,256.749 338.125,255.415C338.061,254.082 338.569,252.812 338.759,251.987C338.95,251.162 339.204,249.956 339.585,249.512C339.965,249.067 342.187,246.528 342.377,246.211C342.568,245.893 342.441,245.469 343.584,244.38C344.726,243.291 345.678,242.974 346.821,242.275C347.963,241.577 349.296,237.959 351.581,236.499C353.866,235.039 360.341,233.643 360.722,233.325C361.103,233.008 361.864,231.104 362.563,230.659C363.261,230.215 370.306,229.771 371.068,229.771C371.83,229.771 376.294,230.215 378.283,232.373C380.272,234.531 380.843,242.847 380.843,242.847C380.843,242.847 380.716,251.67 380.272,252.051C379.828,252.431 366.054,263.92 366.054,263.92C366.054,263.92 354.438,267.729 353.168,267.856C351.899,267.983 339.902,260.81 339.902,260.81L338.759,259.117Z" style="fill:rgb(143,102,76);fill-rule:nonzero;"/>
        </g>
        <g transform="matrix(4.16667,0,0,4.16667,-1368.08,-956.862)">
            <path d="M378.283,232.373C378.283,232.373 389.201,238.89 391.655,253.024C394.11,267.157 386.662,281.122 368.974,282.392C351.285,283.661 343.668,270.458 341.552,267.157C339.436,263.857 338.759,259.117 338.759,259.117L340.452,259.54C340.452,259.54 343.245,261.233 345.022,261.995C346.8,262.757 349.508,262.333 350.439,262.672C351.37,263.01 353.74,262.841 353.74,262.841L356.194,261.233C356.194,261.233 357.125,258.44 357.548,258.357C357.971,258.271 363.557,258.017 364.573,257.848C365.588,257.68 367.873,256.409 368.212,255.901C368.55,255.394 369.566,251.67 369.989,251.247C370.412,250.823 371.936,249.808 372.19,249.808C372.443,249.808 374.39,249.892 374.729,249.808C375.067,249.723 378.114,247.523 378.114,247.523C378.114,247.523 376.252,243.883 376.252,243.376C376.252,242.868 376.421,241.767 376.421,241.767C376.421,241.767 376.337,239.567 376.591,238.975C376.844,238.382 378.96,235.505 378.96,235.505L378.283,232.373Z" style="fill:rgb(116,90,73);fill-rule:nonzero;"/>
        </g>
        <g transform="matrix(4.16667,0,0,4.16667,-1368.08,-956.862)">
            <path d="M376.686,231.707C376.686,231.707 374.183,230.503 371.259,230.215C368.334,229.927 363.039,230.818 362.753,231.104C362.467,231.389 361.737,233.357 360.817,233.77C359.897,234.182 353.671,235.67 351.708,236.975C349.746,238.28 348.376,241.704 347.678,242.212C346.979,242.72 344.377,243.831 343.584,245.005C342.79,246.179 342.6,246.941 342.409,247.226C342.219,247.512 340.009,249.636 339.521,250.241C339.033,250.847 338.728,254.558 338.759,255.351C338.791,256.146 339.235,258.398 339.362,258.493C339.489,258.588 340.473,258.779 340.791,258.969C341.108,259.16 345.075,261.477 346.218,261.699C347.36,261.921 349.772,261.953 350.375,262.016C350.978,262.079 353.2,262.587 353.549,262.397C353.898,262.207 355.612,261 355.771,260.81C355.929,260.62 356.755,258.271 357.167,257.954C357.58,257.637 363.8,257.881 364.625,257.426C365.451,256.97 367.545,255.954 367.736,255.637C367.926,255.319 369.164,251.384 369.577,250.94C369.989,250.495 371.83,249.416 371.989,249.321C372.147,249.226 374.337,249.385 374.559,249.258C374.781,249.131 377.447,247.353 377.447,247.353C377.447,247.353 375.702,244.084 375.702,243.577C375.702,243.069 375.575,240.085 375.892,239.006C376.21,237.927 378.177,235.833 378.241,235.357C378.304,234.881 377.67,232.468 377.543,232.373C377.416,232.278 376.686,231.707 376.686,231.707Z" style="fill:rgb(248,229,207);fill-rule:nonzero;"/>
        </g>
        <g transform="matrix(4.16667,0,0,4.16667,-1368.08,-956.862)">
            <path d="M387.212,242.021C387.212,242.021 391.782,249.681 391.698,258.144C391.613,266.607 387.889,275.663 378.876,279.556C369.862,283.449 361.864,282.434 355.559,279.81C349.254,277.187 344.811,270.924 343.16,268.766C341.51,266.607 340.918,263.772 340.918,263.772C340.918,263.772 354.134,284.089 375.956,273.251C394.871,263.857 387.212,242.021 387.212,242.021Z" style="fill:rgb(102,75,60);fill-rule:nonzero;"/>
        </g>
        <g transform="matrix(4.16667,0,0,4.16667,-1368.08,-956.862)">
            <path d="M369.997,237.11C369.997,237.11 373.848,238.576 370.937,243.066C368.025,247.556 358.915,256.078 351.964,256.262C345.014,256.445 345.014,253.696 347.362,250.03C349.71,246.365 360.417,237.935 364.55,237.11C368.683,236.286 369.997,237.11 369.997,237.11Z" style="fill:rgb(224,205,185);fill-rule:nonzero;"/>
        </g>
        <g transform="matrix(4.16667,0,0,4.16667,-1368.08,-956.862)">
            <path d="M351.962,245.766C351.962,245.766 347.329,249.607 346.599,252.114C345.869,254.621 347.979,256.123 350.883,256.081C353.787,256.039 359.135,253.352 359.135,253.352C359.135,253.352 354.977,251.574 353.263,250.019C351.55,248.464 351.962,245.766 351.962,245.766Z" style="fill:rgb(208,191,175);fill-rule:nonzero;"/>
        </g>
        <g transform="matrix(4.16667,0,0,4.16667,-1368.08,-956.862)">
            <path d="M355.982,241.429C355.982,241.429 361.949,236.182 366.942,236.266C371.936,236.351 372.443,238.636 372.274,239.99C372.105,241.344 371.513,242.487 371.513,242.487C371.513,242.487 374.305,238.998 371.682,236.744C369.058,234.489 361.78,234.87 355.982,241.429Z" style="fill:rgb(255,246,235);fill-rule:nonzero;"/>
        </g>
        <g transform="matrix(4.16667,0,0,4.16667,-1368.08,-956.862)">
            <path d="M354.723,261.286C354.723,261.286 355.549,260.684 355.549,260.588C355.549,260.493 356.628,257.763 357.04,257.604C357.453,257.447 363.832,257.628 364.054,257.426C364.276,257.224 367.355,255.7 367.355,255.7C367.355,255.7 369.069,251.163 369.227,250.924C369.386,250.686 371.766,249.067 371.766,249.067L374.178,249.067C374.178,249.067 371.639,248.656 371.544,248.814C371.449,248.972 368.72,250.924 368.72,250.924C368.72,250.924 367.038,254.526 366.847,254.621C366.657,254.716 363.864,254.843 363.864,254.843L364.625,255.732L363.769,256.906C363.769,256.906 358.756,256.557 358.501,256.59C358.246,256.621 356.437,256.875 356.437,256.875L355.136,260.43L354.723,261.286Z" style="fill:rgb(255,246,235);fill-rule:nonzero;"/>
        </g>
    </g>
    <g transform="matrix(0.760212,0,0,0.760212,162.902,92.0185)">
        <path d="M38.386,154.037C38.836,153.5 39.037,153.178 39.037,153.178L38.609,142.753C39.502,142.187 39.998,141.852 39.998,141.852L39.998,141.112C39.998,141.112 39.543,141.421 38.578,141.991L37.933,126.232L41.628,133.573C41.628,133.573 40.137,152.027 39.998,152.571C39.956,152.733 39.294,153.309 38.386,154.037Z" style="fill:rgb(216,204,197);fill-rule:nonzero;"/>
        <path d="M50,128.716C50,128.716 49.017,128.751 48.878,130C48.739,131.248 48.358,132.254 46.901,132.428C45.444,132.601 43.848,131.422 45.548,128.716C47.248,126.01 48.739,122.437 48.67,120.286C48.6,118.136 46.242,117.477 44.299,117.962C42.356,118.448 41.836,119.697 41.871,120.495C41.905,121.292 41.073,120.078 39.928,120.148C38.783,120.217 36.424,123.651 34.586,123.825C32.747,123.998 30.25,125.976 31.325,128.543C32.4,131.11 35.002,131.039 34.967,132.444C34.933,133.85 32.99,135.931 32.123,135.411C31.256,134.891 31.429,133.295 29.695,133.191C27.96,133.087 25.74,137.458 26.018,141.551C26.295,145.645 26.573,146.755 27.474,147.102C28.376,147.448 29.278,147.448 28.654,148.003C28.03,148.558 27.336,150.362 29.348,152.374C31.36,154.386 33.58,152.791 34.274,153.623C34.967,154.456 34.412,155.496 33.094,156.607C31.776,157.717 30.18,160.145 32.47,162.296C34.759,164.446 36.355,162.92 36.702,163.475C37.049,164.03 35.939,165.556 40.657,167.083C45.374,168.609 47.664,167.603 48.219,166.007C48.774,164.412 47.56,163.406 47.629,161.671C47.649,161.186 50,161.116 50,161.116L50,128.716Z" style="fill:rgb(231,166,105);fill-rule:nonzero;"/>
        <path d="M32.711,124.541C32.711,124.541 31.175,126.681 33.672,128.994C36.17,131.306 40.425,129.549 40.425,127.884C40.425,126.218 39.408,125.848 39.87,125.386C40.333,124.923 41.72,126.403 42.645,126.218C43.57,126.033 44.773,124.831 44.403,125.941C44.033,127.051 42.553,127.143 41.72,129.549C40.888,131.954 40.703,133.896 42.738,135.191C44.773,136.487 46.531,135.654 46.346,136.209C46.161,136.764 44.866,139.539 45.421,141.019C45.976,142.499 47.826,144.997 47.918,145.737C48.011,146.477 48.196,148.235 47.456,148.42C46.716,148.605 47.178,146.2 45.976,146.015C44.773,145.83 43.108,148.512 45.051,150.917C46.993,153.323 48.658,156.005 46.253,159.428C43.848,162.851 38.853,161.833 38.853,161.371C38.853,160.908 41.165,160.816 41.35,158.41C41.535,156.005 37.997,156.005 37.997,156.005C37.997,156.005 38.483,154.525 39.5,154.895C40.518,155.265 43.015,155.913 44.033,153.415C45.051,150.917 42.46,146.385 38.76,147.68C35.06,148.975 35.522,151.75 34.875,152.027C34.227,152.305 33.672,152.12 33.672,152.12C33.672,152.12 35.245,150.455 35.245,149.252C35.245,148.05 32.655,147.217 32.747,146.755C32.84,146.292 33.117,145.09 34.69,145.645C36.263,146.2 39.13,146.477 40.703,145.275C42.275,144.072 43.663,142.869 42.738,139.724C41.813,136.579 38.39,136.117 36.818,136.949C35.245,137.782 34.32,140.372 33.95,140.372C33.58,140.372 34.366,138.938 33.672,137.643C32.979,136.348 30.481,136.764 30.481,136.764C30.481,136.764 30.805,135.746 30.712,135.006C30.62,134.266 30.065,133.619 30.065,133.619C30.065,133.619 30.943,133.85 31.175,134.59C31.406,135.33 31.406,135.978 31.406,135.978C31.406,135.978 32.522,135.7 33.383,135.08C34.547,134.242 34.967,132.444 34.065,131.491C32.582,129.923 31.984,130.589 31.325,128.543C30.666,126.496 32.711,124.541 32.711,124.541Z" style="fill:rgb(200,136,84);fill-rule:nonzero;"/>
        <path d="M42.079,138.776C42.079,138.776 43.57,141.551 41.801,143.771C40.032,145.991 37.456,146.361 35.777,145.936C34.098,145.51 33.059,145.055 32.539,145.783C32.019,146.512 32.158,147.032 32.539,147.206C32.921,147.379 34.614,148.554 34.586,149.773C34.558,150.991 33.441,152.929 31.013,152.513C28.585,152.097 28.099,150.466 28.238,149.738C28.376,149.009 28.723,148.663 28.723,148.663C28.723,148.663 28.527,150.779 30.065,150.883C31.603,150.987 33.233,149.565 32.435,148.42C31.637,147.275 31.533,147.691 30.562,146.755C29.591,145.818 29.764,143.39 31.984,143.702C34.204,144.014 37.326,145.159 39.72,143.008C42.113,140.857 42.079,138.776 42.079,138.776Z" style="fill:rgb(216,154,99);fill-rule:nonzero;"/>
        <path d="M29.278,133.573C29.278,133.573 30.215,133.85 30.25,134.995C30.284,136.14 29.868,136.66 30.25,136.833C30.631,137.007 32.506,136.348 33.233,137.77C33.96,139.192 33.927,140.892 32.227,142.037C30.527,143.182 28.216,142.176 28.216,142.176C28.216,142.176 31.88,142.176 31.603,139.99C31.325,137.805 29.452,138.811 28.966,138.29C28.48,137.77 29.556,136.487 29.521,135.203C29.486,133.919 29.278,133.573 29.278,133.573Z" style="fill:rgb(216,154,99);fill-rule:nonzero;"/>
        <path d="M42.218,148.42C42.218,148.42 44.403,150.443 43.952,152.571C43.501,154.699 42.009,155.288 40.518,154.941C39.026,154.595 38.575,154.433 38.124,155.034C37.673,155.635 37.639,156.19 37.639,156.19C37.639,156.19 40.31,156.086 40.969,157.682C41.628,159.278 39.026,160.977 38.61,161.255C38.194,161.532 37.847,162.261 37.222,162.677C36.598,163.093 34.759,163.649 33.025,162.33C31.29,161.012 31.776,159.035 31.776,159.035C31.776,159.035 32.192,161.914 34.898,161.637C37.604,161.359 39.153,158.514 37.997,157.508C36.841,156.502 36.667,156.815 36.459,156.155C36.251,155.496 36.284,153.38 37.863,153.207C39.442,153.033 41.814,153.684 42.667,151.923C43.52,150.163 42.218,148.42 42.218,148.42Z" style="fill:rgb(216,154,99);fill-rule:nonzero;"/>
        <path d="M34.933,123.998C34.933,123.998 32.539,124.206 32.574,126.392C32.609,128.577 35.56,130.065 37.777,129.444C39.994,128.824 40.306,127.878 40.032,126.792C39.758,125.707 39.165,125.247 39.477,124.97C39.789,124.692 40.969,126.08 42.911,125.733C44.854,125.386 46.311,124.519 47.005,122.819C47.699,121.119 47.317,120.009 47.317,120.009C47.317,120.009 46.831,123.062 45.513,123.409C44.195,123.755 43.64,121.778 43.397,122.125C43.154,122.472 45.062,125.074 42.287,124.137C39.512,123.2 38.818,121.778 38.645,122.437C38.471,123.096 39.2,124.657 38.853,126.045C38.506,127.433 35.722,127.544 34.551,126.08C33.38,124.615 34.933,123.998 34.933,123.998Z" style="fill:rgb(216,154,99);fill-rule:nonzero;"/>
        <path d="M37.863,162.434C37.863,162.434 36.737,163.371 37.188,164.585C37.639,165.799 41.489,167.43 44.195,167.534C46.901,167.638 48.7,166.736 48.009,164.759C47.317,162.781 46.866,161.775 47.456,161.29C48.045,160.804 49.711,160.7 49.711,160.7C49.711,160.7 47.525,160.11 46.554,161.012C45.582,161.914 46.554,163.336 46.033,164.585C45.513,165.834 39.72,164.516 38.61,163.857C37.5,163.198 37.863,162.434 37.863,162.434Z" style="fill:rgb(216,154,99);fill-rule:nonzero;"/>
        <path d="M45.374,146.373C45.374,146.373 43.932,147.582 44.576,149.356C45.221,151.13 47.972,153.831 48.009,155.392C48.045,156.953 47.104,157.543 48.009,158.445C48.913,159.347 49.711,158.931 49.711,158.931C49.711,158.931 48.358,157.821 48.531,157.162C48.705,156.502 50.331,154.976 48.009,152.062C45.687,149.148 44.403,148.177 45.374,146.373Z" style="fill:rgb(216,154,99);fill-rule:nonzero;"/>
        <path d="M46.866,136.105C46.866,136.105 45.062,138.429 45.687,140.857C46.311,143.286 48.08,144.743 48.878,144.916C49.676,145.09 50,145.055 50,145.055L50,143.209C50,143.209 47.958,143.315 46.866,140.823C45.774,138.33 46.866,136.105 46.866,136.105Z" style="fill:rgb(216,154,99);fill-rule:nonzero;"/>
        <path d="M42.667,128.022C42.667,128.022 40.587,130.832 41.628,133.573C42.669,136.313 45.374,136.174 46.762,135.585C48.149,134.995 48.423,132.948 48.009,132.74C47.594,132.532 46.45,132.844 46.137,133.33C45.825,133.815 44.403,134.405 43.05,133.122C41.697,131.838 42.11,129.41 42.667,128.022Z" style="fill:rgb(216,154,99);fill-rule:nonzero;"/>
        <path d="M49.979,128.716C49.979,128.716 50.962,128.751 51.101,130C51.239,131.248 51.621,132.254 53.078,132.428C54.535,132.601 56.131,131.422 54.431,128.716C52.731,126.01 51.239,122.437 51.309,120.286C51.378,118.136 53.737,117.477 55.68,117.962C57.622,118.448 58.143,119.697 58.108,120.495C58.073,121.292 58.906,120.078 60.05,120.148C61.195,120.217 63.554,123.651 65.393,123.825C67.231,123.998 69.729,125.976 68.654,128.543C67.578,131.11 64.976,131.039 65.011,132.444C65.046,133.85 66.988,135.931 67.856,135.411C68.723,134.891 68.549,133.295 70.284,133.191C72.018,133.087 74.239,137.458 73.961,141.551C73.684,145.645 73.406,146.755 72.504,147.102C71.602,147.448 70.7,147.448 71.325,148.003C71.949,148.558 72.643,150.362 70.631,152.374C68.619,154.386 66.399,152.791 65.705,153.623C65.011,154.456 65.566,155.496 66.884,156.607C68.203,157.717 69.798,160.145 67.509,162.296C65.219,164.446 63.624,162.92 63.277,163.475C62.93,164.03 64.04,165.556 59.322,167.083C54.604,168.609 52.315,167.603 51.76,166.007C51.205,164.412 52.419,163.406 52.349,161.671C52.33,161.186 49.979,161.116 49.979,161.116L49.979,128.716Z" style="fill:rgb(231,166,105);fill-rule:nonzero;"/>
        <path d="M67.267,124.541C67.267,124.541 68.804,126.681 66.306,128.994C63.809,131.306 59.553,129.549 59.553,127.884C59.553,126.218 60.571,125.848 60.108,125.386C59.646,124.923 58.258,126.403 57.333,126.218C56.408,126.033 55.206,124.831 55.576,125.941C55.946,127.051 57.426,127.143 58.258,129.549C59.091,131.954 59.276,133.896 57.241,135.191C55.206,136.487 53.448,135.654 53.633,136.209C53.818,136.764 55.113,139.539 54.558,141.019C54.003,142.499 52.153,144.997 52.06,145.737C51.968,146.477 51.783,148.235 52.523,148.42C53.263,148.605 52.8,146.2 54.003,146.015C55.206,145.83 56.871,148.512 54.928,150.917C52.985,153.323 51.32,156.005 53.725,159.428C56.131,162.851 61.126,161.833 61.126,161.371C61.126,160.908 58.813,160.816 58.628,158.41C58.443,156.005 61.982,156.005 61.982,156.005C61.982,156.005 61.496,154.525 60.478,154.895C59.461,155.265 56.963,155.913 55.946,153.415C54.928,150.917 57.518,146.385 61.218,147.68C64.919,148.975 64.456,151.75 65.104,152.027C65.751,152.305 66.306,152.12 66.306,152.12C66.306,152.12 64.734,150.455 64.734,149.252C64.734,148.05 67.324,147.217 67.231,146.755C67.139,146.292 66.861,145.09 65.289,145.645C63.716,146.2 60.848,146.477 59.276,145.275C57.703,144.072 56.316,142.869 57.241,139.724C58.166,136.579 61.588,136.117 63.161,136.949C64.734,137.782 65.659,140.372 66.029,140.372C66.399,140.372 65.612,138.938 66.306,137.643C67,136.348 69.498,136.764 69.498,136.764C69.498,136.764 69.174,135.746 69.266,135.006C69.359,134.266 69.914,133.619 69.914,133.619C69.914,133.619 69.035,133.85 68.804,134.59C68.573,135.33 68.573,135.978 68.573,135.978C68.573,135.978 67.456,135.7 66.595,135.08C65.431,134.242 65.011,132.444 65.913,131.491C67.397,129.923 67.994,130.589 68.654,128.543C69.313,126.496 67.267,124.541 67.267,124.541Z" style="fill:rgb(200,136,84);fill-rule:nonzero;"/>
        <path d="M57.9,138.776C57.9,138.776 56.408,141.551 58.177,143.771C59.946,145.991 62.523,146.361 64.202,145.936C65.881,145.51 66.919,145.055 67.439,145.783C67.96,146.512 67.821,147.032 67.439,147.206C67.058,147.379 65.364,148.554 65.393,149.773C65.421,150.991 66.537,152.929 68.966,152.513C71.394,152.097 71.88,150.466 71.741,149.738C71.602,149.009 71.255,148.663 71.255,148.663C71.255,148.663 71.452,150.779 69.914,150.883C68.376,150.987 66.746,149.565 67.543,148.42C68.341,147.275 68.445,147.691 69.417,146.755C70.388,145.818 70.215,143.39 67.994,143.702C65.774,144.014 62.652,145.159 60.259,143.008C57.865,140.857 57.9,138.776 57.9,138.776Z" style="fill:rgb(216,154,99);fill-rule:nonzero;"/>
        <path d="M70.7,133.573C70.7,133.573 69.764,133.85 69.729,134.995C69.694,136.14 70.11,136.66 69.729,136.833C69.347,137.007 67.472,136.348 66.746,137.77C66.019,139.192 66.052,140.892 67.752,142.037C69.451,143.182 71.762,142.176 71.762,142.176C71.762,142.176 68.098,142.176 68.376,139.99C68.654,137.805 70.527,138.811 71.012,138.29C71.498,137.77 70.423,136.487 70.457,135.203C70.492,133.919 70.7,133.573 70.7,133.573Z" style="fill:rgb(216,154,99);fill-rule:nonzero;"/>
        <path d="M57.761,148.42C57.761,148.42 55.576,150.443 56.027,152.571C56.477,154.699 57.969,155.288 59.461,154.941C60.952,154.595 61.403,154.433 61.854,155.034C62.305,155.635 62.34,156.19 62.34,156.19C62.34,156.19 59.669,156.086 59.01,157.682C58.351,159.278 60.952,160.977 61.369,161.255C61.785,161.532 62.132,162.261 62.756,162.677C63.381,163.093 65.219,163.649 66.954,162.33C68.688,161.012 68.203,159.035 68.203,159.035C68.203,159.035 67.786,161.914 65.08,161.637C62.375,161.359 60.826,158.514 61.982,157.508C63.138,156.502 63.311,156.815 63.519,156.155C63.728,155.496 63.694,153.38 62.115,153.207C60.536,153.033 58.165,153.684 57.312,151.923C56.459,150.163 57.761,148.42 57.761,148.42Z" style="fill:rgb(216,154,99);fill-rule:nonzero;"/>
        <path d="M65.046,123.998C65.046,123.998 67.439,124.206 67.405,126.392C67.37,128.577 64.418,130.065 62.201,129.444C59.984,128.824 59.672,127.878 59.946,126.792C60.221,125.707 60.814,125.247 60.501,124.97C60.189,124.692 59.01,126.08 57.067,125.733C55.125,125.386 53.668,124.519 52.974,122.819C52.28,121.119 52.662,120.009 52.662,120.009C52.662,120.009 53.147,123.062 54.465,123.409C55.784,123.755 56.339,121.778 56.582,122.125C56.824,122.472 54.916,125.074 57.692,124.137C60.467,123.2 61.161,121.778 61.334,122.437C61.507,123.096 60.779,124.657 61.126,126.045C61.473,127.433 64.257,127.544 65.427,126.08C66.598,124.615 65.046,123.998 65.046,123.998Z" style="fill:rgb(216,154,99);fill-rule:nonzero;"/>
        <path d="M62.115,162.434C62.115,162.434 63.242,163.371 62.791,164.585C62.34,165.799 58.489,167.43 55.784,167.534C53.078,167.638 51.278,166.736 51.97,164.759C52.662,162.781 53.113,161.775 52.523,161.29C51.933,160.804 50.268,160.7 50.268,160.7C50.268,160.7 52.453,160.11 53.425,161.012C54.396,161.914 53.425,163.336 53.945,164.585C54.465,165.834 60.259,164.516 61.369,163.857C62.479,163.198 62.115,162.434 62.115,162.434Z" style="fill:rgb(216,154,99);fill-rule:nonzero;"/>
        <path d="M54.604,146.373C54.604,146.373 56.046,147.582 55.402,149.356C54.758,151.13 52.007,153.831 51.97,155.392C51.933,156.953 52.874,157.543 51.97,158.445C51.066,159.347 50.268,158.931 50.268,158.931C50.268,158.931 51.621,157.821 51.447,157.162C51.274,156.502 49.648,154.976 51.97,152.062C54.292,149.148 55.576,148.177 54.604,146.373Z" style="fill:rgb(216,154,99);fill-rule:nonzero;"/>
        <path d="M53.113,136.105C53.113,136.105 54.916,138.429 54.292,140.857C53.668,143.286 51.898,144.743 51.101,144.916C50.303,145.09 49.979,145.055 49.979,145.055L49.979,143.209C49.979,143.209 52.021,143.315 53.113,140.823C54.204,138.33 53.113,136.105 53.113,136.105Z" style="fill:rgb(216,154,99);fill-rule:nonzero;"/>
        <path d="M57.312,128.022C57.312,128.022 59.391,130.832 58.351,133.573C57.31,136.313 54.604,136.174 53.217,135.585C51.829,134.995 51.556,132.948 51.97,132.74C52.384,132.532 53.529,132.844 53.841,133.33C54.153,133.815 55.576,134.405 56.928,133.122C58.281,131.838 57.869,129.41 57.312,128.022Z" style="fill:rgb(216,154,99);fill-rule:nonzero;"/>
    </g>
    <g transform="matrix(0.760212,0,0,0.760212,-32.5634,170.647)">
        <path d="M281.262,21.694C281.078,21.237 280.522,20.028 279.58,19.438C278.408,18.704 278.239,18.768 276.899,17.585C275.558,16.402 275.677,15.653 274.099,14.667C272.522,13.681 271.221,13.918 269.683,12.735C268.145,11.552 268.5,10.093 268.855,8.595C269.198,7.148 268.319,6.455 268.258,6.409C265.262,5.44 263.572,6.032 263.572,6.032C263.572,6.032 261.048,7.609 259.629,11.473C258.765,13.824 258.282,17.901 258.161,22.453C258.164,22.729 258.23,24.297 259.273,24.801C260.417,25.353 262.665,26.575 262.98,28.428C263.296,30.281 262.744,30.991 263.217,31.74C263.69,32.49 265.267,35.25 264.833,36.275C264.4,37.3 262.349,37.458 262.625,39.547C262.901,41.637 264.163,44.634 263.099,47.354C262.034,50.075 261.165,50.391 261.009,51.652C260.851,52.914 259.471,55.004 258.997,55.438C258.528,55.867 257.127,56.133 257.126,56.353C257.44,59.259 258.816,62.39 263.572,63.126C270.196,64.152 281.394,53.427 282.892,38.365C283.522,32.028 282.761,26.387 281.262,21.694Z" style="fill:rgb(238,208,163);fill-rule:nonzero;"/>
        <path d="M258.997,55.438C259.471,55.004 260.851,52.914 261.009,51.652C261.165,50.391 262.034,50.075 263.099,47.354C264.163,44.634 262.901,41.637 262.625,39.547C262.349,37.458 264.4,37.3 264.833,36.275C265.267,35.25 263.69,32.49 263.217,31.74C262.744,30.991 263.296,30.281 262.98,28.428C262.665,26.575 260.417,25.353 259.273,24.801C258.23,24.297 258.164,22.729 258.161,22.453C258.082,25.383 258.151,28.508 258.367,31.504C258.919,39.153 257.342,49.957 257.105,53.19C257.038,54.103 257.002,55.211 257.126,56.353C257.127,56.133 258.528,55.867 258.997,55.438Z" style="fill:rgb(139,108,90);fill-rule:nonzero;"/>
        <path d="M268.855,8.595C268.5,10.093 268.145,11.552 269.683,12.735C271.221,13.918 272.522,13.681 274.099,14.667C275.677,15.653 275.558,16.402 276.899,17.585C278.239,18.768 278.408,18.704 279.58,19.438C280.522,20.028 281.078,21.237 281.262,21.694C279.198,15.233 275.726,10.578 272.483,8.477C270.876,7.436 269.464,6.799 268.258,6.409C268.319,6.455 269.198,7.148 268.855,8.595Z" style="fill:rgb(139,108,90);fill-rule:nonzero;"/>
        <path d="M264.289,62.686C263.98,62.686 263.672,62.674 263.361,62.653C260.157,62.437 257.879,59.58 257.441,56.141C257.881,55.96 258.669,55.739 258.997,55.438C259.471,55.004 260.851,52.914 261.009,51.652C261.151,50.514 261.871,50.146 262.793,48.086C264.096,49.74 266.173,50.907 269.512,51.087C269.657,51.095 269.802,51.099 269.945,51.099C278.419,51.1 282.762,37.488 282.813,32.266C282.813,32.266 283.129,45.146 277.03,53.453C271.418,61.097 267.854,62.686 264.289,62.686Z" style="fill:rgb(231,194,147);fill-rule:nonzero;"/>
        <path d="M257.441,56.141C257.346,55.405 257.337,54.643 257.42,53.874C257.894,49.51 258.682,41.256 258.945,36.998C259.208,32.739 258.525,25.8 258.525,25.8C258.525,25.8 260.259,33.265 260.47,38.312C260.6,41.434 260.678,45.402 262.793,48.086C261.871,50.146 261.151,50.514 261.009,51.652C260.851,52.914 259.471,55.004 258.997,55.438C258.669,55.739 257.881,55.96 257.441,56.141Z" style="fill:rgb(135,102,81);fill-rule:nonzero;"/>
        <path d="M276.777,39.966C275.058,39.966 274.104,34.847 274.297,30.873C274.533,25.984 271.682,16.442 268.258,13.366C264.92,10.368 263.542,6.972 266.561,6.972C266.64,6.972 266.721,6.974 266.805,6.978C266.805,6.978 267.661,7.306 268.928,8.122C268.918,8.27 268.895,8.427 268.855,8.595C268.701,9.245 268.547,9.887 268.548,10.503C268.548,11.307 268.812,12.065 269.683,12.735C271.221,13.918 272.522,13.681 274.099,14.667C275.677,15.653 275.558,16.402 276.899,17.585C280.605,25.747 280.605,35.762 278.082,39.074C277.609,39.694 277.173,39.966 276.777,39.966Z" style="fill:rgb(240,213,171);fill-rule:nonzero;"/>
        <path d="M276.899,17.585C275.558,16.402 275.677,15.653 274.099,14.667C272.522,13.681 271.221,13.918 269.683,12.735C268.812,12.065 268.548,11.307 268.548,10.503C268.547,9.887 268.701,9.245 268.855,8.595C268.895,8.427 268.918,8.27 268.928,8.122C271.123,9.535 274.549,12.411 276.899,17.585Z" style="fill:rgb(151,122,106);fill-rule:nonzero;"/>
    </g>
    <g transform="matrix(0.760212,0,0,0.760212,-105.159,4.19145)">
        <path d="M161.184,277.253C161.452,274.352 162.043,270.216 163.762,266.295C165.481,262.373 166.18,258.599 166.555,257.344C166.931,256.088 166.77,260.977 165.696,264.253C164.621,267.53 163.229,271.881 162.905,274.728C162.58,277.576 162.526,279.617 165.857,277.683C169.188,275.749 172.477,262.268 172.477,262.268C173.287,257.365 173.917,251.996 174.022,247.627C174.167,241.657 172.968,238.299 171.717,236.508C171.706,236.497 170.233,235.027 169.188,235.863C168.138,236.702 168.059,244.565 166.851,251.414C165.642,258.264 162.177,267.208 161.291,269.948C160.405,272.687 159.76,279.778 158.632,279.134C157.504,278.489 159.679,265.596 162.5,257.344C165.302,249.143 166.45,233.472 166.464,233.274C165.99,232.877 165.232,232.548 164.031,232.398C162.741,232.237 162.191,232.613 161.909,233.043C161.909,233.043 162.741,243.598 160.807,249.239C158.874,254.879 155.248,269.061 155.086,272.848C154.925,276.636 154.603,278.489 154.119,278.489C153.636,278.489 152.347,274.057 154.119,268.658C155.892,263.26 158.713,248.514 159.438,242.39C160.129,236.553 160.086,234.597 159.104,233.24C158.392,233.202 156.99,233.354 155.167,234.735C152.508,236.749 149.526,242.068 146.948,258.99C145.199,270.463 146.119,275.747 147.37,278.489C147.373,278.493 149.419,281.011 149.043,277.898C148.667,274.782 149.634,270.055 151.245,267.154C152.857,264.253 155.251,256.786 155.251,256.786C155.251,256.786 154.361,263.072 153.213,265.811C152.064,268.551 150.117,274.514 150.816,276.448C151.514,278.382 153.555,279.993 154.361,280.208C155.167,280.423 155.251,281.602 155.251,281.602L155.25,281.603C155.675,281.81 156.108,282.141 156.295,282.289C156.617,282.543 157.907,281.47 158.954,281.228C159.073,281.201 159.169,281.198 159.254,281.209C159.254,281.209 160.915,280.154 161.184,277.253Z" style="fill:rgb(156,108,79);fill-rule:nonzero;"/>
        <path d="M158.632,279.134C159.76,279.778 160.405,272.687 161.291,269.948C162.177,267.208 165.642,258.264 166.851,251.414C168.059,244.565 168.138,236.702 169.188,235.863C170.233,235.027 171.706,236.497 171.717,236.508C170.874,235.301 170.007,234.799 169.51,234.716C168.274,234.509 168.006,237.072 167.576,237.072C167.146,237.072 167.093,235.675 167.146,234.762C167.175,234.274 167.007,233.729 166.464,233.274C166.45,233.472 165.302,249.143 162.5,257.344C159.679,265.596 157.504,278.489 158.632,279.134Z" style="fill:rgb(133,86,56);fill-rule:nonzero;"/>
        <path d="M159.438,242.39C158.713,248.514 155.892,263.26 154.119,268.658C152.347,274.057 153.636,278.489 154.119,278.489C154.603,278.489 154.925,276.636 155.086,272.848C155.248,269.061 158.874,254.879 160.807,249.239C162.741,243.598 161.909,233.043 161.909,233.043C161.627,233.472 161.613,233.956 161.398,234.01C160.969,234.117 159.626,233.311 159.626,233.311C159.626,233.311 159.43,233.258 159.104,233.24C160.086,234.597 160.129,236.553 159.438,242.39Z" style="fill:rgb(133,86,56);fill-rule:nonzero;"/>
        <path d="M162.177,282.276C164.917,282.115 167.576,278.65 169.188,275.749C170.095,274.117 171.435,268.579 172.477,262.268C172.477,262.268 169.188,275.749 165.857,277.683C162.526,279.617 162.58,277.576 162.905,274.728C163.229,271.881 164.621,267.53 165.696,264.253C166.77,260.977 166.931,256.088 166.555,257.344C166.18,258.599 165.481,262.373 163.762,266.295C162.043,270.216 161.452,274.352 161.184,277.253C160.915,280.154 159.254,281.209 159.254,281.209C159.914,281.298 159.749,282.419 162.177,282.276Z" style="fill:rgb(133,86,56);fill-rule:nonzero;"/>
        <path d="M154.361,280.208C153.555,279.993 151.514,278.382 150.816,276.448C150.117,274.514 152.064,268.551 153.213,265.811C154.361,263.072 155.251,256.786 155.251,256.786C155.251,256.786 152.857,264.253 151.245,267.154C149.634,270.055 148.667,274.782 149.043,277.898C149.419,281.011 147.373,278.493 147.37,278.489C147.963,279.791 148.631,280.523 149.124,281.067C150.655,282.759 153.958,281.712 154.442,281.47C154.644,281.369 154.945,281.455 155.25,281.603L155.251,281.602C155.251,281.602 155.167,280.423 154.361,280.208Z" style="fill:rgb(133,86,56);fill-rule:nonzero;"/>
        <path d="M158.775,279.175C158.777,279.175 158.778,279.175 158.78,279.175C158.778,279.175 158.777,279.175 158.775,279.175ZM158.775,279.175C158.728,279.175 158.68,279.161 158.632,279.134C158.68,279.161 158.728,279.175 158.775,279.175Z" style="fill:rgb(229,220,212);fill-rule:nonzero;"/>
        <path d="M156.66,282.025C156.641,282.025 156.627,282.021 156.617,282.013C156.505,281.916 155.867,281.574 155.218,281.375C155.148,281.022 154.943,280.363 154.361,280.208C153.555,279.993 151.514,278.382 150.816,276.448C150.713,276.164 150.668,275.795 150.668,275.361C150.669,274.131 151.041,272.388 151.535,270.653C152.068,271.274 152.672,271.807 153.329,272.243C153.248,272.942 153.213,273.603 153.213,274.215C153.212,276.79 153.82,278.489 154.119,278.489C154.591,278.489 154.909,276.727 155.074,273.129C155.975,273.46 156.934,273.633 157.916,273.634C158.172,273.634 158.43,273.622 158.689,273.598C158.457,275.25 158.328,276.649 158.328,277.631C158.328,278.478 158.424,279.015 158.632,279.134C158.68,279.161 158.728,279.175 158.775,279.175C158.777,279.175 158.778,279.175 158.78,279.175C159.496,279.162 160.016,276.023 160.547,273.217C160.973,273.081 161.397,272.911 161.818,272.706C161.491,274.384 161.305,275.945 161.184,277.253C160.984,279.411 160.013,280.548 159.529,280.988C159.411,280.929 159.292,280.894 159.165,280.894C159.123,280.894 159.079,280.898 159.035,280.906C158.24,281.058 156.946,282.025 156.66,282.025Z" style="fill:rgb(144,96,68);fill-rule:nonzero;"/>
        <path d="M163.823,278.443C163.828,278.443 163.834,278.443 163.839,278.443C163.834,278.443 163.828,278.443 163.823,278.443ZM163.821,278.443C162.582,278.441 162.668,276.815 162.901,274.762C162.668,276.815 162.583,278.441 163.821,278.443ZM165.741,277.749C165.779,277.728 165.818,277.706 165.857,277.683C167.848,276.527 169.824,271.244 171.092,267.182C169.824,271.244 167.848,276.527 165.857,277.683C165.818,277.706 165.779,277.728 165.741,277.749Z" style="fill:rgb(229,220,212);fill-rule:nonzero;"/>
        <path d="M163.823,278.443C163.822,278.443 163.822,278.443 163.821,278.443C162.583,278.441 162.668,276.815 162.901,274.762C162.902,274.751 162.903,274.74 162.905,274.728C163.006,273.835 163.213,272.795 163.482,271.685C164.203,271.148 164.901,270.494 165.562,269.715C171.283,262.977 173.163,254.799 173.163,254.799C173.163,254.799 172.333,261.375 171.092,267.182C169.824,271.244 167.848,276.527 165.857,277.683C165.818,277.706 165.779,277.728 165.741,277.749C164.902,278.224 164.286,278.437 163.839,278.443C163.834,278.443 163.828,278.443 163.823,278.443Z" style="fill:rgb(144,96,68);fill-rule:nonzero;"/>
        <path d="M158.775,279.175C158.728,279.175 158.68,279.161 158.632,279.134C158.424,279.015 158.328,278.478 158.328,277.631C158.328,276.649 158.457,275.25 158.689,273.598C159.305,273.541 159.927,273.415 160.547,273.217C160.016,276.023 159.496,279.162 158.78,279.175C158.778,279.175 158.777,279.175 158.775,279.175Z" style="fill:rgb(122,76,48);fill-rule:nonzero;"/>
        <path d="M154.119,278.489C153.82,278.489 153.212,276.79 153.213,274.215C153.213,273.603 153.248,272.942 153.329,272.243C153.877,272.607 154.462,272.904 155.074,273.129C154.909,276.727 154.591,278.489 154.119,278.489Z" style="fill:rgb(122,76,48);fill-rule:nonzero;"/>
        <path d="M161.989,282.028C161.161,282.029 160.634,281.745 160.224,281.461C159.96,281.278 159.745,281.095 159.529,280.988C160.013,280.548 160.984,279.411 161.184,277.253C161.305,275.945 161.491,274.384 161.818,272.706C162.381,272.43 162.938,272.091 163.482,271.685C163.213,272.795 163.006,273.835 162.905,274.728C162.903,274.74 162.902,274.751 162.901,274.762C162.668,276.815 162.582,278.441 163.821,278.443L163.839,278.443C164.286,278.437 164.902,278.224 165.741,277.749C165.779,277.728 165.818,277.706 165.857,277.683C167.848,276.527 169.824,271.244 171.092,267.182C170.692,269.054 170.25,270.845 169.779,272.311C167.845,278.328 164.393,281.829 162.338,282.013C162.216,282.023 162.1,282.028 161.989,282.028Z" style="fill:rgb(122,76,48);fill-rule:nonzero;"/>
        <path d="M148.663,279.455C148.495,279.455 148.298,279.35 148.109,279.21C147.227,277.57 146.445,274.849 146.303,270.351C146.062,262.695 148.439,252.099 148.439,252.099C148.439,252.099 147.633,259.392 149.486,266.644C149.703,267.494 150.012,268.28 150.397,268.993C149.51,271.294 148.964,274.108 148.962,276.436C148.962,276.951 148.988,277.442 149.043,277.898C149.046,277.92 149.048,277.942 149.051,277.963C149.052,277.971 149.052,277.978 149.053,277.986C149.176,279.104 148.97,279.454 148.664,279.455L148.663,279.455Z" style="fill:rgb(144,96,68);fill-rule:nonzero;"/>
        <path d="M151.376,281.643C150.842,281.643 150.333,281.558 149.929,281.309C149.397,280.981 148.728,280.361 148.109,279.21C148.298,279.35 148.495,279.455 148.663,279.455L148.664,279.455C148.97,279.454 149.176,279.104 149.053,277.986C149.052,277.978 149.052,277.971 149.051,277.963C149.048,277.942 149.046,277.92 149.043,277.898C148.988,277.442 148.962,276.951 148.962,276.436C148.964,274.108 149.51,271.294 150.397,268.993C150.724,269.6 151.107,270.155 151.535,270.653C151.041,272.388 150.669,274.131 150.668,275.361C150.668,275.795 150.713,276.164 150.816,276.448C151.514,278.382 153.555,279.993 154.361,280.208C154.943,280.363 155.148,281.022 155.218,281.375C154.933,281.288 154.647,281.228 154.402,281.228C153.847,281.228 152.551,281.643 151.376,281.643Z" style="fill:rgb(122,76,48);fill-rule:nonzero;"/>
    </g>
    <g transform="matrix(0.760212,0,0,0.760212,-207.774,171.471)">
        <path d="M361.068,41.489C361.068,41.489 359.151,37.989 361.651,34.073C364.151,30.156 368.734,27.907 370.734,24.907C372.734,21.907 372.4,14.741 364.318,14.241C356.235,13.741 345.986,21.907 341.486,35.739C336.987,49.572 347.069,60.987 357.735,62.82C368.401,64.654 375.15,61.487 373.817,53.405C372.846,47.52 368.401,48.488 365.151,46.155C361.901,43.822 361.068,41.489 361.068,41.489Z" style="fill:rgb(238,208,163);fill-rule:nonzero;"/>
        <path d="M363.065,62.776C361.723,62.776 360.227,62.658 358.568,62.404C348.069,60.793 341.625,52.405 341.014,44.127C340.403,35.85 344.958,28.351 344.958,28.351C339.07,40.239 344.625,51.238 353.902,55.571C356.483,56.776 358.697,57.255 360.505,57.255C365.197,57.255 367.147,54.03 365.623,51.905C363.512,48.96 358.79,45.627 359.013,41.128C359.235,36.628 361.346,34.017 361.346,34.017C361.346,34.017 359.79,36.739 360.235,40.295C360.679,43.85 364.79,46.85 368.567,48.072C372.345,49.294 374.289,51.571 373.622,55.849C373.061,59.45 370.217,62.776 363.065,62.776Z" style="fill:rgb(231,194,147);fill-rule:nonzero;"/>
        <path d="M363.791,55.488C362.145,55.488 348.576,51.005 349.902,39.156C351.235,27.24 362.568,21.074 362.568,21.074C363.45,20.4 364.167,20.129 364.66,20.129C365.718,20.129 365.743,21.38 364.151,22.574C361.818,24.324 352.735,30.656 352.319,39.906C351.902,49.155 362.234,51.905 363.818,52.988C365.401,54.071 365.339,55.438 363.818,55.488C363.809,55.488 363.801,55.488 363.791,55.488Z" style="fill:rgb(241,215,176);fill-rule:nonzero;"/>
    </g>
    <g transform="matrix(0.760212,0,0,0.760212,-69.0747,6.12141)">
        <path d="M229.301,241.63C229.301,241.63 228.287,242.363 228.287,243.424C228.287,244.485 228.474,246.794 227.039,248.791C225.604,250.788 217.553,262.085 227.039,274.815C234.926,285.401 247.415,279.215 252.002,277.155C256.588,275.096 267.167,265.641 259.678,253.566C252.189,241.49 244.139,241.958 239.739,242.613C235.339,243.268 233.514,243.221 232.437,242.285C231.361,241.349 230.222,241.505 229.301,241.63Z" style="fill:rgb(238,208,163);fill-rule:nonzero;"/>
        <path d="M238.824,280.036C234.535,280.036 230.983,278.452 228.038,275.065C223.045,269.323 222.983,261.71 222.983,261.71C222.983,261.71 225.364,271.477 236.174,271.478C238.486,271.479 241.183,271.032 244.326,269.947C262.163,263.792 257.931,250.913 253.937,246.981C253.937,246.981 260.302,252.785 261.549,259.588C262.798,266.39 257.993,274.253 248.882,277.811C245.145,279.269 241.806,280.036 238.824,280.036Z" style="fill:rgb(231,196,150);fill-rule:nonzero;"/>
        <path d="M250.996,255.598C250.846,255.598 250.691,255.589 250.532,255.57C247.205,255.182 245.265,251.578 240.497,250.636C235.728,249.693 232.014,246.589 231.626,244.593C231.434,243.605 231.771,243.283 232.322,243.283C232.884,243.283 233.67,243.619 234.342,243.927C234.342,243.927 237.839,243.713 242.385,243.262C242.768,243.224 243.154,243.205 243.539,243.205C247.706,243.205 251.795,245.391 253.47,248.64C255.212,252.018 253.988,255.598 250.996,255.598Z" style="fill:rgb(241,215,176);fill-rule:nonzero;"/>
    </g>
    <g transform="matrix(0.760212,0,0,0.760212,44.1025,91.1749)">
        <path d="M122.399,134.984C118.751,136.611 115.608,144.243 123.857,152.324C132.107,160.405 142.937,155.354 145.575,148.059C148.212,140.764 151.411,137.341 154.385,135.938C154.635,135.82 154.946,135.742 155.28,135.681C154.194,131.578 152.102,127.743 148.857,125.472C143.807,121.937 140.58,123.087 140.58,123.087L127.515,128.421C128.873,129.579 129.75,130.354 129.75,130.354C129.75,130.354 126.046,133.356 122.399,134.984Z" style="fill:rgb(166,107,62);fill-rule:nonzero;"/>
        <path d="M114.093,148.115C117.208,159.563 130.807,170.663 145.996,164.866C157.022,160.657 156.181,148.788 156.181,142.56C156.181,140.332 155.884,137.965 155.28,135.681C154.946,135.742 154.635,135.82 154.385,135.938C151.411,137.341 148.212,140.764 145.575,148.059C142.937,155.354 132.107,160.405 123.857,152.324C115.608,144.243 118.751,136.611 122.399,134.984C126.046,133.356 129.75,130.354 129.75,130.354C129.75,130.354 128.873,129.579 127.515,128.421L119.48,131.701C119.48,131.701 110.979,136.667 114.093,148.115Z" style="fill:rgb(147,90,50);fill-rule:nonzero;"/>
        <path d="M120.463,130.887C121.416,132.234 133.089,128.294 136.624,125.859C138.811,124.352 139.813,123.298 140.263,122.71C138.878,122.12 133.325,121.896 126.804,124.63C125.883,125.016 125.047,125.438 124.277,125.879C124.007,126.088 119.537,129.581 120.463,130.887Z" style="fill:rgb(191,167,143);fill-rule:nonzero;"/>
        <path d="M116.871,134.058C116.955,134.479 120.911,133.553 129.75,130.354C138.588,127.155 140.58,123.087 140.58,123.087C140.665,122.96 140.54,122.828 140.263,122.71C139.813,123.298 138.811,124.352 136.624,125.859C133.089,128.294 121.416,132.234 120.463,130.887C119.537,129.581 124.007,126.088 124.277,125.879C118.499,129.188 116.797,133.686 116.871,134.058Z" style="fill:rgb(162,143,126);fill-rule:nonzero;"/>
        <path d="M129.101,154.902C129.101,154.902 127.859,153.561 124.519,148.277C121.179,142.993 121.399,137.55 121.399,137.55C121.9,141.432 124.037,145.261 124.397,146.195C124.212,145.135 123.593,140.319 123.593,140.319L126.638,147.151L126.051,144.686L127.409,145.98L125.319,138.49C125.319,138.49 128.369,142.557 128.811,143.244C128.396,142.379 125.688,136.042 125.688,136.042L131.385,146.249L130.826,141.361L133.695,145.537L132.868,141.19C132.868,141.19 135.412,143.913 135.525,143.913C135.532,143.913 135.53,143.904 135.52,143.884C135.323,143.53 133.289,138.803 133.289,138.803L135.818,140.924L131.237,131.992L139.548,145.114L136.734,142.801L138.859,148.493L134.174,143.83C134.174,143.83 135.223,148.195 135.294,148.708C135.298,148.733 135.291,148.745 135.277,148.745C134.991,148.745 131.489,144.286 131.489,144.286L134.51,154.161L126.618,140.51L129.526,149.7L127.276,146.921L128.185,150.266L125.762,147.534L129.101,154.902Z" style="fill:rgb(188,123,69);fill-rule:nonzero;"/>
        <path d="M148.717,138.968L146.431,135.264L146.914,137.456C146.914,137.456 144.621,134.086 142.769,131.589C140.917,129.091 137.831,127.464 137.831,127.464C137.831,127.464 141.141,128.699 142.264,129.653C143.386,130.607 144.957,132.795 144.957,132.795L144.508,131.161L148.605,134.153L146.914,131.589C146.914,131.589 149.188,133.367 149.378,133.367C149.386,133.367 149.391,133.363 149.391,133.356C149.391,133.188 147.034,129.848 145.378,128.431C143.723,127.015 142.6,126.398 142.6,126.398C142.6,126.398 145.785,127.801 146.914,128.979C148.044,130.158 149.054,130.831 149.054,130.831L147.707,128.867L149.615,129.765C149.615,129.765 146.883,126.168 143.635,124.634C145.197,125.303 148.085,126.769 149.896,129.091C152.477,132.402 152.926,134.984 152.926,134.984L149.503,130.214L151.243,133.918L149.391,131.617L151.732,136.555L149.278,134.423L150.064,136.331L145.911,132.739L148.717,138.968ZM143.635,124.634C142.972,124.35 142.547,124.21 142.544,124.209C142.912,124.321 143.276,124.465 143.635,124.634Z" style="fill:rgb(188,123,69);fill-rule:nonzero;"/>
    </g>
    <g transform="matrix(0.760212,0,0,0.760212,-30.411,171.571)">
        <path d="M148.514,11.375C145.628,16.35 144.224,25.101 144.224,25.101L156.352,54.584L168.479,25.101C168.479,25.101 167.076,16.35 164.189,11.375C163.785,10.677 163.338,10.076 162.872,9.542C162.731,9.571 162.636,9.591 162.636,9.591C162.636,9.591 163.765,10.696 164.189,12.552C164.614,14.408 162.727,16.816 161.631,19.821C160.535,22.827 158.788,28.349 155.721,27.862C152.654,27.375 150.504,17.872 150.068,14.095C149.634,10.333 153.99,6.552 154.025,6.522C152.35,7.22 150.115,8.614 148.514,11.375Z" style="fill:rgb(172,206,127);fill-rule:nonzero;"/>
        <path d="M150.068,14.095C150.504,17.872 152.654,27.375 155.721,27.862C158.788,28.349 160.535,22.827 161.631,19.821C162.727,16.816 164.614,14.408 164.189,12.552C163.765,10.696 162.636,9.591 162.636,9.591C162.636,9.591 162.731,9.571 162.872,9.542C160.011,6.265 156.352,5.852 156.352,5.852C156.352,5.852 155.368,5.963 154.025,6.522C153.99,6.552 149.634,10.333 150.068,14.095Z" style="fill:rgb(172,206,127);fill-rule:nonzero;"/>
        <path d="M156.352,54.584L156.352,52.553C156.352,52.553 156.197,45.081 153.416,34.928C151.598,28.292 148.064,21.793 145.834,18.089C146.51,15.768 147.402,13.291 148.514,11.375C150.115,8.614 152.35,7.22 154.025,6.522C153.992,6.551 150.041,9.98 150.038,13.556C150.037,13.735 150.047,13.915 150.068,14.095C150.504,17.872 152.654,27.375 155.721,27.862C155.849,27.883 155.975,27.892 156.098,27.892L156.103,27.892C158.889,27.888 160.527,22.866 161.58,19.963C161.581,19.959 161.582,19.956 161.583,19.953C161.586,19.944 161.589,19.936 161.592,19.928C161.603,19.898 161.614,19.869 161.624,19.839C161.625,19.838 161.625,19.837 161.626,19.836C161.627,19.831 161.629,19.826 161.631,19.821C162.62,17.11 164.253,14.884 164.251,13.112C164.25,12.92 164.231,12.733 164.189,12.552C163.765,10.696 162.636,9.591 162.636,9.591C162.636,9.591 162.731,9.571 162.872,9.542C163.338,10.076 163.785,10.677 164.189,11.375C165.301,13.291 166.193,15.768 166.869,18.089C164.64,21.793 161.105,28.291 159.287,34.928C156.506,45.081 156.352,52.553 156.352,52.553L156.352,54.584Z" style="fill:rgb(159,188,109);fill-rule:nonzero;"/>
        <path d="M156.099,27.892L156.098,27.892L156.099,27.892ZM156.103,27.892C158.889,27.887 160.527,22.866 161.58,19.963C160.527,22.866 158.889,27.888 156.103,27.892ZM161.583,19.953C161.586,19.944 161.589,19.936 161.592,19.928C161.589,19.936 161.586,19.944 161.583,19.953ZM161.624,19.839C161.625,19.838 161.625,19.837 161.626,19.836C161.625,19.837 161.625,19.838 161.624,19.839ZM150.038,13.556C150.041,9.98 153.992,6.551 154.025,6.522C153.992,6.551 150.041,9.98 150.038,13.556ZM164.251,13.112C164.25,12.92 164.231,12.733 164.189,12.552C163.765,10.696 162.636,9.591 162.636,9.591C162.636,9.591 163.765,10.696 164.189,12.552C164.231,12.733 164.25,12.92 164.251,13.112Z" style="fill:rgb(159,188,109);fill-rule:nonzero;"/>
        <path d="M145.851,16.725C145.851,16.725 146.749,14.315 147.07,14.429C147.391,14.542 149.94,18.82 150.944,21.825C151.949,24.83 151.923,25.723 152.464,26.563C153.004,27.402 154.034,30.299 154.807,34.82C155.579,39.341 155.721,44.445 155.721,44.445L145.851,16.725Z" style="fill:rgb(141,121,97);fill-rule:nonzero;"/>
        <path d="M143.838,14.948L144.765,14.948C144.765,14.948 149.284,21.974 152.296,29.73C155.309,37.487 156.298,48.407 156.298,51.454C156.298,54.502 150.068,49.954 150.068,49.954L143.838,14.948Z" style="fill:rgb(222,210,196);fill-rule:nonzero;"/>
        <path d="M143.838,14.948C143.838,14.948 150.635,24.776 153.416,34.928C156.197,45.081 156.352,52.553 156.352,52.553L156.352,63.193C156.352,63.193 145.537,61.893 141.907,47.599C138.276,33.304 143.838,14.948 143.838,14.948Z" style="fill:rgb(197,176,150);fill-rule:nonzero;"/>
        <path d="M166.852,16.725C166.852,16.725 165.954,14.315 165.633,14.429C165.312,14.542 162.763,18.82 161.759,21.825C160.755,24.83 160.781,25.723 160.24,26.563C159.699,27.402 158.669,30.299 157.897,34.82C157.124,39.341 156.982,44.445 156.982,44.445L166.852,16.725Z" style="fill:rgb(141,121,97);fill-rule:nonzero;"/>
        <path d="M168.866,14.948L167.939,14.948C167.939,14.948 163.42,21.974 160.407,29.73C157.395,37.487 156.405,48.407 156.405,51.454C156.405,54.502 162.636,49.954 162.636,49.954L168.866,14.948Z" style="fill:rgb(222,210,196);fill-rule:nonzero;"/>
        <path d="M168.866,14.948C168.866,14.948 162.068,24.776 159.287,34.928C156.506,45.081 156.352,52.553 156.352,52.553L156.352,63.193C156.352,63.193 167.166,61.893 170.797,47.599C174.428,33.304 168.866,14.948 168.866,14.948Z" style="fill:rgb(197,176,150);fill-rule:nonzero;"/>
        <path d="M156.202,62.152C152.862,62.152 150.524,60.041 148.961,58.888C146.415,57.01 142.544,51.05 141.773,44.228C141.001,37.406 141.326,35.375 141.326,35.375C141.326,35.375 141.67,49.415 150.786,55.369C152.309,56.363 153.897,56.799 155.484,56.799C155.773,56.799 156.063,56.784 156.352,56.756L156.352,62.15C156.301,62.151 156.252,62.152 156.202,62.152Z" style="fill:rgb(187,165,140);fill-rule:nonzero;"/>
        <path d="M156.352,62.15L156.352,56.756C163.967,56.016 171.342,45.759 171.581,39.761C171.581,39.761 171.377,52.594 163.743,58.888C160.866,61.26 158.419,62.111 156.352,62.15Z" style="fill:rgb(187,165,140);fill-rule:nonzero;"/>
    </g>
    <g transform="matrix(0.760212,0,0,0.760212,-0.314571,170.995)">
        <path d="M67.469,41.091C66.797,21.881 54.215,6.609 52.005,6.609C49.796,6.609 37.214,21.881 36.541,41.091C35.869,60.3 52.005,63.95 52.005,63.95C52.005,63.95 68.142,60.3 67.469,41.091Z" style="fill:rgb(169,123,84);fill-rule:nonzero;"/>
        <path d="M51.709,62.953C49.624,62.953 47.329,61.714 43.358,58.187C38.549,53.917 36.623,44.738 37.502,36.768C38.381,28.799 42.112,20.584 42.112,20.584C39.231,28.22 37.022,50.215 50.853,52.136C51.677,52.251 52.457,52.304 53.199,52.304C64.91,52.304 66.653,38.882 66.653,38.882C66.653,38.882 67.71,45.461 64.636,52.28C61.562,59.1 55.511,62.222 53.014,62.798C52.579,62.898 52.149,62.953 51.709,62.953Z" style="fill:rgb(158,112,75);fill-rule:nonzero;"/>
        <path d="M47.539,15.926C47.539,15.926 46.531,27.26 47.155,28.748C47.779,30.237 49.124,31.486 49.124,32.398C49.124,33.311 48.788,48.486 48.836,49.303C48.884,50.119 51.813,52.328 52.006,54.297C52.198,56.266 51.717,63.326 51.717,63.326L49.501,62.501C49.501,62.501 50.661,55.786 50.373,53.769C50.085,51.752 47.875,50.936 47.779,49.207C47.683,47.478 48.164,32.59 48.02,31.966C47.875,31.342 46.147,30.045 46.243,27.884C46.339,25.723 47.539,15.926 47.539,15.926Z" style="fill:rgb(151,103,67);fill-rule:nonzero;"/>
        <path d="M56.568,22.697C56.568,22.697 56.376,31.582 56.568,33.599C56.76,35.616 59.257,36.961 59.738,40.274C60.218,43.588 59.065,53.193 58.585,54.153C58.105,55.114 55.751,56.074 55.127,57.563C54.503,59.052 54.071,62.702 54.071,62.702L56.376,61.597C56.376,61.597 56.779,57.803 56.961,57.419C57.144,57.035 59.439,56.074 59.852,53.913C60.266,51.752 61.034,41.907 60.746,39.626C60.458,37.345 57.192,34.415 57.144,33.167C57.096,31.918 56.568,22.697 56.568,22.697Z" style="fill:rgb(151,103,67);fill-rule:nonzero;"/>
        <path d="M41.776,35.664C41.776,35.664 41.872,40.082 41.776,41.571C41.68,43.06 40.624,46.614 40.72,48.15C40.816,49.687 41.584,54.778 43.121,56.122C44.658,57.467 44.942,57.31 45.042,58.043C45.142,58.777 45.33,60.349 45.33,60.349L43.358,58.716C43.358,58.716 42.881,57.227 42.737,56.987C42.593,56.747 39.951,53.193 39.807,49.351C39.663,45.509 40.672,43.444 41.104,41.091C41.536,38.737 41.776,35.664 41.776,35.664Z" style="fill:rgb(151,103,67);fill-rule:nonzero;"/>
        <path d="M49.934,24.282C49.934,24.282 49.772,28.688 49.628,29.769C49.484,30.849 48.764,32.146 48.764,32.146L48.224,31.174C48.224,31.174 48.769,30.705 49.145,28.76C49.52,26.815 49.934,24.282 49.934,24.282Z" style="fill:rgb(151,103,67);fill-rule:nonzero;"/>
        <path d="M60.326,26.059C60.326,26.059 60.11,28.58 59.93,30.885C59.75,33.191 58.345,36.072 58.345,36.072L58.705,36.576C58.705,36.576 60.218,34.92 60.326,32.146C60.434,29.373 60.326,26.059 60.326,26.059Z" style="fill:rgb(151,103,67);fill-rule:nonzero;"/>
        <path d="M54.239,37.932C54.239,37.932 54.239,43.636 55.571,45.833C56.904,48.03 60.074,48.006 60.074,48.006L59.678,49.651C59.678,49.651 55.824,49.399 54.887,46.77C53.951,44.14 54.239,37.932 54.239,37.932Z" style="fill:rgb(151,103,67);fill-rule:nonzero;"/>
        <path d="M44.658,37.081C44.658,37.081 44.37,41.079 45.09,43.384C45.81,45.689 48.044,46.229 48.044,46.229L48.044,44.861C48.044,44.861 45.918,44.176 45.522,42.7C45.126,41.223 44.658,37.081 44.658,37.081Z" style="fill:rgb(151,103,67);fill-rule:nonzero;"/>
        <path d="M64.468,40.971C64.468,40.971 64.144,48.426 63.279,51.236C62.415,54.045 59.359,54.405 59.359,54.405L58.678,55.999C58.678,55.999 63.027,54.586 63.676,51.92C64.324,49.255 64.468,40.971 64.468,40.971Z" style="fill:rgb(151,103,67);fill-rule:nonzero;"/>
        <path d="M45.774,51.632C45.774,51.632 45.594,54.91 46.747,57.467C47.899,60.024 50.313,60.648 50.313,60.648L50.529,59.232C50.529,59.232 48.188,58.44 47.431,57.179C46.675,55.918 45.774,51.632 45.774,51.632Z" style="fill:rgb(151,103,67);fill-rule:nonzero;"/>
        <path d="M44.082,46.986C44.082,46.986 44.118,50.191 43.505,52.316C42.893,54.442 41.776,54.91 41.776,54.91L41.092,53.433C41.092,53.433 42.173,53.433 42.857,51.812C43.541,50.191 44.082,46.986 44.082,46.986Z" style="fill:rgb(151,103,67);fill-rule:nonzero;"/>
        <path d="M38.895,32.146C38.895,32.146 37.778,38.377 38.066,42.195C38.355,46.013 40.228,47.67 40.228,47.67L40.444,45.941C40.444,45.941 38.845,44.04 38.499,40.971C38.153,37.901 38.895,32.146 38.895,32.146Z" style="fill:rgb(151,103,67);fill-rule:nonzero;"/>
        <path d="M53.266,28.977C53.266,28.977 53.266,36.829 52.51,40.286C51.753,43.744 48.584,43.791 48.584,43.791L48.584,42.303C48.584,42.303 51.393,41.919 52.006,39.626C52.618,37.333 53.266,28.977 53.266,28.977Z" style="fill:rgb(151,103,67);fill-rule:nonzero;"/>
        <path d="M63.676,33.011C63.676,33.011 63.676,38.449 63.279,40.07C62.883,41.691 60.374,43.492 60.374,43.492L60.374,44.933C60.374,44.933 63.423,43.204 63.676,40.574C63.928,37.945 63.676,33.011 63.676,33.011Z" style="fill:rgb(151,103,67);fill-rule:nonzero;"/>
        <path d="M52.918,44.308C52.918,44.308 52.51,48.679 52.774,50.239C53.038,51.8 53.614,52.352 53.638,53.745C53.662,55.138 51.669,56.507 51.669,56.507L51.669,57.587C51.669,57.587 54.299,56.194 54.197,53.985C54.095,51.776 52.903,50.6 52.935,49.183C52.966,47.766 52.918,44.308 52.918,44.308Z" style="fill:rgb(151,103,67);fill-rule:nonzero;"/>
    </g>
</svg>
