<?xml version="1.0" encoding="UTF-8" standalone="no"?>
<!DOCTYPE svg PUBLIC "-//W3C//DTD SVG 1.1//EN" "http://www.w3.org/Graphics/SVG/1.1/DTD/svg11.dtd">
<svg width="100%" height="100%" viewBox="0 0 215 239" version="1.1" xmlns="http://www.w3.org/2000/svg" xmlns:xlink="http://www.w3.org/1999/xlink" xml:space="preserve" xmlns:serif="http://www.serif.com/" style="fill-rule:evenodd;clip-rule:evenodd;stroke-linejoin:round;stroke-miterlimit:1.41421;">
    <g transform="matrix(4.16667,0,0,4.16667,-66.2133,-27.5375)">
        <path d="M45.142,58.777C45.142,58.777 39.362,61.819 32.821,60.146C26.279,58.472 18.826,43.565 16.544,30.939C14.262,18.313 18.217,10.859 24.454,9.946C30.691,9.034 46.968,26.071 49.402,39.305C51.835,52.54 45.142,58.777 45.142,58.777Z" style="fill:rgb(192,146,126);fill-rule:nonzero;"/>
    </g>
    <g transform="matrix(4.16667,0,0,4.16667,-66.2133,-27.5375)">
        <path d="M36.851,59.938C35.686,59.938 34.5,59.841 33.42,59.58C29.242,58.572 24.295,50.936 22.711,47.766C21.439,45.223 19.333,39.279 18.55,37.029C19.43,39.327 22.315,45.324 28.522,45.557C28.577,45.559 28.634,45.56 28.689,45.56C36.226,45.562 37.55,26.267 36.521,21.833C35.485,17.367 34.621,15.926 34.621,15.926L40.715,22.744C38.495,28.04 36.779,34.321 36.541,41.091C36.224,50.156 39.65,55.756 43.357,59.143C43.309,59.155 40.166,59.938 36.851,59.938ZM18.55,37.029C18.34,36.481 18.244,36.144 18.244,36.144C18.244,36.144 18.357,36.474 18.55,37.029Z" style="fill:rgb(184,135,115);fill-rule:nonzero;"/>
    </g>
    <g transform="matrix(4.16667,0,0,4.16667,-66.2133,-27.5375)">
        <path d="M67.469,41.091C66.797,21.881 54.215,6.609 52.005,6.609C49.796,6.609 37.214,21.881 36.541,41.091C35.869,60.3 52.005,63.95 52.005,63.95C52.005,63.95 68.142,60.3 67.469,41.091Z" style="fill:rgb(169,123,84);fill-rule:nonzero;"/>
    </g>
    <g transform="matrix(4.16667,0,0,4.16667,-66.2133,-27.5375)">
        <path d="M51.709,62.953C49.624,62.953 47.329,61.714 43.358,58.187C38.549,53.917 36.623,44.738 37.502,36.768C38.381,28.799 42.112,20.584 42.112,20.584C39.231,28.22 37.022,50.215 50.853,52.136C51.677,52.251 52.457,52.304 53.199,52.304C64.91,52.304 66.653,38.882 66.653,38.882C66.653,38.882 67.71,45.461 64.636,52.28C61.562,59.1 55.511,62.222 53.014,62.798C52.579,62.898 52.149,62.953 51.709,62.953Z" style="fill:rgb(158,112,75);fill-rule:nonzero;"/>
    </g>
    <g transform="matrix(4.16667,0,0,4.16667,-66.2133,-27.5375)">
        <path d="M47.539,15.926C47.539,15.926 46.531,27.26 47.155,28.748C47.779,30.237 49.124,31.486 49.124,32.398C49.124,33.311 48.788,48.486 48.836,49.303C48.884,50.119 51.813,52.328 52.006,54.297C52.198,56.266 51.717,63.326 51.717,63.326L49.501,62.501C49.501,62.501 50.661,55.786 50.373,53.769C50.085,51.752 47.875,50.936 47.779,49.207C47.683,47.478 48.164,32.59 48.02,31.966C47.875,31.342 46.147,30.045 46.243,27.884C46.339,25.723 47.539,15.926 47.539,15.926Z" style="fill:rgb(151,103,67);fill-rule:nonzero;"/>
    </g>
    <g transform="matrix(4.16667,0,0,4.16667,-66.2133,-27.5375)">
        <path d="M56.568,22.697C56.568,22.697 56.376,31.582 56.568,33.599C56.76,35.616 59.257,36.961 59.738,40.274C60.218,43.588 59.065,53.193 58.585,54.153C58.105,55.114 55.751,56.074 55.127,57.563C54.503,59.052 54.071,62.702 54.071,62.702L56.376,61.597C56.376,61.597 56.779,57.803 56.961,57.419C57.144,57.035 59.439,56.074 59.852,53.913C60.266,51.752 61.034,41.907 60.746,39.626C60.458,37.345 57.192,34.415 57.144,33.167C57.096,31.918 56.568,22.697 56.568,22.697Z" style="fill:rgb(151,103,67);fill-rule:nonzero;"/>
    </g>
    <g transform="matrix(4.16667,0,0,4.16667,-66.2133,-27.5375)">
        <path d="M41.776,35.664C41.776,35.664 41.872,40.082 41.776,41.571C41.68,43.06 40.624,46.614 40.72,48.15C40.816,49.687 41.584,54.778 43.121,56.122C44.658,57.467 44.942,57.31 45.042,58.043C45.142,58.777 45.33,60.349 45.33,60.349L43.358,58.716C43.358,58.716 42.881,57.227 42.737,56.987C42.593,56.747 39.951,53.193 39.807,49.351C39.663,45.509 40.672,43.444 41.104,41.091C41.536,38.737 41.776,35.664 41.776,35.664Z" style="fill:rgb(151,103,67);fill-rule:nonzero;"/>
    </g>
    <g transform="matrix(4.16667,0,0,4.16667,-66.2133,-27.5375)">
        <path d="M49.934,24.282C49.934,24.282 49.772,28.688 49.628,29.769C49.484,30.849 48.764,32.146 48.764,32.146L48.224,31.174C48.224,31.174 48.769,30.705 49.145,28.76C49.52,26.815 49.934,24.282 49.934,24.282Z" style="fill:rgb(151,103,67);fill-rule:nonzero;"/>
    </g>
    <g transform="matrix(4.16667,0,0,4.16667,-66.2133,-27.5375)">
        <path d="M60.326,26.059C60.326,26.059 60.11,28.58 59.93,30.885C59.75,33.191 58.345,36.072 58.345,36.072L58.705,36.576C58.705,36.576 60.218,34.92 60.326,32.146C60.434,29.373 60.326,26.059 60.326,26.059Z" style="fill:rgb(151,103,67);fill-rule:nonzero;"/>
    </g>
    <g transform="matrix(4.16667,0,0,4.16667,-66.2133,-27.5375)">
        <path d="M54.239,37.932C54.239,37.932 54.239,43.636 55.571,45.833C56.904,48.03 60.074,48.006 60.074,48.006L59.678,49.651C59.678,49.651 55.824,49.399 54.887,46.77C53.951,44.14 54.239,37.932 54.239,37.932Z" style="fill:rgb(151,103,67);fill-rule:nonzero;"/>
    </g>
    <g transform="matrix(4.16667,0,0,4.16667,-66.2133,-27.5375)">
        <path d="M44.658,37.081C44.658,37.081 44.37,41.079 45.09,43.384C45.81,45.689 48.044,46.229 48.044,46.229L48.044,44.861C48.044,44.861 45.918,44.176 45.522,42.7C45.126,41.223 44.658,37.081 44.658,37.081Z" style="fill:rgb(151,103,67);fill-rule:nonzero;"/>
    </g>
    <g transform="matrix(4.16667,0,0,4.16667,-66.2133,-27.5375)">
        <path d="M64.468,40.971C64.468,40.971 64.144,48.426 63.279,51.236C62.415,54.045 59.359,54.405 59.359,54.405L58.678,55.999C58.678,55.999 63.027,54.586 63.676,51.92C64.324,49.255 64.468,40.971 64.468,40.971Z" style="fill:rgb(151,103,67);fill-rule:nonzero;"/>
    </g>
    <g transform="matrix(4.16667,0,0,4.16667,-66.2133,-27.5375)">
        <path d="M45.774,51.632C45.774,51.632 45.594,54.91 46.747,57.467C47.899,60.024 50.313,60.648 50.313,60.648L50.529,59.232C50.529,59.232 48.188,58.44 47.431,57.179C46.675,55.918 45.774,51.632 45.774,51.632Z" style="fill:rgb(151,103,67);fill-rule:nonzero;"/>
    </g>
    <g transform="matrix(4.16667,0,0,4.16667,-66.2133,-27.5375)">
        <path d="M44.082,46.986C44.082,46.986 44.118,50.191 43.505,52.316C42.893,54.442 41.776,54.91 41.776,54.91L41.092,53.433C41.092,53.433 42.173,53.433 42.857,51.812C43.541,50.191 44.082,46.986 44.082,46.986Z" style="fill:rgb(151,103,67);fill-rule:nonzero;"/>
    </g>
    <g transform="matrix(4.16667,0,0,4.16667,-66.2133,-27.5375)">
        <path d="M38.895,32.146C38.895,32.146 37.778,38.377 38.066,42.195C38.355,46.013 40.228,47.67 40.228,47.67L40.444,45.941C40.444,45.941 38.845,44.04 38.499,40.971C38.153,37.901 38.895,32.146 38.895,32.146Z" style="fill:rgb(151,103,67);fill-rule:nonzero;"/>
    </g>
    <g transform="matrix(4.16667,0,0,4.16667,-66.2133,-27.5375)">
        <path d="M53.266,28.977C53.266,28.977 53.266,36.829 52.51,40.286C51.753,43.744 48.584,43.791 48.584,43.791L48.584,42.303C48.584,42.303 51.393,41.919 52.006,39.626C52.618,37.333 53.266,28.977 53.266,28.977Z" style="fill:rgb(151,103,67);fill-rule:nonzero;"/>
    </g>
    <g transform="matrix(4.16667,0,0,4.16667,-66.2133,-27.5375)">
        <path d="M63.676,33.011C63.676,33.011 63.676,38.449 63.279,40.07C62.883,41.691 60.374,43.492 60.374,43.492L60.374,44.933C60.374,44.933 63.423,43.204 63.676,40.574C63.928,37.945 63.676,33.011 63.676,33.011Z" style="fill:rgb(151,103,67);fill-rule:nonzero;"/>
    </g>
    <g transform="matrix(4.16667,0,0,4.16667,-66.2133,-27.5375)">
        <path d="M52.918,44.308C52.918,44.308 52.51,48.679 52.774,50.239C53.038,51.8 53.614,52.352 53.638,53.745C53.662,55.138 51.669,56.507 51.669,56.507L51.669,57.587C51.669,57.587 54.299,56.194 54.197,53.985C54.095,51.776 52.903,50.6 52.935,49.183C52.966,47.766 52.918,44.308 52.918,44.308Z" style="fill:rgb(151,103,67);fill-rule:nonzero;"/>
    </g>
    <g transform="matrix(4.16667,0,0,4.16667,-66.2133,-27.5375)">
        <path d="M22.567,19.192C22.038,18.567 22.038,18.759 21.75,17.559C21.462,16.358 21.078,15.782 20.934,15.686C20.79,15.59 20.357,15.302 20.213,16.838C20.069,18.375 20.165,19.047 21.03,19.768C21.894,20.488 21.606,19.96 21.894,21.112C22.182,22.265 22.422,23.178 23.047,22.361C23.671,21.545 23.959,21.257 23.719,20.584C23.479,19.912 22.567,19.192 22.567,19.192Z" style="fill:rgb(163,117,102);fill-rule:nonzero;"/>
    </g>
    <g transform="matrix(4.16667,0,0,4.16667,-66.2133,-27.5375)">
        <path d="M24.728,13.957C24.728,13.381 25.208,12.228 24.488,12.084C23.767,11.94 23.767,11.075 23.239,12.036C22.711,12.996 22.807,12.948 23.239,13.765C23.671,14.581 23.275,14.821 23.881,15.061C24.488,15.302 24.439,15.35 24.68,15.013C24.92,14.677 24.728,13.957 24.728,13.957Z" style="fill:rgb(163,117,102);fill-rule:nonzero;"/>
    </g>
    <g transform="matrix(4.16667,0,0,4.16667,-66.2133,-27.5375)">
        <path d="M31.163,15.6C30.827,15.061 30.539,13.813 29.914,14.149C29.29,14.485 27.897,14.506 29.002,15.6C30.106,16.694 30.923,16.838 31.163,17.751C31.403,18.663 31.067,18.807 31.691,19.336C32.316,19.864 33.228,19.864 33.228,19.864C33.228,19.864 33.948,18.663 33.228,17.655C32.508,16.646 32.363,16.406 31.931,16.118C31.499,15.83 31.163,15.6 31.163,15.6Z" style="fill:rgb(163,117,102);fill-rule:nonzero;"/>
    </g>
    <g transform="matrix(4.16667,0,0,4.16667,-66.2133,-27.5375)">
        <path d="M31.691,26.491C31.451,26.395 31.015,26.587 30.801,25.579C30.587,24.57 30.971,24.618 30.395,23.994C29.818,23.37 29.386,22.553 28.81,23.081C28.233,23.61 27.504,24.426 28.589,25.339C29.674,26.251 29.999,25.723 29.861,26.779C29.722,27.836 29.242,28.748 30.539,28.652C31.835,28.556 32.267,28.214 32.267,28.214L31.691,26.491Z" style="fill:rgb(163,117,102);fill-rule:nonzero;"/>
    </g>
    <g transform="matrix(4.16667,0,0,4.16667,-66.2133,-27.5375)">
        <path d="M20.55,27.356L19.637,28.214L20.55,31.534C20.55,31.534 19.589,32.422 20.55,33.011C21.51,33.599 21.059,33.791 21.981,33.503C22.903,33.215 23.335,33.383 23.191,32.146C23.047,30.909 22.757,30.958 22.878,30.141C22.999,29.325 23.431,29.531 22.663,28.659C21.894,27.788 20.55,27.356 20.55,27.356Z" style="fill:rgb(163,117,102);fill-rule:nonzero;"/>
    </g>
    <g transform="matrix(4.16667,0,0,4.16667,-66.2133,-27.5375)">
        <path d="M31.691,38.449C31.163,37.729 31.887,37.488 31.069,36.384C30.25,35.28 30.779,35.088 29.578,34.992C28.378,34.896 27.25,35.375 28.03,36.384C28.81,37.393 29.242,37.201 29.242,38.449C29.242,39.698 27.34,40.61 29.732,41.235C32.123,41.859 32.742,42.195 32.913,41.475C33.084,40.755 34.429,41.079 33.228,39.908C32.027,38.737 31.691,38.449 31.691,38.449Z" style="fill:rgb(163,117,102);fill-rule:nonzero;"/>
    </g>
    <g transform="matrix(4.16667,0,0,4.16667,-66.2133,-27.5375)">
        <path d="M38.223,28.214C38.415,27.5 39.279,26.761 38.607,25.785C37.934,24.81 37.125,24.234 36.521,24.282C35.917,24.33 36.23,24.237 36.521,25.483C36.813,26.729 37.044,26.443 36.793,27.356C36.542,28.268 36.83,28.82 37.07,28.977C37.31,29.133 38.223,28.214 38.223,28.214Z" style="fill:rgb(163,117,102);fill-rule:nonzero;"/>
    </g>
    <g transform="matrix(4.16667,0,0,4.16667,-66.2133,-27.5375)">
        <path d="M29.386,48.823C29.53,48.39 29.29,47.862 29.05,47.286C28.81,46.71 28.522,45.557 28.522,45.557L26.889,44.02C26.889,44.02 25.88,43.732 25.88,44.548C25.88,45.365 26.505,45.653 26.841,46.517C27.177,47.382 26.889,46.806 27.273,48.006C27.657,49.207 27.609,49.687 28.57,49.975C29.53,50.263 29.722,49.903 29.818,49.651L29.914,49.399L29.386,48.823Z" style="fill:rgb(163,117,102);fill-rule:nonzero;"/>
    </g>
    <g transform="matrix(4.16667,0,0,4.16667,-66.2133,-27.5375)">
        <path d="M37.296,53.625C36.494,52.569 36.302,51.608 35.773,51.224C35.245,50.84 34.381,50.263 34.188,51.224C33.996,52.184 34.044,52.521 34.188,53.433C34.333,54.345 33.66,54.105 34.188,55.306C34.717,56.507 34.849,57.467 36.176,57.275C37.502,57.083 37.863,57.707 38.019,56.747C38.175,55.786 38.415,56.122 38.223,55.258C38.03,54.393 37.296,53.625 37.296,53.625Z" style="fill:rgb(163,117,102);fill-rule:nonzero;"/>
    </g>
</svg>
