<?xml version="1.0" encoding="UTF-8" standalone="no"?>
<!DOCTYPE svg PUBLIC "-//W3C//DTD SVG 1.1//EN" "http://www.w3.org/Graphics/SVG/1.1/DTD/svg11.dtd">
<svg width="100%" height="100%" viewBox="0 0 209 239" version="1.1" xmlns="http://www.w3.org/2000/svg" xmlns:xlink="http://www.w3.org/1999/xlink" xml:space="preserve" xmlns:serif="http://www.serif.com/" style="fill-rule:evenodd;clip-rule:evenodd;stroke-linejoin:round;stroke-miterlimit:1.41421;">
    <g transform="matrix(4.16667,0,0,4.16667,-970.909,-24.3874)">
        <path d="M260.049,27.535C260.049,27.535 259.208,24.38 252.899,18.492C246.591,12.604 236.497,9.134 235.55,9.449C234.604,9.765 233.973,10.711 233.973,10.711C233.973,10.711 231.239,28.035 235.024,39.403C238.81,50.772 243.638,58.055 246.534,58.725C249.43,59.394 257.315,60.971 260.049,59.183C262.783,57.396 260.049,27.535 260.049,27.535Z" style="fill:rgb(119,105,95);fill-rule:nonzero;"/>
    </g>
    <g transform="matrix(4.16667,0,0,4.16667,-970.909,-24.3874)">
        <path d="M249.061,16.126C249.061,16.126 243.186,12.577 240.663,11.513C238.139,10.448 236.207,9.936 235.852,10.488C235.498,11.04 244.067,31.663 248.273,41.533C252.479,51.403 257.67,58.725 257.67,58.725L258.471,55.609C258.471,55.609 253.478,49.826 248.667,39.403C243.857,28.98 237.311,12.144 237.193,11.434C237.075,10.724 246.656,14.588 249.061,16.126Z" style="fill:rgb(97,84,78);fill-rule:nonzero;"/>
    </g>
    <g transform="matrix(4.16667,0,0,4.16667,-970.909,-24.3874)">
        <path d="M238.928,15.298C238.928,15.298 244.133,28.389 248.194,37.221C252.255,46.053 257.854,54.058 257.854,54.058L258.13,52.007C258.13,52.007 253.517,46.724 248.707,36.709C243.896,26.693 238.928,15.298 238.928,15.298Z" style="fill:rgb(97,84,78);fill-rule:nonzero;"/>
    </g>
    <g transform="matrix(4.16667,0,0,4.16667,-970.909,-24.3874)">
        <path d="M233.29,20.03C233.29,20.03 233.526,12.301 234.196,11.276C234.867,10.251 235.458,10.803 236.207,13.76C236.956,16.718 244.422,35.506 248.529,44.243C252.636,52.98 258.13,60.008 258.13,60.008L256.265,60.003C256.265,60.003 250.323,51.823 246.222,42.728C242.122,33.633 235.918,16.074 235.182,13.708C234.446,11.342 234.288,13.077 234.131,14.759C233.973,16.442 233.29,20.03 233.29,20.03Z" style="fill:rgb(79,68,63);fill-rule:nonzero;"/>
    </g>
    <g transform="matrix(4.16667,0,0,4.16667,-970.909,-24.3874)">
        <path d="M238.928,27.166C238.928,27.166 241.962,37.208 247.141,46.987C252.321,56.765 255.318,60.008 255.318,60.008L253.476,59.886C253.476,59.886 249.797,54.853 244.803,44.243C239.809,33.633 238.928,27.166 238.928,27.166Z" style="fill:rgb(79,68,63);fill-rule:nonzero;"/>
    </g>
    <g transform="matrix(4.16667,0,0,4.16667,-970.909,-24.3874)">
        <path d="M258.087,59.648C258.008,59.643 257.927,59.637 257.842,59.631C256.739,58.168 252.665,52.595 249.24,45.712C249.432,45.608 249.535,45.541 249.535,45.541C249.535,45.541 249.726,45.531 250.051,45.455C253.695,53.04 257.433,58.387 257.66,58.709C257.78,59.03 257.92,59.344 258.087,59.648ZM255.905,59.496C255.571,59.473 255.212,59.448 254.826,59.421C253.78,58.111 251.097,54.455 247.141,46.987C247.073,46.857 247.004,46.727 246.936,46.597C247.303,46.505 247.639,46.399 247.938,46.291C251.144,52.572 254.769,57.879 255.905,59.496ZM257.066,53.815C255.768,52.065 253.703,49.062 251.448,44.933C251.624,44.844 251.808,44.741 251.999,44.623C254.113,48.379 256.094,51.439 257.122,52.978C257.116,53.052 257.109,53.123 257.105,53.19C257.091,53.39 257.077,53.599 257.066,53.815ZM257.318,51.004C256.374,49.79 254.688,47.485 252.691,44.142C254.027,43.109 255.526,41.317 256.631,38.207C259.155,31.109 255.318,20.888 255.318,20.888L258.13,24.413C258.118,26.753 258.198,29.168 258.367,31.504C258.827,37.884 257.806,46.458 257.318,51.004Z" style="fill:rgb(98,86,77);fill-rule:nonzero;"/>
    </g>
    <g transform="matrix(4.16667,0,0,4.16667,-970.909,-24.3874)">
        <path d="M257.66,58.709C257.433,58.387 253.695,53.04 250.051,45.455C250.391,45.375 250.878,45.222 251.448,44.933C253.703,49.062 255.768,52.065 257.066,53.815C257.03,54.589 257.03,55.461 257.126,56.353C257.211,57.139 257.374,57.942 257.66,58.709Z" style="fill:rgb(79,68,62);fill-rule:nonzero;"/>
    </g>
    <g transform="matrix(4.16667,0,0,4.16667,-970.909,-24.3874)">
        <path d="M257.122,52.978C256.094,51.439 254.113,48.379 251.999,44.623C252.222,44.485 252.454,44.325 252.691,44.142C254.688,47.485 256.374,49.79 257.318,51.004C257.233,51.795 257.164,52.464 257.122,52.978Z" style="fill:rgb(79,68,62);fill-rule:nonzero;"/>
    </g>
    <g transform="matrix(4.16667,0,0,4.16667,-970.909,-24.3874)">
        <path d="M257.842,59.631C257.312,59.594 256.673,59.55 255.905,59.496C254.769,57.879 251.144,52.572 247.938,46.291C248.524,46.079 248.97,45.859 249.24,45.712C252.665,52.595 256.739,58.168 257.842,59.631Z" style="fill:rgb(65,54,50);fill-rule:nonzero;"/>
    </g>
    <g transform="matrix(4.16667,0,0,4.16667,-970.909,-24.3874)">
        <path d="M253.068,59.299C245.665,58.783 244.645,57.186 241.964,53.558C239.427,50.125 236.208,42.614 235.871,41.819C236.079,42.288 237.449,45.044 241.491,46.408C242.555,46.767 243.572,46.904 244.503,46.904C245.041,46.904 245.551,46.858 246.025,46.784C249.45,53.754 252.092,57.859 253.067,59.299M235.871,41.819C235.851,41.774 235.842,41.75 235.842,41.75C235.842,41.75 235.852,41.774 235.871,41.819Z" style="fill:rgb(98,86,77);fill-rule:nonzero;"/>
    </g>
    <g transform="matrix(4.16667,0,0,4.16667,-970.909,-24.3874)">
        <path d="M254.826,59.421C254.292,59.384 253.708,59.343 253.068,59.299C252.092,57.859 249.45,53.754 246.025,46.784C246.346,46.733 246.651,46.669 246.936,46.597C247.004,46.727 247.073,46.857 247.141,46.987C251.097,54.455 253.78,58.111 254.826,59.421Z" style="fill:rgb(65,54,50);fill-rule:nonzero;"/>
    </g>
    <g transform="matrix(4.16667,0,0,4.16667,-970.909,-24.3874)">
        <path d="M281.262,21.694C281.078,21.237 280.522,20.028 279.58,19.438C278.408,18.704 278.239,18.768 276.899,17.585C275.558,16.402 275.677,15.653 274.099,14.667C272.522,13.681 271.221,13.918 269.683,12.735C268.145,11.552 268.5,10.093 268.855,8.595C269.198,7.148 268.319,6.455 268.258,6.409C265.262,5.44 263.572,6.032 263.572,6.032C263.572,6.032 261.048,7.609 259.629,11.473C258.765,13.824 258.282,17.901 258.161,22.453C258.164,22.729 258.23,24.297 259.273,24.801C260.417,25.353 262.665,26.575 262.98,28.428C263.296,30.281 262.744,30.991 263.217,31.74C263.69,32.49 265.267,35.25 264.833,36.275C264.4,37.3 262.349,37.458 262.625,39.547C262.901,41.637 264.163,44.634 263.099,47.354C262.034,50.075 261.165,50.391 261.009,51.652C260.851,52.914 259.471,55.004 258.997,55.438C258.528,55.867 257.127,56.133 257.126,56.353C257.44,59.259 258.816,62.39 263.572,63.126C270.196,64.152 281.394,53.427 282.892,38.365C283.522,32.028 282.761,26.387 281.262,21.694Z" style="fill:rgb(238,208,163);fill-rule:nonzero;"/>
    </g>
    <g transform="matrix(4.16667,0,0,4.16667,-970.909,-24.3874)">
        <path d="M258.997,55.438C259.471,55.004 260.851,52.914 261.009,51.652C261.165,50.391 262.034,50.075 263.099,47.354C264.163,44.634 262.901,41.637 262.625,39.547C262.349,37.458 264.4,37.3 264.833,36.275C265.267,35.25 263.69,32.49 263.217,31.74C262.744,30.991 263.296,30.281 262.98,28.428C262.665,26.575 260.417,25.353 259.273,24.801C258.23,24.297 258.164,22.729 258.161,22.453C258.082,25.383 258.151,28.508 258.367,31.504C258.919,39.153 257.342,49.957 257.105,53.19C257.038,54.103 257.002,55.211 257.126,56.353C257.127,56.133 258.528,55.867 258.997,55.438Z" style="fill:rgb(139,108,90);fill-rule:nonzero;"/>
    </g>
    <g transform="matrix(4.16667,0,0,4.16667,-970.909,-24.3874)">
        <path d="M268.855,8.595C268.5,10.093 268.145,11.552 269.683,12.735C271.221,13.918 272.522,13.681 274.099,14.667C275.677,15.653 275.558,16.402 276.899,17.585C278.239,18.768 278.408,18.704 279.58,19.438C280.522,20.028 281.078,21.237 281.262,21.694C279.198,15.233 275.726,10.578 272.483,8.477C270.876,7.436 269.464,6.799 268.258,6.409C268.319,6.455 269.198,7.148 268.855,8.595Z" style="fill:rgb(139,108,90);fill-rule:nonzero;"/>
    </g>
    <g transform="matrix(4.16667,0,0,4.16667,-970.909,-24.3874)">
        <path d="M264.289,62.686C263.98,62.686 263.672,62.674 263.361,62.653C260.157,62.437 257.879,59.58 257.441,56.141C257.881,55.96 258.669,55.739 258.997,55.438C259.471,55.004 260.851,52.914 261.009,51.652C261.151,50.514 261.871,50.146 262.793,48.086C264.096,49.74 266.173,50.907 269.512,51.087C269.657,51.095 269.802,51.099 269.945,51.099C278.419,51.1 282.762,37.488 282.813,32.266C282.813,32.266 283.129,45.146 277.03,53.453C271.418,61.097 267.854,62.686 264.289,62.686Z" style="fill:rgb(231,194,147);fill-rule:nonzero;"/>
    </g>
    <g transform="matrix(4.16667,0,0,4.16667,-970.909,-24.3874)">
        <path d="M257.441,56.141C257.346,55.405 257.337,54.643 257.42,53.874C257.894,49.51 258.682,41.256 258.945,36.998C259.208,32.739 258.525,25.8 258.525,25.8C258.525,25.8 260.259,33.265 260.47,38.312C260.6,41.434 260.678,45.402 262.793,48.086C261.871,50.146 261.151,50.514 261.009,51.652C260.851,52.914 259.471,55.004 258.997,55.438C258.669,55.739 257.881,55.96 257.441,56.141Z" style="fill:rgb(135,102,81);fill-rule:nonzero;"/>
    </g>
    <g transform="matrix(4.16667,0,0,4.16667,-970.909,-24.3874)">
        <path d="M276.777,39.966C275.058,39.966 274.104,34.847 274.297,30.873C274.533,25.984 271.682,16.442 268.258,13.366C264.92,10.368 263.542,6.972 266.561,6.972C266.64,6.972 266.721,6.974 266.805,6.978C266.805,6.978 267.661,7.306 268.928,8.122C268.918,8.27 268.895,8.427 268.855,8.595C268.701,9.245 268.547,9.887 268.548,10.503C268.548,11.307 268.812,12.065 269.683,12.735C271.221,13.918 272.522,13.681 274.099,14.667C275.677,15.653 275.558,16.402 276.899,17.585C280.605,25.747 280.605,35.762 278.082,39.074C277.609,39.694 277.173,39.966 276.777,39.966Z" style="fill:rgb(240,213,171);fill-rule:nonzero;"/>
    </g>
    <g transform="matrix(4.16667,0,0,4.16667,-970.909,-24.3874)">
        <path d="M276.899,17.585C275.558,16.402 275.677,15.653 274.099,14.667C272.522,13.681 271.221,13.918 269.683,12.735C268.812,12.065 268.548,11.307 268.548,10.503C268.547,9.887 268.701,9.245 268.855,8.595C268.895,8.427 268.918,8.27 268.928,8.122C271.123,9.535 274.549,12.411 276.899,17.585Z" style="fill:rgb(151,122,106);fill-rule:nonzero;"/>
    </g>
</svg>
