<?xml version="1.0" encoding="UTF-8" standalone="no"?>
<!DOCTYPE svg PUBLIC "-//W3C//DTD SVG 1.1//EN" "http://www.w3.org/Graphics/SVG/1.1/DTD/svg11.dtd">
<svg width="100%" height="100%" viewBox="0 0 235 264" version="1.1" xmlns="http://www.w3.org/2000/svg" xmlns:xlink="http://www.w3.org/1999/xlink" xml:space="preserve" xmlns:serif="http://www.serif.com/" style="fill-rule:evenodd;clip-rule:evenodd;stroke-linejoin:round;stroke-miterlimit:1.41421;">
    <g transform="matrix(4.16667,0,0,4.16667,-1418.28,-0.542786)">
        <path d="M373.313,44.856C368.297,44.226 366.422,49.965 370.333,55.151C374.245,60.338 382.593,57.341 381.408,53.91C380.224,50.478 378.429,52.159 376.293,49.98C374.157,47.801 374.803,47.205 377.634,47.056C378.011,47.036 378.419,47.06 378.841,47.113C380.35,46.872 381.755,46.948 382.848,45.74C383.087,45.476 383.16,45.175 383.13,44.86C382.825,44.899 378.163,45.466 373.313,44.856Z" style="fill:rgb(174,154,130);fill-rule:nonzero;"/>
    </g>
    <g transform="matrix(4.16667,0,0,4.16667,-1418.28,-0.542786)">
        <path d="M380.167,41.375L371.525,40.513C371.525,40.513 368.211,40.022 365.963,44.972C363.715,49.923 364.75,58.667 372.806,60.137C380.862,61.608 383.37,56.542 383.146,54.233C382.923,51.923 381.21,50.582 378.751,49.986C376.293,49.39 375.474,48.183 377.485,47.446C377.943,47.278 378.396,47.184 378.841,47.113C378.419,47.06 378.011,47.036 377.634,47.056C374.803,47.205 374.157,47.801 376.293,49.98C378.429,52.159 380.224,50.478 381.408,53.91C382.593,57.341 374.245,60.338 370.333,55.151C366.422,49.965 368.297,44.226 373.313,44.856C378.163,45.466 382.825,44.899 383.13,44.86C382.987,43.308 380.167,41.375 380.167,41.375Z" style="fill:rgb(153,130,110);fill-rule:nonzero;"/>
    </g>
    <g transform="matrix(4.16667,0,0,4.16667,-1418.28,-0.542786)">
        <path d="M381.756,5.886C379.571,9.759 378.975,14.29 375.796,19.424C372.618,24.559 368.943,32.902 377.584,38.564C386.216,44.219 396.489,39.558 396.533,31.286C396.336,27.32 395.049,23.617 394.37,21.977C393.178,19.096 392.682,9.859 392.682,5.489C392.682,2.355 389.982,1.013 388.45,0.502C388.45,0.503 383.941,2.012 381.756,5.886Z" style="fill:rgb(244,125,78);fill-rule:nonzero;"/>
    </g>
    <g transform="matrix(4.16667,0,0,4.16667,-1418.28,-0.542786)">
        <path d="M378.049,6.482C375.833,10.157 367.254,15.024 362.487,19.424C357.719,23.825 359.904,33.101 360.997,36.081C362.089,39.061 369.936,41.444 377.485,43.63C385.034,45.815 390.099,45.815 394.37,39.954C396.209,37.432 396.681,34.283 396.533,31.286C396.489,39.558 386.216,44.219 377.584,38.564C368.943,32.902 372.618,24.559 375.796,19.424C378.975,14.29 379.571,9.759 381.756,5.886C383.941,2.012 388.45,0.503 388.45,0.502C387.846,0.301 387.417,0.224 387.417,0.224C382.252,-0.471 380.266,2.807 378.049,6.482Z" style="fill:rgb(240,105,58);fill-rule:nonzero;"/>
    </g>
    <g transform="matrix(4.16667,0,0,4.16667,-1418.28,-0.542786)">
        <path d="M390.544,36.172C386.373,36.172 384.614,31.266 385.009,27.117C385.456,22.424 386.648,17.73 386.722,12.888C386.797,8.046 385.53,4.619 386.797,3.204C387.484,2.436 388.062,2.26 388.446,2.26C388.77,2.26 388.957,2.385 388.957,2.385C388.957,2.385 391.862,4.172 391.713,8.046C391.564,11.92 391.937,18.359 393.203,22.551C394.47,26.744 397.747,34.343 392.309,35.907C391.679,36.088 391.091,36.172 390.544,36.172Z" style="fill:rgb(246,142,102);fill-rule:nonzero;"/>
    </g>
    <g transform="matrix(4.16667,0,0,4.16667,-1418.28,-0.542786)">
        <path d="M361.068,41.489C361.068,41.489 359.151,37.989 361.651,34.073C364.151,30.156 368.734,27.907 370.734,24.907C372.734,21.907 372.4,14.741 364.318,14.241C356.235,13.741 345.986,21.907 341.486,35.739C336.987,49.572 347.069,60.987 357.735,62.82C368.401,64.654 375.15,61.487 373.817,53.405C372.846,47.52 368.401,48.488 365.151,46.155C361.901,43.822 361.068,41.489 361.068,41.489Z" style="fill:rgb(238,208,163);fill-rule:nonzero;"/>
    </g>
    <g transform="matrix(4.16667,0,0,4.16667,-1418.28,-0.542786)">
        <path d="M363.065,62.776C361.723,62.776 360.227,62.658 358.568,62.404C348.069,60.793 341.625,52.405 341.014,44.127C340.403,35.85 344.958,28.351 344.958,28.351C339.07,40.239 344.625,51.238 353.902,55.571C356.483,56.776 358.697,57.255 360.505,57.255C365.197,57.255 367.147,54.03 365.623,51.905C363.512,48.96 358.79,45.627 359.013,41.128C359.235,36.628 361.346,34.017 361.346,34.017C361.346,34.017 359.79,36.739 360.235,40.295C360.679,43.85 364.79,46.85 368.567,48.072C372.345,49.294 374.289,51.571 373.622,55.849C373.061,59.45 370.217,62.776 363.065,62.776Z" style="fill:rgb(231,194,147);fill-rule:nonzero;"/>
    </g>
    <g transform="matrix(4.16667,0,0,4.16667,-1418.28,-0.542786)">
        <path d="M363.791,55.488C362.145,55.488 348.576,51.005 349.902,39.156C351.235,27.24 362.568,21.074 362.568,21.074C363.45,20.4 364.167,20.129 364.66,20.129C365.718,20.129 365.743,21.38 364.151,22.574C361.818,24.324 352.735,30.656 352.319,39.906C351.902,49.155 362.234,51.905 363.818,52.988C365.401,54.071 365.339,55.438 363.818,55.488C363.809,55.488 363.801,55.488 363.791,55.488Z" style="fill:rgb(241,215,176);fill-rule:nonzero;"/>
    </g>
</svg>
