<?xml version="1.0" encoding="UTF-8" standalone="no"?><!DOCTYPE svg PUBLIC "-//W3C//DTD SVG 1.1//EN" "http://www.w3.org/Graphics/SVG/1.1/DTD/svg11.dtd"><svg width="100%" height="100%" viewBox="0 0 230 166" version="1.1" xmlns="http://www.w3.org/2000/svg" xmlns:xlink="http://www.w3.org/1999/xlink" xml:space="preserve" xmlns:serif="http://www.serif.com/" style="fill-rule:evenodd;clip-rule:evenodd;stroke-linejoin:round;stroke-miterlimit:1.41421;"><path d="M1.999,91.706c0,0 -1.785,-7.4 -1.982,-11.569c-0.2,-4.165 1.388,-8.134 1.982,-10.712c0.596,-2.578 1.39,-6.347 2.581,-7.734c1.187,-1.391 8.131,-9.325 8.725,-10.316c0.597,-0.994 0.2,-2.319 3.772,-5.722c3.568,-3.403 6.543,-4.394 10.115,-6.578c3.569,-2.181 7.735,-13.487 14.875,-18.05c7.141,-4.562 27.375,-8.925 28.566,-9.919c1.191,-0.99 3.569,-6.94 5.753,-8.331c2.181,-1.387 24.197,-2.775 26.578,-2.775c2.381,0 16.331,1.388 22.547,8.131c6.216,6.744 8,32.732 8,32.732c0,0 -0.397,27.571 -1.784,28.762c-1.388,1.188 -44.432,37.091 -44.432,37.091c0,0 -36.3,11.903 -40.268,12.3c-3.966,0.397 -41.457,-22.019 -41.457,-22.019l-3.571,-5.291Z" style="fill:#8f664c;fill-rule:nonzero;"/><path d="M125.511,8.131c0,0 34.119,20.366 41.788,64.535c7.671,44.165 -15.604,87.806 -70.879,91.775c-55.278,3.965 -79.081,-37.294 -85.693,-47.61c-6.613,-10.312 -8.728,-25.125 -8.728,-25.125l5.29,1.322c0,0 8.728,5.291 14.281,7.672c5.557,2.381 14.019,1.056 16.929,2.116c2.909,1.056 10.315,0.528 10.315,0.528l7.669,-5.025c0,0 2.909,-8.728 4.231,-8.988c1.322,-0.269 18.778,-1.062 21.953,-1.59c3.172,-0.525 10.313,-4.497 11.372,-6.085c1.056,-1.584 4.231,-13.222 5.553,-14.544c1.322,-1.324 6.085,-4.496 6.878,-4.496c0.791,0 6.875,0.262 7.935,0c1.056,-0.266 10.578,-7.141 10.578,-7.141c0,0 -5.819,-11.375 -5.819,-12.959c0,-1.588 0.528,-5.028 0.528,-5.028c0,0 -0.262,-6.875 0.532,-8.725c0.79,-1.854 7.403,-10.844 7.403,-10.844l-2.116,-9.788Z" style="fill:#745a49;fill-rule:nonzero;"/><path d="M120.52,6.05c0,0 -7.821,-3.762 -16.959,-4.662c-9.141,-0.9 -25.687,1.884 -26.581,2.778c-0.894,0.89 -3.175,7.04 -6.05,8.331c-2.875,1.287 -22.331,5.937 -28.466,10.016c-6.131,4.078 -10.412,14.778 -12.594,16.365c-2.184,1.588 -10.315,5.059 -12.793,8.728c-2.482,3.669 -3.075,6.05 -3.672,6.941c-0.594,0.894 -7.5,7.531 -9.025,9.422c-1.525,1.894 -2.478,13.49 -2.381,15.969c0.1,2.484 1.487,9.521 1.884,9.818c0.397,0.297 3.472,0.894 4.466,1.488c0.99,0.597 13.387,7.837 16.959,8.531c3.569,0.694 11.106,0.794 12.991,0.991c1.884,0.196 8.828,1.784 9.918,1.19c1.091,-0.593 6.447,-4.365 6.944,-4.959c0.494,-0.594 3.075,-7.935 4.363,-8.925c1.29,-0.991 20.728,-0.228 23.306,-1.65c2.581,-1.425 9.125,-4.6 9.722,-5.591c0.593,-0.993 4.462,-13.29 5.753,-14.678c1.287,-1.391 7.04,-4.762 7.537,-5.059c0.494,-0.297 7.338,0.2 8.032,-0.197c0.693,-0.397 9.025,-5.953 9.025,-5.953c0,0 -5.454,-10.216 -5.454,-11.8c0,-1.588 -0.396,-10.913 0.594,-14.285c0.994,-3.371 7.141,-9.915 7.341,-11.403c0.197,-1.487 -1.785,-9.028 -2.181,-9.325c-0.397,-0.297 -2.679,-2.081 -2.679,-2.081Z" style="fill:#f8e5cf;fill-rule:nonzero;"/><path d="M153.414,38.281c0,0 14.281,23.938 14.019,50.385c-0.266,26.446 -11.903,54.746 -40.069,66.912c-28.169,12.166 -53.162,8.994 -72.865,0.794c-19.704,-8.197 -33.588,-27.769 -38.747,-34.513c-5.157,-6.747 -7.007,-15.606 -7.007,-15.606c0,0 41.3,63.491 109.494,29.622c59.11,-29.356 35.175,-97.594 35.175,-97.594Z" style="fill:#664b3c;fill-rule:nonzero;"/><path d="M99.617,22.934c0,0 12.035,4.582 2.938,18.613c-9.1,14.031 -37.569,40.662 -59.291,41.237c-21.719,0.572 -21.719,-8.018 -14.381,-19.475c7.337,-11.453 40.797,-37.796 53.712,-40.375c12.916,-2.575 17.022,0 17.022,0Z" style="fill:#e0cdb9;fill-rule:nonzero;"/><path d="M43.258,49.984c0,0 -14.478,12.003 -16.759,19.838c-2.282,7.834 4.312,12.528 13.387,12.397c9.075,-0.131 25.788,-8.528 25.788,-8.528c0,0 -12.994,-5.557 -18.35,-10.416c-5.354,-4.859 -4.066,-13.291 -4.066,-13.291Z" style="fill:#d0bfaf;fill-rule:nonzero;"/><path d="M55.82,36.431c0,0 18.647,-16.397 34.25,-16.134c15.607,0.266 17.191,7.406 16.663,11.637c-0.528,4.232 -2.378,7.804 -2.378,7.804c0,0 8.725,-10.904 0.528,-17.947c-8.2,-7.047 -30.944,-5.857 -49.063,14.64Z" style="fill:#fff6eb;fill-rule:nonzero;"/><path d="M51.886,98.484c0,0 2.581,-1.881 2.581,-2.181c0,-0.297 3.372,-8.828 4.66,-9.325c1.29,-0.49 21.225,0.075 21.918,-0.556c0.694,-0.631 10.316,-5.394 10.316,-5.394c0,0 5.356,-14.178 5.85,-14.925c0.497,-0.744 7.934,-5.803 7.934,-5.803l7.538,0c0,0 -7.934,-1.284 -8.231,-0.791c-0.297,0.494 -8.825,6.594 -8.825,6.594c0,0 -5.257,11.256 -5.853,11.553c-0.594,0.297 -9.322,0.694 -9.322,0.694l2.378,2.778l-2.675,3.669c0,0 -15.666,-1.091 -16.463,-0.988c-0.797,0.097 -6.45,0.891 -6.45,0.891l-4.065,11.109l-1.291,2.675Z" style="fill:#fff6eb;fill-rule:nonzero;"/><path d="M188.167,86.422c0,0 -0.79,19.897 -18.447,26.047c-17.653,6.15 -33.156,3.412 -38.506,-0.625c-5.35,-4.041 -8.9,7.175 -8.9,7.175c0,0 1.191,11.897 17.853,15.665c16.66,3.769 21.222,4.166 33.322,0.597c12.1,-3.572 18.844,-10.515 23.803,-12.497c4.96,-1.984 10.316,-14.281 10.316,-14.281l2.181,-19.044l-6.544,-3.037l-15.078,0Z" style="fill:#e0cdb9;fill-rule:nonzero;"/><path d="M87.93,111.806l35.972,-5.487l9.718,7.34l0,3.172l2.182,0c0,0 8.203,5.753 21.756,6.35c13.553,0.594 18.116,-2.181 18.116,-2.181l4.956,2.266l0,-4.247l4.165,-2.978l11.704,4.362l-8.925,-5.612c0,0 6.943,-8.472 7.737,-11.247c0.791,-2.778 1.188,-13.888 1.188,-13.888l-8.332,-3.234c0,0 14.482,-4.7 20.432,-13.428c5.953,-8.725 11.306,-20.694 11.306,-20.694l6.747,8.597l0,40.062c0,0 -2.788,26.563 -12.3,33.529c-9.513,6.965 -38.678,13.884 -38.678,13.884l-15.672,7.141l-21.291,-3.769l-16.597,-7.341l-6.347,-2.775l-13.553,-4.165c0,0 -12.959,-19.372 -14.284,-25.657Z" style="fill:#f8e5cf;fill-rule:nonzero;"/><path d="M85.417,114.453c0,0 -0.659,21.422 2.513,29.885c3.175,8.465 19.556,27.043 74.319,19.299c50.515,-7.14 57.837,-31.128 60.931,-37.681c4.165,-8.825 6.575,-27.647 6.575,-27.647l-14.41,35.882c0,0 -34.184,13.322 -34.581,13.453c-0.397,0.134 -7.009,0.928 -7.406,1.059c-0.397,0.131 -12.297,6.613 -12.297,6.613l-7.537,-0.135l-14.813,-3.437c0,0 -11.241,-4.497 -11.637,-4.76c-0.397,-0.265 -9.785,-5.159 -9.785,-5.159l-15.075,-4.362l-10.184,-17.457l-6.613,-5.553Z" style="fill:#553e31;fill-rule:nonzero;"/><path d="M87.93,111.806c0,0.794 6.084,7.935 6.878,9.26c0.794,1.322 6.875,13.487 9.522,15.603c2.644,2.115 14.547,3.703 15.603,4.497c1.059,0.793 19.572,9.522 25.125,10.315c5.556,0.791 14.547,3.172 18.778,1.322c4.231,-1.853 8.728,-6.084 12.959,-6.347c4.232,-0.265 12.166,-2.909 19.838,-5.819c7.669,-2.909 14.809,-4.762 17.984,-9.521c3.172,-4.763 9.522,-20.366 9.522,-20.366l1.585,-14.547l-0.263,-12.166c0,0 -1.059,-16.134 -1.322,-18.249c-0.265,-2.116 0.794,-4.76 0,-6.082c-0.794,-1.322 -4.234,-7.406 -4.234,-7.406l4.234,0l3.966,7.141l0,8c0,0 1.322,24.993 1.719,28.962c0.396,3.966 -4.76,22.81 -5.357,24.397c-0.593,1.588 -9.718,15.869 -10.312,16.859c-0.597,0.994 -29.953,11.11 -31.738,11.704c-1.787,0.596 -8.728,1.19 -9.918,1.984c-1.191,0.794 -10.513,5.95 -14.679,5.95c-4.165,0 -25.787,-5.75 -28.962,-7.338c-3.172,-1.587 -9.519,-6.15 -10.313,-6.15c-0.793,0 -16.662,-4.562 -17.259,-4.959c-0.594,-0.397 -9.519,-14.478 -10.312,-15.869c-0.794,-1.387 -5.557,-8.528 -5.557,-8.528l2.513,-2.647Z" style="fill:#745a49;fill-rule:nonzero;"/><path d="M190.055,86.287l6.94,2.479c0,0 7.538,-2.278 16.069,-10.019c8.528,-7.735 10.71,-18.15 10.71,-18.15l-4.263,-5.95c0,0 -4.762,14.678 -13.587,22.119c-8.829,7.437 -15.869,9.521 -15.869,9.521Z" style="fill:#fff6eb;fill-rule:nonzero;"/><path d="M132.495,113.925l0,3.7l3.207,0c0,0 3.768,4.959 20.431,6.05c16.662,1.091 19.737,-1.287 19.737,-1.287l4.563,1.574l9.622,12.013l-8.135,-12.597l0,-3.669l2.479,-2.478l13.29,3.769l-7.634,-5.853l9.122,6.247l10.612,7.837l-11.503,-6.943l-12.003,-2.779l1.884,2.282l-4.362,-2.578l-0.794,1.387l0.397,2.978c0,0 9.025,15.569 8.728,15.569c-0.297,0 -12.794,-14.281 -12.794,-14.281l-3.372,-0.694l-9.918,1.387c0,0 -0.297,4.366 0,4.069c0.297,-0.3 -1.091,-3.869 -1.091,-3.869c0,0 -10.116,0.794 -17.953,-1.09c-7.834,-1.885 -9.916,-3.175 -9.916,-3.175l-9.622,8.928l7.438,-10.119l-1.288,-1.884l-3.075,0.2l-22.018,7.919l22.215,-9.607l1.753,-3.006Z" style="fill:#fff6eb;fill-rule:nonzero;"/></svg>