<?xml version="1.0" encoding="UTF-8" standalone="no"?>
<!DOCTYPE svg PUBLIC "-//W3C//DTD SVG 1.1//EN" "http://www.w3.org/Graphics/SVG/1.1/DTD/svg11.dtd">
<svg width="100%" height="100%" viewBox="0 0 287 195" version="1.1" xmlns="http://www.w3.org/2000/svg" xmlns:xlink="http://www.w3.org/1999/xlink" xml:space="preserve" xmlns:serif="http://www.serif.com/" style="fill-rule:evenodd;clip-rule:evenodd;stroke-linejoin:round;stroke-miterlimit:1.41421;">
    <g transform="matrix(4.16667,0,0,4.16667,-472.53,-509.733)">
        <path d="M122.399,134.984C118.751,136.611 115.608,144.243 123.857,152.324C132.107,160.405 142.937,155.354 145.575,148.059C148.212,140.764 151.411,137.341 154.385,135.938C154.635,135.82 154.946,135.742 155.28,135.681C154.194,131.578 152.102,127.743 148.857,125.472C143.807,121.937 140.58,123.087 140.58,123.087L127.515,128.421C128.873,129.579 129.75,130.354 129.75,130.354C129.75,130.354 126.046,133.356 122.399,134.984Z" style="fill:rgb(166,107,62);fill-rule:nonzero;"/>
    </g>
    <g transform="matrix(4.16667,0,0,4.16667,-472.53,-509.733)">
        <path d="M114.093,148.115C117.208,159.563 130.807,170.663 145.996,164.866C157.022,160.657 156.181,148.788 156.181,142.56C156.181,140.332 155.884,137.965 155.28,135.681C154.946,135.742 154.635,135.82 154.385,135.938C151.411,137.341 148.212,140.764 145.575,148.059C142.937,155.354 132.107,160.405 123.857,152.324C115.608,144.243 118.751,136.611 122.399,134.984C126.046,133.356 129.75,130.354 129.75,130.354C129.75,130.354 128.873,129.579 127.515,128.421L119.48,131.701C119.48,131.701 110.979,136.667 114.093,148.115Z" style="fill:rgb(147,90,50);fill-rule:nonzero;"/>
    </g>
    <g transform="matrix(4.16667,0,0,4.16667,-472.53,-509.733)">
        <path d="M176.088,133.763C176.088,133.763 177,134.423 177,135.377C177,136.331 176.832,138.407 178.122,140.202C179.413,141.998 186.652,152.155 178.122,163.603C171.03,173.122 159.8,167.559 155.676,165.708C151.551,163.856 142.039,155.354 148.773,144.495C155.507,133.637 162.746,134.058 166.703,134.647C170.659,135.236 172.3,135.194 173.268,134.352C174.236,133.511 175.26,133.651 176.088,133.763Z" style="fill:rgb(238,208,163);fill-rule:nonzero;"/>
    </g>
    <g transform="matrix(4.16667,0,0,4.16667,-472.53,-509.733)">
        <path d="M152.836,147.162C151.751,147.162 151.94,144.449 154.329,142.672C154.329,142.672 157.584,138.912 163.027,137.733C166.293,137.026 168.65,136.764 169.952,136.764C170.821,136.764 171.22,136.88 171.108,137.06C170.827,137.509 166.562,137.846 161.68,140.202C156.798,142.56 153.992,147.105 152.87,147.161C152.859,147.162 152.847,147.162 152.836,147.162Z" style="fill:rgb(241,215,176);fill-rule:nonzero;"/>
    </g>
    <g transform="matrix(4.16667,0,0,4.16667,-472.53,-509.733)">
        <path d="M159.138,156.248C158.703,156.248 158.276,155.945 157.977,155.466C157.415,154.568 157.864,153.222 163.364,147.162C168.863,141.102 172.006,138.575 172.006,138.575C172.493,138.16 173.39,137.456 173.704,137.456C173.799,137.456 173.84,137.521 173.801,137.677C173.633,138.351 172.847,139.08 170.883,141.157C168.919,143.233 160.895,154.288 160.221,155.466C159.907,156.016 159.519,156.248 159.138,156.248Z" style="fill:rgb(241,215,176);fill-rule:nonzero;"/>
    </g>
    <g transform="matrix(4.16667,0,0,4.16667,-472.53,-509.733)">
        <path d="M173.113,159.484C171.915,159.484 172.836,157.413 173.816,155.635C174.868,153.727 175.99,149.237 175.766,145.646C175.565,142.442 174.606,139.685 175.078,139.685C175.135,139.685 175.214,139.725 175.317,139.81C175.317,139.81 177.449,145.197 177,150.809C176.551,156.42 175.036,159.114 173.409,159.451C173.298,159.473 173.2,159.484 173.113,159.484Z" style="fill:rgb(241,215,176);fill-rule:nonzero;"/>
    </g>
    <g transform="matrix(4.16667,0,0,4.16667,-472.53,-509.733)">
        <path d="M166.972,160.357C166.052,160.209 165.079,159.991 164.048,159.693C165.145,158.327 166.215,156.8 167.011,155.242C169.593,150.191 170.135,147.331 171.126,147.162C171.149,147.158 171.171,147.156 171.193,147.156C172.084,147.156 171.366,150.577 170.434,153.436C169.779,155.447 168.644,158.062 166.972,160.357Z" style="fill:rgb(241,215,176);fill-rule:nonzero;"/>
    </g>
    <g transform="matrix(4.16667,0,0,4.16667,-472.53,-509.733)">
        <path d="M154.55,154.744C153.795,154.045 153.172,153.321 152.665,152.584C153.436,150.293 154.755,148.241 156.91,146.151C159.683,143.462 162.645,142 163.629,142C163.959,142 164.066,142.165 163.869,142.503C163.083,143.85 161.063,144.86 161.063,144.86C161.063,144.86 156.63,148.657 154.946,153.436C154.79,153.88 154.659,154.317 154.55,154.744Z" style="fill:rgb(241,215,176);fill-rule:nonzero;"/>
    </g>
    <g transform="matrix(4.16667,0,0,4.16667,-472.53,-509.733)">
        <path d="M167.525,168.298C164.844,168.298 161.842,167.609 158.482,166.297C150.288,163.098 145.967,156.027 147.09,149.911C148.212,143.794 153.936,138.575 153.936,138.575C151.484,140.989 148.932,147.154 152.665,152.584C152.112,154.229 151.841,155.998 151.748,157.992C151.568,161.815 152.999,163.231 153.756,163.231C153.944,163.231 154.09,163.144 154.161,162.986C154.482,162.261 153.481,158.926 154.55,154.744C156.377,156.437 158.977,157.984 162.578,159.226C163.08,159.399 163.571,159.555 164.048,159.693C161.589,162.753 158.987,165.006 158.987,165.006C158.613,165.616 158.77,165.902 159.269,165.902C160.193,165.902 162.286,164.923 164.342,163.21C165.334,162.384 166.209,161.404 166.972,160.357C168.021,160.526 168.997,160.603 169.908,160.603C179.629,160.603 181.77,151.819 181.77,151.819C181.77,151.819 181.714,158.665 177.225,163.828C174.576,166.873 171.382,168.298 167.525,168.298Z" style="fill:rgb(231,196,150);fill-rule:nonzero;"/>
    </g>
    <g transform="matrix(4.16667,0,0,4.16667,-472.53,-509.733)">
        <path d="M159.269,165.902C158.77,165.902 158.613,165.616 158.987,165.006C158.987,165.006 161.589,162.753 164.048,159.693C165.079,159.991 166.052,160.209 166.972,160.357C166.209,161.404 165.334,162.384 164.342,163.21C162.286,164.923 160.193,165.902 159.269,165.902Z" style="fill:rgb(232,201,159);fill-rule:nonzero;"/>
    </g>
    <g transform="matrix(4.16667,0,0,4.16667,-472.53,-509.733)">
        <path d="M153.756,163.231C152.999,163.231 151.568,161.815 151.748,157.992C151.841,155.998 152.112,154.229 152.665,152.584C153.172,153.321 153.795,154.045 154.55,154.744C153.481,158.926 154.482,162.261 154.161,162.986C154.09,163.144 153.944,163.231 153.756,163.231Z" style="fill:rgb(232,201,159);fill-rule:nonzero;"/>
    </g>
    <g transform="matrix(4.16667,0,0,4.16667,-472.53,-509.733)">
        <path d="M120.463,130.887C121.416,132.234 133.089,128.294 136.624,125.859C138.811,124.352 139.813,123.298 140.263,122.71C138.878,122.12 133.325,121.896 126.804,124.63C125.883,125.016 125.047,125.438 124.277,125.879C124.007,126.088 119.537,129.581 120.463,130.887Z" style="fill:rgb(191,167,143);fill-rule:nonzero;"/>
    </g>
    <g transform="matrix(4.16667,0,0,4.16667,-472.53,-509.733)">
        <path d="M116.871,134.058C116.955,134.479 120.911,133.553 129.75,130.354C138.588,127.155 140.58,123.087 140.58,123.087C140.665,122.96 140.54,122.828 140.263,122.71C139.813,123.298 138.811,124.352 136.624,125.859C133.089,128.294 121.416,132.234 120.463,130.887C119.537,129.581 124.007,126.088 124.277,125.879C118.499,129.188 116.797,133.686 116.871,134.058Z" style="fill:rgb(162,143,126);fill-rule:nonzero;"/>
    </g>
    <g transform="matrix(4.16667,0,0,4.16667,-472.53,-509.733)">
        <path d="M129.101,154.902C129.101,154.902 127.859,153.561 124.519,148.277C121.179,142.993 121.399,137.55 121.399,137.55C121.9,141.432 124.037,145.261 124.397,146.195C124.212,145.135 123.593,140.319 123.593,140.319L126.638,147.151L126.051,144.686L127.409,145.98L125.319,138.49C125.319,138.49 128.369,142.557 128.811,143.244C128.396,142.379 125.688,136.042 125.688,136.042L131.385,146.249L130.826,141.361L133.695,145.537L132.868,141.19C132.868,141.19 135.412,143.913 135.525,143.913C135.532,143.913 135.53,143.904 135.52,143.884C135.323,143.53 133.289,138.803 133.289,138.803L135.818,140.924L131.237,131.992L139.548,145.114L136.734,142.801L138.859,148.493L134.174,143.83C134.174,143.83 135.223,148.195 135.294,148.708C135.298,148.733 135.291,148.745 135.277,148.745C134.991,148.745 131.489,144.286 131.489,144.286L134.51,154.161L126.618,140.51L129.526,149.7L127.276,146.921L128.185,150.266L125.762,147.534L129.101,154.902Z" style="fill:rgb(188,123,69);fill-rule:nonzero;"/>
    </g>
    <g transform="matrix(4.16667,0,0,4.16667,-472.53,-509.733)">
        <path d="M148.717,138.968L146.431,135.264L146.914,137.456C146.914,137.456 144.621,134.086 142.769,131.589C140.917,129.091 137.831,127.464 137.831,127.464C137.831,127.464 141.141,128.699 142.264,129.653C143.386,130.607 144.957,132.795 144.957,132.795L144.508,131.161L148.605,134.153L146.914,131.589C146.914,131.589 149.188,133.367 149.378,133.367C149.386,133.367 149.391,133.363 149.391,133.356C149.391,133.188 147.034,129.848 145.378,128.431C143.723,127.015 142.6,126.398 142.6,126.398C142.6,126.398 145.785,127.801 146.914,128.979C148.044,130.158 149.054,130.831 149.054,130.831L147.707,128.867L149.615,129.765C149.615,129.765 146.883,126.168 143.635,124.634C145.197,125.303 148.085,126.769 149.896,129.091C152.477,132.402 152.926,134.984 152.926,134.984L149.503,130.214L151.243,133.918L149.391,131.617L151.732,136.555L149.278,134.423L150.064,136.331L145.911,132.739L148.717,138.968ZM143.635,124.634C142.972,124.35 142.547,124.21 142.544,124.209C142.912,124.321 143.276,124.465 143.635,124.634Z" style="fill:rgb(188,123,69);fill-rule:nonzero;"/>
    </g>
</svg>
