<?xml version="1.0" encoding="UTF-8" standalone="no"?>
<!DOCTYPE svg PUBLIC "-//W3C//DTD SVG 1.1//EN" "http://www.w3.org/Graphics/SVG/1.1/DTD/svg11.dtd">
<svg width="100%" height="100%" viewBox="0 0 315 215" version="1.1" xmlns="http://www.w3.org/2000/svg" xmlns:xlink="http://www.w3.org/1999/xlink" xml:space="preserve" xmlns:serif="http://www.serif.com/" style="fill-rule:evenodd;clip-rule:evenodd;stroke-linejoin:round;stroke-miterlimit:1.41421;">
    <g transform="matrix(4.16667,0,0,4.16667,-927.023,-955.146)">
        <path d="M283.742,229.235C283.742,229.235 285.46,229.314 285.959,231.714C286.458,234.114 286.321,237.718 287.526,240.767C288.731,243.816 296.881,249.749 297.963,259.728C299.044,269.708 292.224,278.108 277.754,279.355C263.283,280.602 254.218,272.785 252.638,269.958C251.058,267.13 245.726,258.232 250.632,248.418C255.539,238.605 264.402,235.777 273.338,234.946C278.439,234.471 280.664,229.263 283.742,229.235Z" style="fill:rgb(148,181,91);fill-rule:nonzero;"/>
    </g>
    <g transform="matrix(4.16667,0,0,4.16667,-927.023,-955.146)">
        <path d="M296.74,254.639C296.74,254.639 297.898,265.8 284.749,269.916C271.6,274.032 265.002,264.108 264.558,262.556C264.115,261.004 264.836,255.348 260.788,250.636C256.741,245.923 255.157,245.485 254.523,244.482C253.89,243.479 254.523,242.777 254.523,242.777L252.414,245.394L249.262,255.255L256.611,273.909C256.611,273.909 263.838,279.133 274.316,279.189C284.795,279.244 291.725,275.973 295.163,270.54C298.6,265.106 298.372,260.085 296.74,254.639Z" style="fill:rgb(135,163,77);fill-rule:nonzero;"/>
    </g>
    <g transform="matrix(4.16667,0,0,4.16667,-927.023,-955.146)">
        <path d="M282.688,231.73C282.688,231.73 284.278,231.231 284.453,235.777C284.629,240.324 284.241,244.925 285.737,250.414C287.234,255.903 289.785,260.172 287.179,266.881C284.573,273.589 281.746,275.64 275.203,276.139C268.661,276.638 267.053,274.032 267.053,274.032C267.053,274.032 264.448,273.201 265.002,269.209C265.556,265.217 267.83,256.292 271.101,251.19C274.372,246.09 275.647,245.132 277.477,241.536C279.306,237.94 280.914,233.282 281.524,232.562C282.134,231.841 282.688,231.73 282.688,231.73Z" style="fill:rgb(208,227,176);fill-rule:nonzero;"/>
    </g>
    <g transform="matrix(4.16667,0,0,4.16667,-927.023,-955.146)">
        <path d="M282.827,233.948C282.827,233.948 283.825,235.195 283.742,237.69C283.658,240.185 284.157,246.589 285.405,250.664C286.652,254.739 289.48,261.891 285.405,268.876C281.33,275.862 275.508,275.613 272.348,275.613C269.188,275.613 267.525,273.7 267.525,273.7C267.525,273.7 264.78,273.284 265.945,267.296C267.109,261.309 269.853,253.545 273.013,249.401C276.174,245.258 278.585,241.183 279.916,238.023C281.247,234.863 282.3,232.902 282.827,233.948Z" style="fill:rgb(166,107,62);fill-rule:nonzero;"/>
    </g>
    <g transform="matrix(4.16667,0,0,4.16667,-927.023,-955.146)">
        <path d="M229.301,241.63C229.301,241.63 228.287,242.363 228.287,243.424C228.287,244.485 228.474,246.794 227.039,248.791C225.604,250.788 217.553,262.085 227.039,274.815C234.926,285.401 247.415,279.215 252.002,277.155C256.588,275.096 267.167,265.641 259.678,253.566C252.189,241.49 244.139,241.958 239.739,242.613C235.339,243.268 233.514,243.221 232.437,242.285C231.361,241.349 230.222,241.505 229.301,241.63Z" style="fill:rgb(238,208,163);fill-rule:nonzero;"/>
    </g>
    <g transform="matrix(4.16667,0,0,4.16667,-927.023,-955.146)">
        <path d="M238.824,280.036C234.535,280.036 230.983,278.452 228.038,275.065C223.045,269.323 222.983,261.71 222.983,261.71C222.983,261.71 225.364,271.477 236.174,271.478C238.486,271.479 241.183,271.032 244.326,269.947C262.163,263.792 257.931,250.913 253.937,246.981C253.937,246.981 260.302,252.785 261.549,259.588C262.798,266.39 257.993,274.253 248.882,277.811C245.145,279.269 241.806,280.036 238.824,280.036Z" style="fill:rgb(231,196,150);fill-rule:nonzero;"/>
    </g>
    <g transform="matrix(4.16667,0,0,4.16667,-927.023,-955.146)">
        <path d="M250.996,255.598C250.846,255.598 250.691,255.589 250.532,255.57C247.205,255.182 245.265,251.578 240.497,250.636C235.728,249.693 232.014,246.589 231.626,244.593C231.434,243.605 231.771,243.283 232.322,243.283C232.884,243.283 233.67,243.619 234.342,243.927C234.342,243.927 237.839,243.713 242.385,243.262C242.768,243.224 243.154,243.205 243.539,243.205C247.706,243.205 251.795,245.391 253.47,248.64C255.212,252.018 253.988,255.598 250.996,255.598Z" style="fill:rgb(241,215,176);fill-rule:nonzero;"/>
    </g>
    <g transform="matrix(4.16667,0,0,4.16667,-927.023,-955.146)">
        <path d="M268.19,272.203C268.19,272.203 268.356,258.98 272.514,253.657C276.673,248.335 280.415,240.684 280.831,239.436C281.247,238.189 282.245,238.977 282.245,241.536C282.245,244.094 282.161,248.169 283.658,253.325C285.155,258.482 284.906,267.296 279.667,271.288C274.427,275.28 268.19,272.203 268.19,272.203Z" style="fill:rgb(238,208,163);fill-rule:nonzero;"/>
    </g>
    <g transform="matrix(4.16667,0,0,4.16667,-927.023,-955.146)">
        <path d="M273.168,272.463C270.577,272.463 268.606,271.87 268.606,271.87C268.606,271.87 268.894,266.209 269.437,262.681C269.981,259.154 270.394,258.814 270.394,258.814C270.394,258.814 268.689,266.382 274.51,267.67C275.421,267.872 276.25,267.963 277.003,267.963C281.063,267.963 282.935,265.326 283.742,263.221C283.742,263.221 282.453,269.991 277.962,271.662C276.329,272.27 274.648,272.463 273.168,272.463Z" style="fill:rgb(231,196,150);fill-rule:nonzero;"/>
    </g>
</svg>
