<?xml version="1.0" encoding="UTF-8" standalone="no"?>
<!DOCTYPE svg PUBLIC "-//W3C//DTD SVG 1.1//EN" "http://www.w3.org/Graphics/SVG/1.1/DTD/svg11.dtd">
<svg width="100%" height="100%" viewBox="0 0 227 221" version="1.1" xmlns="http://www.w3.org/2000/svg" xmlns:xlink="http://www.w3.org/1999/xlink" xml:space="preserve" xmlns:serif="http://www.serif.com/" style="fill-rule:evenodd;clip-rule:evenodd;stroke-linejoin:round;stroke-miterlimit:1.41421;">
    <g transform="matrix(4.16667,0,0,4.16667,-498.556,-959.715)">
        <path d="M127.651,231.669C127.651,231.669 133.293,228.66 137.148,231.669C141.003,234.678 144.67,243.704 148.243,254.752C151.816,265.8 151.252,273.113 149.936,275.239C148.619,277.366 146.457,279.34 146.739,280.657C147.021,281.973 147.021,283.889 146.081,283.025C145.14,282.161 144.764,281.127 142.978,280.939C141.191,280.751 136.49,281.409 132.165,276.331C127.839,271.254 121.07,255.269 119.847,246.149C118.625,237.028 123.42,231.763 127.651,231.669Z" style="fill:rgb(147,82,38);fill-rule:nonzero;"/>
    </g>
    <g transform="matrix(4.16667,0,0,4.16667,-498.556,-959.715)">
        <path d="M138.041,244.174C136.49,242.764 135.738,240.46 135.55,239.896C135.362,239.332 133.528,237.639 132.682,237.169C131.836,236.699 131.789,236.652 129.955,236.323C128.94,236.141 128.194,235.884 127.722,235.574C127.465,236.622 126.57,240.333 126.57,241.259C126.57,242.341 126.899,243.046 126.57,243.657C126.241,244.268 123.89,248.829 123.984,249.722C124.078,250.615 125.16,251.79 125.489,252.213C125.818,252.637 126.805,253.765 126.805,253.765C126.805,253.765 128.545,254.094 129.108,254.564C129.673,255.034 130.143,255.859 130.848,256.786C131.554,257.715 132.823,257.902 132.87,258.325C132.917,258.749 132.635,258.749 132.87,259.266C133.104,259.781 133.704,260.043 135.903,258.982C137.14,257.848 138.247,256.365 138.511,255.504C138.888,254.282 138.7,251.837 138.652,250.662C138.606,249.487 139.546,247.371 139.593,246.76C139.64,246.149 139.593,245.585 138.041,244.174Z" style="fill:rgb(156,108,79);fill-rule:nonzero;"/>
    </g>
    <g transform="matrix(4.16667,0,0,4.16667,-498.556,-959.715)">
        <path d="M132.87,259.266C132.635,258.749 132.917,258.749 132.87,258.325C132.823,257.902 131.554,257.715 130.848,256.786C130.143,255.859 129.673,255.034 129.108,254.564C128.545,254.094 126.805,253.765 126.805,253.765C126.805,253.765 125.818,252.637 125.489,252.213C125.16,251.79 124.078,250.615 123.984,249.722C123.89,248.829 126.241,244.268 126.57,243.657C126.899,243.046 126.57,242.341 126.57,241.259C126.57,240.333 127.465,236.622 127.722,235.574C127.341,235.324 127.134,235.039 127.134,234.724C127.134,233.44 125.395,238.062 125.16,239.05C124.925,240.037 125.254,241.306 123.843,242.999C122.433,244.691 121.117,249.064 121.634,250.286C122.151,251.508 123.984,252.731 124.548,253.953C125.113,255.175 127.369,255.21 127.98,256.133C128.591,257.056 130.565,259.172 130.613,260.065C130.66,260.958 131.177,261.945 131.741,261.616C132.306,261.288 132.588,261.099 134.327,260.159C134.842,259.88 135.383,259.46 135.903,258.982C133.704,260.043 133.104,259.781 132.87,259.266Z" style="fill:rgb(120,62,25);fill-rule:nonzero;"/>
    </g>
    <g transform="matrix(4.16667,0,0,4.16667,-498.556,-959.715)">
        <path d="M129.037,237.122C129.037,237.122 130.574,244.015 131.792,247.644C133.011,251.273 133.34,255.906 133.716,256.786C134.092,257.667 135.301,259.256 135.301,259.256L135.903,258.982L136.78,258.098C136.78,258.098 134.938,254.94 134.515,253.389C134.092,251.837 133.512,248.547 132.909,247.371C132.306,246.196 129.037,237.122 129.037,237.122Z" style="fill:rgb(133,86,56);fill-rule:nonzero;"/>
    </g>
    <g transform="matrix(4.16667,0,0,4.16667,-498.556,-959.715)">
        <path d="M132.218,236.917C132.482,237.058 135.645,244.315 135.903,246.196C136.161,248.076 137.007,252.543 137.242,253.107C137.477,253.671 137.164,246.901 136.78,245.397C136.396,243.892 135.428,240.977 135.301,240.695C135.174,240.413 134.095,238.253 134.095,238.253L132.218,236.917Z" style="fill:rgb(133,86,56);fill-rule:nonzero;"/>
    </g>
    <g transform="matrix(4.16667,0,0,4.16667,-498.556,-959.715)">
        <path d="M126.57,241.259C126.57,241.259 127.557,244.421 127.945,245.408C128.332,246.396 128.791,248.159 129.037,249.146C129.285,250.133 129.461,251.916 129.779,253.14C130.095,254.364 130.483,255.622 130.519,255.646C130.554,255.669 128.298,252.073 128.121,251.367C127.945,250.662 127.17,248.505 126.852,247.644C126.535,246.784 125.682,245.406 125.682,245.406C125.682,245.406 126.605,243.54 126.641,242.94C126.676,242.341 126.57,241.259 126.57,241.259Z" style="fill:rgb(133,86,56);fill-rule:nonzero;"/>
    </g>
    <g transform="matrix(4.16667,0,0,4.16667,-498.556,-959.715)">
        <path d="M146.553,282.305C146.38,282.305 145.995,281.832 145.448,281.36C144.901,280.888 144.194,280.415 143.378,280.415C143.323,280.415 143.268,280.417 143.213,280.422C143.126,280.428 143.029,280.432 142.924,280.432C140.868,280.432 135.578,279.113 132.909,276.331C130.104,273.408 126.698,265.507 125.682,263.532C125.004,262.215 123.901,259.147 123.24,257.25C124.196,259.471 126.695,263.695 132.909,267.963C134.857,269.301 136.749,269.871 138.504,269.871C141.652,269.871 144.361,268.039 146.171,265.518C145.634,272.26 146.314,275.964 147.229,278.167C146.91,278.645 146.676,279.073 146.598,279.505C146.28,281.268 146.88,282.079 146.598,282.29C146.585,282.3 146.57,282.305 146.553,282.305ZM123.24,257.25C122.807,256.241 122.691,255.646 122.691,255.646C122.691,255.646 122.911,256.302 123.24,257.25Z" style="fill:rgb(135,69,32);fill-rule:nonzero;"/>
    </g>
    <g transform="matrix(4.16667,0,0,4.16667,-498.556,-959.715)">
        <path d="M127.667,235.8C127.667,235.8 131.204,236.981 132.218,237.31C133.232,237.639 134.864,239.567 135.301,240.413C135.738,241.259 136.082,243.328 136.78,243.845C137.477,244.362 139.173,246.155 139.311,246.76C139.448,247.365 138.276,249.863 138.276,250.709C138.276,251.555 139.026,254.482 138.511,255.504C137.996,256.527 137.6,257.102 137.6,257.102C137.6,257.102 138.958,255.457 139.099,254.729C139.24,254 139.052,250.733 139.123,250.521C139.193,250.31 140.298,246.431 140.133,245.796C139.969,245.162 137.242,242.764 137.148,242.458C137.054,242.153 135.973,239.355 135.667,238.815C135.362,238.274 133.575,236.746 133.011,236.652C132.447,236.558 127.722,235.574 127.722,235.574L127.667,235.8Z" style="fill:rgb(222,161,123);fill-rule:nonzero;"/>
    </g>
    <g transform="matrix(4.16667,0,0,4.16667,-498.556,-959.715)">
        <path d="M161.184,277.253C161.452,274.352 162.043,270.216 163.762,266.295C165.481,262.373 166.18,258.599 166.555,257.344C166.931,256.088 166.77,260.977 165.696,264.253C164.621,267.53 163.229,271.881 162.905,274.728C162.58,277.576 162.526,279.617 165.857,277.683C169.188,275.749 172.477,262.268 172.477,262.268C173.287,257.365 173.917,251.996 174.022,247.627C174.167,241.657 172.968,238.299 171.717,236.508C171.706,236.497 170.233,235.027 169.188,235.863C168.138,236.702 168.059,244.565 166.851,251.414C165.642,258.264 162.177,267.208 161.291,269.948C160.405,272.687 159.76,279.778 158.632,279.134C157.504,278.489 159.679,265.596 162.5,257.344C165.302,249.143 166.45,233.472 166.464,233.274C165.99,232.877 165.232,232.548 164.031,232.398C162.741,232.237 162.191,232.613 161.909,233.043C161.909,233.043 162.741,243.598 160.807,249.239C158.874,254.879 155.248,269.061 155.086,272.848C154.925,276.636 154.603,278.489 154.119,278.489C153.636,278.489 152.347,274.057 154.119,268.658C155.892,263.26 158.713,248.514 159.438,242.39C160.129,236.553 160.086,234.597 159.104,233.24C158.392,233.202 156.99,233.354 155.167,234.735C152.508,236.749 149.526,242.068 146.948,258.99C145.199,270.463 146.119,275.747 147.37,278.489C147.373,278.493 149.419,281.011 149.043,277.898C148.667,274.782 149.634,270.055 151.245,267.154C152.857,264.253 155.251,256.786 155.251,256.786C155.251,256.786 154.361,263.072 153.213,265.811C152.064,268.551 150.117,274.514 150.816,276.448C151.514,278.382 153.555,279.993 154.361,280.208C155.167,280.423 155.251,281.602 155.251,281.602L155.25,281.603C155.675,281.81 156.108,282.141 156.295,282.289C156.617,282.543 157.907,281.47 158.954,281.228C159.073,281.201 159.169,281.198 159.254,281.209C159.254,281.209 160.915,280.154 161.184,277.253Z" style="fill:rgb(156,108,79);fill-rule:nonzero;"/>
    </g>
    <g transform="matrix(4.16667,0,0,4.16667,-498.556,-959.715)">
        <path d="M158.632,279.134C159.76,279.778 160.405,272.687 161.291,269.948C162.177,267.208 165.642,258.264 166.851,251.414C168.059,244.565 168.138,236.702 169.188,235.863C170.233,235.027 171.706,236.497 171.717,236.508C170.874,235.301 170.007,234.799 169.51,234.716C168.274,234.509 168.006,237.072 167.576,237.072C167.146,237.072 167.093,235.675 167.146,234.762C167.175,234.274 167.007,233.729 166.464,233.274C166.45,233.472 165.302,249.143 162.5,257.344C159.679,265.596 157.504,278.489 158.632,279.134Z" style="fill:rgb(133,86,56);fill-rule:nonzero;"/>
    </g>
    <g transform="matrix(4.16667,0,0,4.16667,-498.556,-959.715)">
        <path d="M159.438,242.39C158.713,248.514 155.892,263.26 154.119,268.658C152.347,274.057 153.636,278.489 154.119,278.489C154.603,278.489 154.925,276.636 155.086,272.848C155.248,269.061 158.874,254.879 160.807,249.239C162.741,243.598 161.909,233.043 161.909,233.043C161.627,233.472 161.613,233.956 161.398,234.01C160.969,234.117 159.626,233.311 159.626,233.311C159.626,233.311 159.43,233.258 159.104,233.24C160.086,234.597 160.129,236.553 159.438,242.39Z" style="fill:rgb(133,86,56);fill-rule:nonzero;"/>
    </g>
    <g transform="matrix(4.16667,0,0,4.16667,-498.556,-959.715)">
        <path d="M162.177,282.276C164.917,282.115 167.576,278.65 169.188,275.749C170.095,274.117 171.435,268.579 172.477,262.268C172.477,262.268 169.188,275.749 165.857,277.683C162.526,279.617 162.58,277.576 162.905,274.728C163.229,271.881 164.621,267.53 165.696,264.253C166.77,260.977 166.931,256.088 166.555,257.344C166.18,258.599 165.481,262.373 163.762,266.295C162.043,270.216 161.452,274.352 161.184,277.253C160.915,280.154 159.254,281.209 159.254,281.209C159.914,281.298 159.749,282.419 162.177,282.276Z" style="fill:rgb(133,86,56);fill-rule:nonzero;"/>
    </g>
    <g transform="matrix(4.16667,0,0,4.16667,-498.556,-959.715)">
        <path d="M154.361,280.208C153.555,279.993 151.514,278.382 150.816,276.448C150.117,274.514 152.064,268.551 153.213,265.811C154.361,263.072 155.251,256.786 155.251,256.786C155.251,256.786 152.857,264.253 151.245,267.154C149.634,270.055 148.667,274.782 149.043,277.898C149.419,281.011 147.373,278.493 147.37,278.489C147.963,279.791 148.631,280.523 149.124,281.067C150.655,282.759 153.958,281.712 154.442,281.47C154.644,281.369 154.945,281.455 155.25,281.603L155.251,281.602C155.251,281.602 155.167,280.423 154.361,280.208Z" style="fill:rgb(133,86,56);fill-rule:nonzero;"/>
    </g>
    <g transform="matrix(4.16667,0,0,4.16667,-498.556,-959.715)">
        <path d="M158.775,279.175C158.777,279.175 158.778,279.175 158.78,279.175C158.778,279.175 158.777,279.175 158.775,279.175ZM158.775,279.175C158.728,279.175 158.68,279.161 158.632,279.134C158.68,279.161 158.728,279.175 158.775,279.175Z" style="fill:rgb(229,220,212);fill-rule:nonzero;"/>
    </g>
    <g transform="matrix(4.16667,0,0,4.16667,-498.556,-959.715)">
        <path d="M156.66,282.025C156.641,282.025 156.627,282.021 156.617,282.013C156.505,281.916 155.867,281.574 155.218,281.375C155.148,281.022 154.943,280.363 154.361,280.208C153.555,279.993 151.514,278.382 150.816,276.448C150.713,276.164 150.668,275.795 150.668,275.361C150.669,274.131 151.041,272.388 151.535,270.653C152.068,271.274 152.672,271.807 153.329,272.243C153.248,272.942 153.213,273.603 153.213,274.215C153.212,276.79 153.82,278.489 154.119,278.489C154.591,278.489 154.909,276.727 155.074,273.129C155.975,273.46 156.934,273.633 157.916,273.634C158.172,273.634 158.43,273.622 158.689,273.598C158.457,275.25 158.328,276.649 158.328,277.631C158.328,278.478 158.424,279.015 158.632,279.134C158.68,279.161 158.728,279.175 158.775,279.175C158.777,279.175 158.778,279.175 158.78,279.175C159.496,279.162 160.016,276.023 160.547,273.217C160.973,273.081 161.397,272.911 161.818,272.706C161.491,274.384 161.305,275.945 161.184,277.253C160.984,279.411 160.013,280.548 159.529,280.988C159.411,280.929 159.292,280.894 159.165,280.894C159.123,280.894 159.079,280.898 159.035,280.906C158.24,281.058 156.946,282.025 156.66,282.025Z" style="fill:rgb(144,96,68);fill-rule:nonzero;"/>
    </g>
    <g transform="matrix(4.16667,0,0,4.16667,-498.556,-959.715)">
        <path d="M163.823,278.443C163.828,278.443 163.834,278.443 163.839,278.443C163.834,278.443 163.828,278.443 163.823,278.443ZM163.821,278.443C162.582,278.441 162.668,276.815 162.901,274.762C162.668,276.815 162.583,278.441 163.821,278.443ZM165.741,277.749C165.779,277.728 165.818,277.706 165.857,277.683C167.848,276.527 169.824,271.244 171.092,267.182C169.824,271.244 167.848,276.527 165.857,277.683C165.818,277.706 165.779,277.728 165.741,277.749Z" style="fill:rgb(229,220,212);fill-rule:nonzero;"/>
    </g>
    <g transform="matrix(4.16667,0,0,4.16667,-498.556,-959.715)">
        <path d="M163.823,278.443C163.822,278.443 163.822,278.443 163.821,278.443C162.583,278.441 162.668,276.815 162.901,274.762C162.902,274.751 162.903,274.74 162.905,274.728C163.006,273.835 163.213,272.795 163.482,271.685C164.203,271.148 164.901,270.494 165.562,269.715C171.283,262.977 173.163,254.799 173.163,254.799C173.163,254.799 172.333,261.375 171.092,267.182C169.824,271.244 167.848,276.527 165.857,277.683C165.818,277.706 165.779,277.728 165.741,277.749C164.902,278.224 164.286,278.437 163.839,278.443C163.834,278.443 163.828,278.443 163.823,278.443Z" style="fill:rgb(144,96,68);fill-rule:nonzero;"/>
    </g>
    <g transform="matrix(4.16667,0,0,4.16667,-498.556,-959.715)">
        <path d="M158.775,279.175C158.728,279.175 158.68,279.161 158.632,279.134C158.424,279.015 158.328,278.478 158.328,277.631C158.328,276.649 158.457,275.25 158.689,273.598C159.305,273.541 159.927,273.415 160.547,273.217C160.016,276.023 159.496,279.162 158.78,279.175C158.778,279.175 158.777,279.175 158.775,279.175Z" style="fill:rgb(122,76,48);fill-rule:nonzero;"/>
    </g>
    <g transform="matrix(4.16667,0,0,4.16667,-498.556,-959.715)">
        <path d="M154.119,278.489C153.82,278.489 153.212,276.79 153.213,274.215C153.213,273.603 153.248,272.942 153.329,272.243C153.877,272.607 154.462,272.904 155.074,273.129C154.909,276.727 154.591,278.489 154.119,278.489Z" style="fill:rgb(122,76,48);fill-rule:nonzero;"/>
    </g>
    <g transform="matrix(4.16667,0,0,4.16667,-498.556,-959.715)">
        <path d="M161.989,282.028C161.161,282.029 160.634,281.745 160.224,281.461C159.96,281.278 159.745,281.095 159.529,280.988C160.013,280.548 160.984,279.411 161.184,277.253C161.305,275.945 161.491,274.384 161.818,272.706C162.381,272.43 162.938,272.091 163.482,271.685C163.213,272.795 163.006,273.835 162.905,274.728C162.903,274.74 162.902,274.751 162.901,274.762C162.668,276.815 162.582,278.441 163.821,278.443L163.839,278.443C164.286,278.437 164.902,278.224 165.741,277.749C165.779,277.728 165.818,277.706 165.857,277.683C167.848,276.527 169.824,271.244 171.092,267.182C170.692,269.054 170.25,270.845 169.779,272.311C167.845,278.328 164.393,281.829 162.338,282.013C162.216,282.023 162.1,282.028 161.989,282.028Z" style="fill:rgb(122,76,48);fill-rule:nonzero;"/>
    </g>
    <g transform="matrix(4.16667,0,0,4.16667,-498.556,-959.715)">
        <path d="M148.663,279.455C148.495,279.455 148.298,279.35 148.109,279.21C147.227,277.57 146.445,274.849 146.303,270.351C146.062,262.695 148.439,252.099 148.439,252.099C148.439,252.099 147.633,259.392 149.486,266.644C149.703,267.494 150.012,268.28 150.397,268.993C149.51,271.294 148.964,274.108 148.962,276.436C148.962,276.951 148.988,277.442 149.043,277.898C149.046,277.92 149.048,277.942 149.051,277.963C149.052,277.971 149.052,277.978 149.053,277.986C149.176,279.104 148.97,279.454 148.664,279.455L148.663,279.455Z" style="fill:rgb(144,96,68);fill-rule:nonzero;"/>
    </g>
    <g transform="matrix(4.16667,0,0,4.16667,-498.556,-959.715)">
        <path d="M151.376,281.643C150.842,281.643 150.333,281.558 149.929,281.309C149.397,280.981 148.728,280.361 148.109,279.21C148.298,279.35 148.495,279.455 148.663,279.455L148.664,279.455C148.97,279.454 149.176,279.104 149.053,277.986C149.052,277.978 149.052,277.971 149.051,277.963C149.048,277.942 149.046,277.92 149.043,277.898C148.988,277.442 148.962,276.951 148.962,276.436C148.964,274.108 149.51,271.294 150.397,268.993C150.724,269.6 151.107,270.155 151.535,270.653C151.041,272.388 150.669,274.131 150.668,275.361C150.668,275.795 150.713,276.164 150.816,276.448C151.514,278.382 153.555,279.993 154.361,280.208C154.943,280.363 155.148,281.022 155.218,281.375C154.933,281.288 154.647,281.228 154.402,281.228C153.847,281.228 152.551,281.643 151.376,281.643Z" style="fill:rgb(122,76,48);fill-rule:nonzero;"/>
    </g>
</svg>
