<?xml version="1.0" encoding="UTF-8" standalone="no"?>
<!DOCTYPE svg PUBLIC "-//W3C//DTD SVG 1.1//EN" "http://www.w3.org/Graphics/SVG/1.1/DTD/svg11.dtd">
<svg width="100%" height="100%" viewBox="0 0 226 239" version="1.1" xmlns="http://www.w3.org/2000/svg" xmlns:xlink="http://www.w3.org/1999/xlink" xml:space="preserve" xmlns:serif="http://www.serif.com/" style="fill-rule:evenodd;clip-rule:evenodd;stroke-linejoin:round;stroke-miterlimit:1.41421;">
    <g transform="matrix(4.16667,0,0,4.16667,-491.525,-24.3833)">
        <path d="M148.514,11.375C145.628,16.35 144.224,25.101 144.224,25.101L156.352,54.584L168.479,25.101C168.479,25.101 167.076,16.35 164.189,11.375C163.785,10.677 163.338,10.076 162.872,9.542C162.731,9.571 162.636,9.591 162.636,9.591C162.636,9.591 163.765,10.696 164.189,12.552C164.614,14.408 162.727,16.816 161.631,19.821C160.535,22.827 158.788,28.349 155.721,27.862C152.654,27.375 150.504,17.872 150.068,14.095C149.634,10.333 153.99,6.552 154.025,6.522C152.35,7.22 150.115,8.614 148.514,11.375Z" style="fill:rgb(172,206,127);fill-rule:nonzero;"/>
    </g>
    <g transform="matrix(4.16667,0,0,4.16667,-491.525,-24.3833)">
        <path d="M150.068,14.095C150.504,17.872 152.654,27.375 155.721,27.862C158.788,28.349 160.535,22.827 161.631,19.821C162.727,16.816 164.614,14.408 164.189,12.552C163.765,10.696 162.636,9.591 162.636,9.591C162.636,9.591 162.731,9.571 162.872,9.542C160.011,6.265 156.352,5.852 156.352,5.852C156.352,5.852 155.368,5.963 154.025,6.522C153.99,6.552 149.634,10.333 150.068,14.095Z" style="fill:rgb(172,206,127);fill-rule:nonzero;"/>
    </g>
    <g transform="matrix(4.16667,0,0,4.16667,-491.525,-24.3833)">
        <path d="M156.352,54.584L156.352,52.553C156.352,52.553 156.197,45.081 153.416,34.928C151.598,28.292 148.064,21.793 145.834,18.089C146.51,15.768 147.402,13.291 148.514,11.375C150.115,8.614 152.35,7.22 154.025,6.522C153.992,6.551 150.041,9.98 150.038,13.556C150.037,13.735 150.047,13.915 150.068,14.095C150.504,17.872 152.654,27.375 155.721,27.862C155.849,27.883 155.975,27.892 156.098,27.892L156.103,27.892C158.889,27.888 160.527,22.866 161.58,19.963C161.581,19.959 161.582,19.956 161.583,19.953C161.586,19.944 161.589,19.936 161.592,19.928C161.603,19.898 161.614,19.869 161.624,19.839C161.625,19.838 161.625,19.837 161.626,19.836C161.627,19.831 161.629,19.826 161.631,19.821C162.62,17.11 164.253,14.884 164.251,13.112C164.25,12.92 164.231,12.733 164.189,12.552C163.765,10.696 162.636,9.591 162.636,9.591C162.636,9.591 162.731,9.571 162.872,9.542C163.338,10.076 163.785,10.677 164.189,11.375C165.301,13.291 166.193,15.768 166.869,18.089C164.64,21.793 161.105,28.291 159.287,34.928C156.506,45.081 156.352,52.553 156.352,52.553L156.352,54.584Z" style="fill:rgb(159,188,109);fill-rule:nonzero;"/>
    </g>
    <g transform="matrix(4.16667,0,0,4.16667,-491.525,-24.3833)">
        <path d="M156.099,27.892L156.098,27.892L156.099,27.892ZM156.103,27.892C158.889,27.887 160.527,22.866 161.58,19.963C160.527,22.866 158.889,27.888 156.103,27.892ZM161.583,19.953C161.586,19.944 161.589,19.936 161.592,19.928C161.589,19.936 161.586,19.944 161.583,19.953ZM161.624,19.839C161.625,19.838 161.625,19.837 161.626,19.836C161.625,19.837 161.625,19.838 161.624,19.839ZM150.038,13.556C150.041,9.98 153.992,6.551 154.025,6.522C153.992,6.551 150.041,9.98 150.038,13.556ZM164.251,13.112C164.25,12.92 164.231,12.733 164.189,12.552C163.765,10.696 162.636,9.591 162.636,9.591C162.636,9.591 163.765,10.696 164.189,12.552C164.231,12.733 164.25,12.92 164.251,13.112Z" style="fill:rgb(159,188,109);fill-rule:nonzero;"/>
    </g>
    <g transform="matrix(4.16667,0,0,4.16667,-491.525,-24.3833)">
        <path d="M120.532,12.449C120.532,12.449 119.835,9.545 121.798,9.605C123.762,9.666 125.271,11.052 125.685,11.035C126.099,11.017 134.462,10.104 142.429,17.514C150.396,24.925 154.421,42.488 154.421,42.488L147.631,57.21C147.631,57.21 144.373,60.318 132.226,52.83C120.078,45.343 116.974,26.279 118.222,20.391C119.471,14.503 120.64,13.809 120.532,12.449Z" style="fill:rgb(174,154,130);fill-rule:nonzero;"/>
    </g>
    <g transform="matrix(4.16667,0,0,4.16667,-491.525,-24.3833)">
        <path d="M120.831,9.966L144.575,49.792L144.575,47.436L121.798,9.605C121.798,9.605 121.117,9.479 120.831,9.966Z" style="fill:rgb(159,137,117);fill-rule:nonzero;"/>
    </g>
    <g transform="matrix(4.16667,0,0,4.16667,-491.525,-24.3833)">
        <path d="M146.028,57.335C144.613,57.335 140.884,56.991 135.532,53.961C128.614,50.043 124.757,44.702 123.025,41.453C121.292,38.204 120.371,35.375 120.371,35.375C120.371,35.375 123.902,44.256 130.343,44.257C131.333,44.257 132.39,44.048 133.514,43.565C135.601,42.669 137.055,40.965 138.064,38.871L141.212,44.15C141.391,45.318 141.62,46.47 141.907,47.599C143.001,51.909 144.749,55.037 146.657,57.305C146.638,57.308 146.424,57.335 146.028,57.335ZM140.87,41.282L138.625,37.553C141.004,31.194 140.078,22.366 140.135,20.715C140.243,17.574 139.593,15.571 139.593,15.571L142.951,18.355C141.819,23.171 140.096,32.377 140.87,41.282Z" style="fill:rgb(159,136,112);fill-rule:nonzero;"/>
    </g>
    <g transform="matrix(4.16667,0,0,4.16667,-491.525,-24.3833)">
        <path d="M141.212,44.15L138.064,38.871C138.269,38.447 138.455,38.006 138.625,37.553L140.87,41.282C140.953,42.243 141.066,43.202 141.212,44.15Z" style="fill:rgb(145,120,101);fill-rule:nonzero;"/>
    </g>
    <g transform="matrix(4.16667,0,0,4.16667,-491.525,-24.3833)">
        <path d="M145.851,16.725C145.851,16.725 146.749,14.315 147.07,14.429C147.391,14.542 149.94,18.82 150.944,21.825C151.949,24.83 151.923,25.723 152.464,26.563C153.004,27.402 154.034,30.299 154.807,34.82C155.579,39.341 155.721,44.445 155.721,44.445L145.851,16.725Z" style="fill:rgb(141,121,97);fill-rule:nonzero;"/>
    </g>
    <g transform="matrix(4.16667,0,0,4.16667,-491.525,-24.3833)">
        <path d="M143.838,14.948L144.765,14.948C144.765,14.948 149.284,21.974 152.296,29.73C155.309,37.487 156.298,48.407 156.298,51.454C156.298,54.502 150.068,49.954 150.068,49.954L143.838,14.948Z" style="fill:rgb(222,210,196);fill-rule:nonzero;"/>
    </g>
    <g transform="matrix(4.16667,0,0,4.16667,-491.525,-24.3833)">
        <path d="M143.838,14.948C143.838,14.948 150.635,24.776 153.416,34.928C156.197,45.081 156.352,52.553 156.352,52.553L156.352,63.193C156.352,63.193 145.537,61.893 141.907,47.599C138.276,33.304 143.838,14.948 143.838,14.948Z" style="fill:rgb(197,176,150);fill-rule:nonzero;"/>
    </g>
    <g transform="matrix(4.16667,0,0,4.16667,-491.525,-24.3833)">
        <path d="M166.852,16.725C166.852,16.725 165.954,14.315 165.633,14.429C165.312,14.542 162.763,18.82 161.759,21.825C160.755,24.83 160.781,25.723 160.24,26.563C159.699,27.402 158.669,30.299 157.897,34.82C157.124,39.341 156.982,44.445 156.982,44.445L166.852,16.725Z" style="fill:rgb(141,121,97);fill-rule:nonzero;"/>
    </g>
    <g transform="matrix(4.16667,0,0,4.16667,-491.525,-24.3833)">
        <path d="M168.866,14.948L167.939,14.948C167.939,14.948 163.42,21.974 160.407,29.73C157.395,37.487 156.405,48.407 156.405,51.454C156.405,54.502 162.636,49.954 162.636,49.954L168.866,14.948Z" style="fill:rgb(222,210,196);fill-rule:nonzero;"/>
    </g>
    <g transform="matrix(4.16667,0,0,4.16667,-491.525,-24.3833)">
        <path d="M168.866,14.948C168.866,14.948 162.068,24.776 159.287,34.928C156.506,45.081 156.352,52.553 156.352,52.553L156.352,63.193C156.352,63.193 167.166,61.893 170.797,47.599C174.428,33.304 168.866,14.948 168.866,14.948Z" style="fill:rgb(197,176,150);fill-rule:nonzero;"/>
    </g>
    <g transform="matrix(4.16667,0,0,4.16667,-491.525,-24.3833)">
        <path d="M156.202,62.152C152.862,62.152 150.524,60.041 148.961,58.888C146.415,57.01 142.544,51.05 141.773,44.228C141.001,37.406 141.326,35.375 141.326,35.375C141.326,35.375 141.67,49.415 150.786,55.369C152.309,56.363 153.897,56.799 155.484,56.799C155.773,56.799 156.063,56.784 156.352,56.756L156.352,62.15C156.301,62.151 156.252,62.152 156.202,62.152Z" style="fill:rgb(187,165,140);fill-rule:nonzero;"/>
    </g>
    <g transform="matrix(4.16667,0,0,4.16667,-491.525,-24.3833)">
        <path d="M156.352,62.15L156.352,56.756C163.967,56.016 171.342,45.759 171.581,39.761C171.581,39.761 171.377,52.594 163.743,58.888C160.866,61.26 158.419,62.111 156.352,62.15Z" style="fill:rgb(187,165,140);fill-rule:nonzero;"/>
    </g>
</svg>
