<?xml version="1.0" encoding="UTF-8" standalone="no"?>
<!DOCTYPE svg PUBLIC "-//W3C//DTD SVG 1.1//EN" "http://www.w3.org/Graphics/SVG/1.1/DTD/svg11.dtd">
<svg width="100%" height="100%" viewBox="0 0 309 209" version="1.1" xmlns="http://www.w3.org/2000/svg" xmlns:xlink="http://www.w3.org/1999/xlink" xml:space="preserve" xmlns:serif="http://www.serif.com/" style="fill-rule:evenodd;clip-rule:evenodd;stroke-linejoin:round;stroke-miterlimit:1.41421;">
    <g transform="matrix(4.16667,0,0,4.16667,0.00145116,-490.879)">
        <path d="M37.863,124.541C37.863,124.541 28.482,117.199 14.606,122.194C0.73,127.19 -0.24,142.523 0.036,146.373C0.314,150.224 1.516,152.768 1.516,153.138C1.516,153.507 0.499,153.97 0.684,155.173C0.869,156.375 2.626,156.56 2.626,156.56C2.626,156.56 1.979,157.485 2.626,158.318C2.966,158.755 3.586,158.741 4.165,158.728C4.69,158.716 5.182,158.704 5.401,159.027C5.864,159.705 9.009,166.515 21.96,163.156C34.911,159.798 39.037,153.178 39.037,153.178L37.863,124.541Z" style="fill:rgb(142,112,94);fill-rule:nonzero;"/>
    </g>
    <g transform="matrix(4.16667,0,0,4.16667,0.00145116,-490.879)">
        <path d="M2.626,156.56C2.626,156.56 13.35,153.698 24.365,148.975C35.38,144.251 39.998,141.112 39.998,141.112L39.998,141.852C39.998,141.852 29.8,148.744 18.56,152.86C7.321,156.977 2.348,157.353 2.348,157.353L2.626,156.56Z" style="fill:rgb(121,90,75);fill-rule:nonzero;"/>
    </g>
    <g transform="matrix(4.16667,0,0,4.16667,0.00145116,-490.879)">
        <path d="M38.386,154.037C38.836,153.5 39.037,153.178 39.037,153.178L38.609,142.753C39.502,142.187 39.998,141.852 39.998,141.852L39.998,141.112C39.998,141.112 39.543,141.421 38.578,141.991L37.933,126.232L41.628,133.573C41.628,133.573 40.137,152.027 39.998,152.571C39.956,152.733 39.294,153.309 38.386,154.037Z" style="fill:rgb(216,204,197);fill-rule:nonzero;"/>
    </g>
    <g transform="matrix(4.16667,0,0,4.16667,0.00145116,-490.879)">
        <path d="M15.612,163.733C8.761,163.733 6.53,159.923 6.107,159.173C5.656,158.376 4.616,158.729 3.227,158.376C2.565,158.207 2.533,157.75 2.682,157.317C3.45,157.222 5.554,156.9 9.167,155.908C9.94,156.163 10.785,156.327 11.708,156.327C13.954,156.327 16.658,155.355 19.88,152.363C28.129,149.165 35.611,144.654 38.609,142.753L39.037,153.178C39.037,153.178 38.836,153.5 38.386,154.037C36.249,155.75 32.748,158.306 32.748,158.306C32.748,158.306 24.943,163.128 16.999,163.683C16.517,163.717 16.055,163.733 15.612,163.733ZM3.227,156.395C3.227,156.395 1.894,156.38 1.248,155.392C0.602,154.405 1.944,153.484 2.117,153.276C2.291,153.068 1.285,151.507 0.73,148.697C0.175,145.887 0.406,142.584 0.406,142.584C0.638,148.821 2.972,152.304 5.309,153.831C5.917,154.229 6.622,154.713 7.432,155.15C5.472,155.758 3.997,156.18 3.227,156.395ZM22.289,149.845C22.946,149.084 23.623,148.241 24.319,147.31C34.171,134.128 25.013,121.501 25.013,121.501L27.649,121.501C30.286,121.501 37.081,124.541 37.081,124.541L37.933,126.232L38.578,141.991C36.469,143.238 31.923,145.734 24.365,148.975C23.671,149.273 22.978,149.563 22.289,149.845Z" style="fill:rgb(124,93,76);fill-rule:nonzero;"/>
    </g>
    <g transform="matrix(4.16667,0,0,4.16667,0.00145116,-490.879)">
        <path d="M2.682,157.317C2.845,156.845 3.221,156.401 3.227,156.395C3.997,156.18 5.472,155.758 7.432,155.15C7.964,155.437 8.541,155.702 9.167,155.908C5.554,156.9 3.45,157.222 2.682,157.317ZM19.88,152.363C20.652,151.645 21.455,150.81 22.289,149.845C22.978,149.563 23.671,149.273 24.365,148.975C31.923,145.734 36.469,143.238 38.578,141.991C39.543,141.421 39.998,141.112 39.998,141.112L39.998,141.852C39.998,141.852 39.502,142.187 38.609,142.753C35.611,144.654 28.129,149.165 19.88,152.363Z" style="fill:rgb(105,74,61);fill-rule:nonzero;"/>
    </g>
    <g transform="matrix(4.16667,0,0,4.16667,0.00145116,-490.879)">
        <path d="M50,128.716C50,128.716 49.017,128.751 48.878,130C48.739,131.248 48.358,132.254 46.901,132.428C45.444,132.601 43.848,131.422 45.548,128.716C47.248,126.01 48.739,122.437 48.67,120.286C48.6,118.136 46.242,117.477 44.299,117.962C42.356,118.448 41.836,119.697 41.871,120.495C41.905,121.292 41.073,120.078 39.928,120.148C38.783,120.217 36.424,123.651 34.586,123.825C32.747,123.998 30.25,125.976 31.325,128.543C32.4,131.11 35.002,131.039 34.967,132.444C34.933,133.85 32.99,135.931 32.123,135.411C31.256,134.891 31.429,133.295 29.695,133.191C27.96,133.087 25.74,137.458 26.018,141.551C26.295,145.645 26.573,146.755 27.474,147.102C28.376,147.448 29.278,147.448 28.654,148.003C28.03,148.558 27.336,150.362 29.348,152.374C31.36,154.386 33.58,152.791 34.274,153.623C34.967,154.456 34.412,155.496 33.094,156.607C31.776,157.717 30.18,160.145 32.47,162.296C34.759,164.446 36.355,162.92 36.702,163.475C37.049,164.03 35.939,165.556 40.657,167.083C45.374,168.609 47.664,167.603 48.219,166.007C48.774,164.412 47.56,163.406 47.629,161.671C47.649,161.186 50,161.116 50,161.116L50,128.716Z" style="fill:rgb(231,166,105);fill-rule:nonzero;"/>
    </g>
    <g transform="matrix(4.16667,0,0,4.16667,0.00145116,-490.879)">
        <path d="M32.711,124.541C32.711,124.541 31.175,126.681 33.672,128.994C36.17,131.306 40.425,129.549 40.425,127.884C40.425,126.218 39.408,125.848 39.87,125.386C40.333,124.923 41.72,126.403 42.645,126.218C43.57,126.033 44.773,124.831 44.403,125.941C44.033,127.051 42.553,127.143 41.72,129.549C40.888,131.954 40.703,133.896 42.738,135.191C44.773,136.487 46.531,135.654 46.346,136.209C46.161,136.764 44.866,139.539 45.421,141.019C45.976,142.499 47.826,144.997 47.918,145.737C48.011,146.477 48.196,148.235 47.456,148.42C46.716,148.605 47.178,146.2 45.976,146.015C44.773,145.83 43.108,148.512 45.051,150.917C46.993,153.323 48.658,156.005 46.253,159.428C43.848,162.851 38.853,161.833 38.853,161.371C38.853,160.908 41.165,160.816 41.35,158.41C41.535,156.005 37.997,156.005 37.997,156.005C37.997,156.005 38.483,154.525 39.5,154.895C40.518,155.265 43.015,155.913 44.033,153.415C45.051,150.917 42.46,146.385 38.76,147.68C35.06,148.975 35.522,151.75 34.875,152.027C34.227,152.305 33.672,152.12 33.672,152.12C33.672,152.12 35.245,150.455 35.245,149.252C35.245,148.05 32.655,147.217 32.747,146.755C32.84,146.292 33.117,145.09 34.69,145.645C36.263,146.2 39.13,146.477 40.703,145.275C42.275,144.072 43.663,142.869 42.738,139.724C41.813,136.579 38.39,136.117 36.818,136.949C35.245,137.782 34.32,140.372 33.95,140.372C33.58,140.372 34.366,138.938 33.672,137.643C32.979,136.348 30.481,136.764 30.481,136.764C30.481,136.764 30.805,135.746 30.712,135.006C30.62,134.266 30.065,133.619 30.065,133.619C30.065,133.619 30.943,133.85 31.175,134.59C31.406,135.33 31.406,135.978 31.406,135.978C31.406,135.978 32.522,135.7 33.383,135.08C34.547,134.242 34.967,132.444 34.065,131.491C32.582,129.923 31.984,130.589 31.325,128.543C30.666,126.496 32.711,124.541 32.711,124.541Z" style="fill:rgb(200,136,84);fill-rule:nonzero;"/>
    </g>
    <g transform="matrix(4.16667,0,0,4.16667,0.00145116,-490.879)">
        <path d="M42.079,138.776C42.079,138.776 43.57,141.551 41.801,143.771C40.032,145.991 37.456,146.361 35.777,145.936C34.098,145.51 33.059,145.055 32.539,145.783C32.019,146.512 32.158,147.032 32.539,147.206C32.921,147.379 34.614,148.554 34.586,149.773C34.558,150.991 33.441,152.929 31.013,152.513C28.585,152.097 28.099,150.466 28.238,149.738C28.376,149.009 28.723,148.663 28.723,148.663C28.723,148.663 28.527,150.779 30.065,150.883C31.603,150.987 33.233,149.565 32.435,148.42C31.637,147.275 31.533,147.691 30.562,146.755C29.591,145.818 29.764,143.39 31.984,143.702C34.204,144.014 37.326,145.159 39.72,143.008C42.113,140.857 42.079,138.776 42.079,138.776Z" style="fill:rgb(216,154,99);fill-rule:nonzero;"/>
    </g>
    <g transform="matrix(4.16667,0,0,4.16667,0.00145116,-490.879)">
        <path d="M29.278,133.573C29.278,133.573 30.215,133.85 30.25,134.995C30.284,136.14 29.868,136.66 30.25,136.833C30.631,137.007 32.506,136.348 33.233,137.77C33.96,139.192 33.927,140.892 32.227,142.037C30.527,143.182 28.216,142.176 28.216,142.176C28.216,142.176 31.88,142.176 31.603,139.99C31.325,137.805 29.452,138.811 28.966,138.29C28.48,137.77 29.556,136.487 29.521,135.203C29.486,133.919 29.278,133.573 29.278,133.573Z" style="fill:rgb(216,154,99);fill-rule:nonzero;"/>
    </g>
    <g transform="matrix(4.16667,0,0,4.16667,0.00145116,-490.879)">
        <path d="M42.218,148.42C42.218,148.42 44.403,150.443 43.952,152.571C43.501,154.699 42.009,155.288 40.518,154.941C39.026,154.595 38.575,154.433 38.124,155.034C37.673,155.635 37.639,156.19 37.639,156.19C37.639,156.19 40.31,156.086 40.969,157.682C41.628,159.278 39.026,160.977 38.61,161.255C38.194,161.532 37.847,162.261 37.222,162.677C36.598,163.093 34.759,163.649 33.025,162.33C31.29,161.012 31.776,159.035 31.776,159.035C31.776,159.035 32.192,161.914 34.898,161.637C37.604,161.359 39.153,158.514 37.997,157.508C36.841,156.502 36.667,156.815 36.459,156.155C36.251,155.496 36.284,153.38 37.863,153.207C39.442,153.033 41.814,153.684 42.667,151.923C43.52,150.163 42.218,148.42 42.218,148.42Z" style="fill:rgb(216,154,99);fill-rule:nonzero;"/>
    </g>
    <g transform="matrix(4.16667,0,0,4.16667,0.00145116,-490.879)">
        <path d="M34.933,123.998C34.933,123.998 32.539,124.206 32.574,126.392C32.609,128.577 35.56,130.065 37.777,129.444C39.994,128.824 40.306,127.878 40.032,126.792C39.758,125.707 39.165,125.247 39.477,124.97C39.789,124.692 40.969,126.08 42.911,125.733C44.854,125.386 46.311,124.519 47.005,122.819C47.699,121.119 47.317,120.009 47.317,120.009C47.317,120.009 46.831,123.062 45.513,123.409C44.195,123.755 43.64,121.778 43.397,122.125C43.154,122.472 45.062,125.074 42.287,124.137C39.512,123.2 38.818,121.778 38.645,122.437C38.471,123.096 39.2,124.657 38.853,126.045C38.506,127.433 35.722,127.544 34.551,126.08C33.38,124.615 34.933,123.998 34.933,123.998Z" style="fill:rgb(216,154,99);fill-rule:nonzero;"/>
    </g>
    <g transform="matrix(4.16667,0,0,4.16667,0.00145116,-490.879)">
        <path d="M37.863,162.434C37.863,162.434 36.737,163.371 37.188,164.585C37.639,165.799 41.489,167.43 44.195,167.534C46.901,167.638 48.7,166.736 48.009,164.759C47.317,162.781 46.866,161.775 47.456,161.29C48.045,160.804 49.711,160.7 49.711,160.7C49.711,160.7 47.525,160.11 46.554,161.012C45.582,161.914 46.554,163.336 46.033,164.585C45.513,165.834 39.72,164.516 38.61,163.857C37.5,163.198 37.863,162.434 37.863,162.434Z" style="fill:rgb(216,154,99);fill-rule:nonzero;"/>
    </g>
    <g transform="matrix(4.16667,0,0,4.16667,0.00145116,-490.879)">
        <path d="M45.374,146.373C45.374,146.373 43.932,147.582 44.576,149.356C45.221,151.13 47.972,153.831 48.009,155.392C48.045,156.953 47.104,157.543 48.009,158.445C48.913,159.347 49.711,158.931 49.711,158.931C49.711,158.931 48.358,157.821 48.531,157.162C48.705,156.502 50.331,154.976 48.009,152.062C45.687,149.148 44.403,148.177 45.374,146.373Z" style="fill:rgb(216,154,99);fill-rule:nonzero;"/>
    </g>
    <g transform="matrix(4.16667,0,0,4.16667,0.00145116,-490.879)">
        <path d="M46.866,136.105C46.866,136.105 45.062,138.429 45.687,140.857C46.311,143.286 48.08,144.743 48.878,144.916C49.676,145.09 50,145.055 50,145.055L50,143.209C50,143.209 47.958,143.315 46.866,140.823C45.774,138.33 46.866,136.105 46.866,136.105Z" style="fill:rgb(216,154,99);fill-rule:nonzero;"/>
    </g>
    <g transform="matrix(4.16667,0,0,4.16667,0.00145116,-490.879)">
        <path d="M42.667,128.022C42.667,128.022 40.587,130.832 41.628,133.573C42.669,136.313 45.374,136.174 46.762,135.585C48.149,134.995 48.423,132.948 48.009,132.74C47.594,132.532 46.45,132.844 46.137,133.33C45.825,133.815 44.403,134.405 43.05,133.122C41.697,131.838 42.11,129.41 42.667,128.022Z" style="fill:rgb(216,154,99);fill-rule:nonzero;"/>
    </g>
    <g transform="matrix(4.16667,0,0,4.16667,0.00145116,-490.879)">
        <path d="M49.979,128.716C49.979,128.716 50.962,128.751 51.101,130C51.239,131.248 51.621,132.254 53.078,132.428C54.535,132.601 56.131,131.422 54.431,128.716C52.731,126.01 51.239,122.437 51.309,120.286C51.378,118.136 53.737,117.477 55.68,117.962C57.622,118.448 58.143,119.697 58.108,120.495C58.073,121.292 58.906,120.078 60.05,120.148C61.195,120.217 63.554,123.651 65.393,123.825C67.231,123.998 69.729,125.976 68.654,128.543C67.578,131.11 64.976,131.039 65.011,132.444C65.046,133.85 66.988,135.931 67.856,135.411C68.723,134.891 68.549,133.295 70.284,133.191C72.018,133.087 74.239,137.458 73.961,141.551C73.684,145.645 73.406,146.755 72.504,147.102C71.602,147.448 70.7,147.448 71.325,148.003C71.949,148.558 72.643,150.362 70.631,152.374C68.619,154.386 66.399,152.791 65.705,153.623C65.011,154.456 65.566,155.496 66.884,156.607C68.203,157.717 69.798,160.145 67.509,162.296C65.219,164.446 63.624,162.92 63.277,163.475C62.93,164.03 64.04,165.556 59.322,167.083C54.604,168.609 52.315,167.603 51.76,166.007C51.205,164.412 52.419,163.406 52.349,161.671C52.33,161.186 49.979,161.116 49.979,161.116L49.979,128.716Z" style="fill:rgb(231,166,105);fill-rule:nonzero;"/>
    </g>
    <g transform="matrix(4.16667,0,0,4.16667,0.00145116,-490.879)">
        <path d="M67.267,124.541C67.267,124.541 68.804,126.681 66.306,128.994C63.809,131.306 59.553,129.549 59.553,127.884C59.553,126.218 60.571,125.848 60.108,125.386C59.646,124.923 58.258,126.403 57.333,126.218C56.408,126.033 55.206,124.831 55.576,125.941C55.946,127.051 57.426,127.143 58.258,129.549C59.091,131.954 59.276,133.896 57.241,135.191C55.206,136.487 53.448,135.654 53.633,136.209C53.818,136.764 55.113,139.539 54.558,141.019C54.003,142.499 52.153,144.997 52.06,145.737C51.968,146.477 51.783,148.235 52.523,148.42C53.263,148.605 52.8,146.2 54.003,146.015C55.206,145.83 56.871,148.512 54.928,150.917C52.985,153.323 51.32,156.005 53.725,159.428C56.131,162.851 61.126,161.833 61.126,161.371C61.126,160.908 58.813,160.816 58.628,158.41C58.443,156.005 61.982,156.005 61.982,156.005C61.982,156.005 61.496,154.525 60.478,154.895C59.461,155.265 56.963,155.913 55.946,153.415C54.928,150.917 57.518,146.385 61.218,147.68C64.919,148.975 64.456,151.75 65.104,152.027C65.751,152.305 66.306,152.12 66.306,152.12C66.306,152.12 64.734,150.455 64.734,149.252C64.734,148.05 67.324,147.217 67.231,146.755C67.139,146.292 66.861,145.09 65.289,145.645C63.716,146.2 60.848,146.477 59.276,145.275C57.703,144.072 56.316,142.869 57.241,139.724C58.166,136.579 61.588,136.117 63.161,136.949C64.734,137.782 65.659,140.372 66.029,140.372C66.399,140.372 65.612,138.938 66.306,137.643C67,136.348 69.498,136.764 69.498,136.764C69.498,136.764 69.174,135.746 69.266,135.006C69.359,134.266 69.914,133.619 69.914,133.619C69.914,133.619 69.035,133.85 68.804,134.59C68.573,135.33 68.573,135.978 68.573,135.978C68.573,135.978 67.456,135.7 66.595,135.08C65.431,134.242 65.011,132.444 65.913,131.491C67.397,129.923 67.994,130.589 68.654,128.543C69.313,126.496 67.267,124.541 67.267,124.541Z" style="fill:rgb(200,136,84);fill-rule:nonzero;"/>
    </g>
    <g transform="matrix(4.16667,0,0,4.16667,0.00145116,-490.879)">
        <path d="M57.9,138.776C57.9,138.776 56.408,141.551 58.177,143.771C59.946,145.991 62.523,146.361 64.202,145.936C65.881,145.51 66.919,145.055 67.439,145.783C67.96,146.512 67.821,147.032 67.439,147.206C67.058,147.379 65.364,148.554 65.393,149.773C65.421,150.991 66.537,152.929 68.966,152.513C71.394,152.097 71.88,150.466 71.741,149.738C71.602,149.009 71.255,148.663 71.255,148.663C71.255,148.663 71.452,150.779 69.914,150.883C68.376,150.987 66.746,149.565 67.543,148.42C68.341,147.275 68.445,147.691 69.417,146.755C70.388,145.818 70.215,143.39 67.994,143.702C65.774,144.014 62.652,145.159 60.259,143.008C57.865,140.857 57.9,138.776 57.9,138.776Z" style="fill:rgb(216,154,99);fill-rule:nonzero;"/>
    </g>
    <g transform="matrix(4.16667,0,0,4.16667,0.00145116,-490.879)">
        <path d="M70.7,133.573C70.7,133.573 69.764,133.85 69.729,134.995C69.694,136.14 70.11,136.66 69.729,136.833C69.347,137.007 67.472,136.348 66.746,137.77C66.019,139.192 66.052,140.892 67.752,142.037C69.451,143.182 71.762,142.176 71.762,142.176C71.762,142.176 68.098,142.176 68.376,139.99C68.654,137.805 70.527,138.811 71.012,138.29C71.498,137.77 70.423,136.487 70.457,135.203C70.492,133.919 70.7,133.573 70.7,133.573Z" style="fill:rgb(216,154,99);fill-rule:nonzero;"/>
    </g>
    <g transform="matrix(4.16667,0,0,4.16667,0.00145116,-490.879)">
        <path d="M57.761,148.42C57.761,148.42 55.576,150.443 56.027,152.571C56.477,154.699 57.969,155.288 59.461,154.941C60.952,154.595 61.403,154.433 61.854,155.034C62.305,155.635 62.34,156.19 62.34,156.19C62.34,156.19 59.669,156.086 59.01,157.682C58.351,159.278 60.952,160.977 61.369,161.255C61.785,161.532 62.132,162.261 62.756,162.677C63.381,163.093 65.219,163.649 66.954,162.33C68.688,161.012 68.203,159.035 68.203,159.035C68.203,159.035 67.786,161.914 65.08,161.637C62.375,161.359 60.826,158.514 61.982,157.508C63.138,156.502 63.311,156.815 63.519,156.155C63.728,155.496 63.694,153.38 62.115,153.207C60.536,153.033 58.165,153.684 57.312,151.923C56.459,150.163 57.761,148.42 57.761,148.42Z" style="fill:rgb(216,154,99);fill-rule:nonzero;"/>
    </g>
    <g transform="matrix(4.16667,0,0,4.16667,0.00145116,-490.879)">
        <path d="M65.046,123.998C65.046,123.998 67.439,124.206 67.405,126.392C67.37,128.577 64.418,130.065 62.201,129.444C59.984,128.824 59.672,127.878 59.946,126.792C60.221,125.707 60.814,125.247 60.501,124.97C60.189,124.692 59.01,126.08 57.067,125.733C55.125,125.386 53.668,124.519 52.974,122.819C52.28,121.119 52.662,120.009 52.662,120.009C52.662,120.009 53.147,123.062 54.465,123.409C55.784,123.755 56.339,121.778 56.582,122.125C56.824,122.472 54.916,125.074 57.692,124.137C60.467,123.2 61.161,121.778 61.334,122.437C61.507,123.096 60.779,124.657 61.126,126.045C61.473,127.433 64.257,127.544 65.427,126.08C66.598,124.615 65.046,123.998 65.046,123.998Z" style="fill:rgb(216,154,99);fill-rule:nonzero;"/>
    </g>
    <g transform="matrix(4.16667,0,0,4.16667,0.00145116,-490.879)">
        <path d="M62.115,162.434C62.115,162.434 63.242,163.371 62.791,164.585C62.34,165.799 58.489,167.43 55.784,167.534C53.078,167.638 51.278,166.736 51.97,164.759C52.662,162.781 53.113,161.775 52.523,161.29C51.933,160.804 50.268,160.7 50.268,160.7C50.268,160.7 52.453,160.11 53.425,161.012C54.396,161.914 53.425,163.336 53.945,164.585C54.465,165.834 60.259,164.516 61.369,163.857C62.479,163.198 62.115,162.434 62.115,162.434Z" style="fill:rgb(216,154,99);fill-rule:nonzero;"/>
    </g>
    <g transform="matrix(4.16667,0,0,4.16667,0.00145116,-490.879)">
        <path d="M54.604,146.373C54.604,146.373 56.046,147.582 55.402,149.356C54.758,151.13 52.007,153.831 51.97,155.392C51.933,156.953 52.874,157.543 51.97,158.445C51.066,159.347 50.268,158.931 50.268,158.931C50.268,158.931 51.621,157.821 51.447,157.162C51.274,156.502 49.648,154.976 51.97,152.062C54.292,149.148 55.576,148.177 54.604,146.373Z" style="fill:rgb(216,154,99);fill-rule:nonzero;"/>
    </g>
    <g transform="matrix(4.16667,0,0,4.16667,0.00145116,-490.879)">
        <path d="M53.113,136.105C53.113,136.105 54.916,138.429 54.292,140.857C53.668,143.286 51.898,144.743 51.101,144.916C50.303,145.09 49.979,145.055 49.979,145.055L49.979,143.209C49.979,143.209 52.021,143.315 53.113,140.823C54.204,138.33 53.113,136.105 53.113,136.105Z" style="fill:rgb(216,154,99);fill-rule:nonzero;"/>
    </g>
    <g transform="matrix(4.16667,0,0,4.16667,0.00145116,-490.879)">
        <path d="M57.312,128.022C57.312,128.022 59.391,130.832 58.351,133.573C57.31,136.313 54.604,136.174 53.217,135.585C51.829,134.995 51.556,132.948 51.97,132.74C52.384,132.532 53.529,132.844 53.841,133.33C54.153,133.815 55.576,134.405 56.928,133.122C58.281,131.838 57.869,129.41 57.312,128.022Z" style="fill:rgb(216,154,99);fill-rule:nonzero;"/>
    </g>
</svg>
