<svg viewBox="0 0 225 220" version="1" xmlns="http://www.w3.org/2000/svg" fill-rule="evenodd" clip-rule="evenodd" stroke-linejoin="round" stroke-miterlimit="1">
  <path d="M3 122l-3-15c0-6 2-11 3-14 0-4 2-9 3-11l12-13c1-2 0-4 5-8 5-5 8-6 13-9s11-18 20-24c10-6 37-12 38-13 2-2 5-9 8-11s32-4 35-4 22 2 30 11c9 9 11 43 11 43l-2 39-60 49-53 17c-6 0-56-30-56-30l-4-7z" fill="#8f664c" fill-rule="nonzero"/>
  <path d="M167 11s46 27 56 86-21 117-94 122c-74 6-106-49-115-63S3 122 3 122l7 2s11 7 19 10c7 3 18 2 22 3l14 1 10-7s4-12 6-12l29-2c4-1 14-6 15-8 2-2 6-18 8-20l9-6h11l14-9-8-17 1-7V38l10-14-3-13z" fill="#745a49" fill-rule="nonzero"/>
  <path d="M161 8s-11-5-23-6-34 2-35 4c-2 1-5 9-8 11-4 1-30 8-38 13-9 5-14 20-17 22s-14 7-17 11c-4 5-4 9-5 10L6 85c-2 3-3 18-3 22l2 13 6 2c1 0 18 10 23 11l17 1c3 1 12 3 13 2l10-7 5-12c2-1 28 0 31-2l13-7c1-2 6-18 8-20l10-7h11l12-8-7-15V38c2-4 10-13 10-15l-3-12-3-3z" fill="#f8e5cf" fill-rule="nonzero"/>
  <path d="M205 51s19 32 18 67c0 35-16 73-53 89-38 17-71 12-97 1-27-10-45-37-52-46s-9-20-9-20 55 84 146 39c78-39 47-130 47-130z" fill="#664b3c" fill-rule="nonzero"/>
  <path d="M133 31s16 6 4 24c-12 19-50 55-79 55-29 1-29-10-19-26 9-15 54-50 71-53 17-4 23 0 23 0z" fill="#e0cdb9" fill-rule="nonzero"/>
  <path d="M58 67S38 83 35 93c-3 11 6 17 18 17 12-1 35-12 35-12s-18-7-25-14c-7-6-5-17-5-17z" fill="#d0bfaf" fill-rule="nonzero"/>
  <path d="M74 49s25-22 46-22 23 10 22 16c0 5-3 10-3 10s12-15 1-24-41-8-66 20zM69 131l4-3s4-11 6-12l29-1 14-7 8-20 10-8h10l-11-1-11 9-8 16h-13l3 4-3 5-22-1-9 1-5 15-2 3z" fill="#fff6eb" fill-rule="nonzero"/>
  <g fill-rule="nonzero">
    <path d="M192 209l1-1-1-7 1-1v-1l-1 1v-12l3 6-2 14-1 1z" fill="#d8ccc5"/>
    <path d="M201 190l-1 1-1 2c-2 0-3-1-1-3l2-7c0-1-2-2-3-1-2 0-2 1-2 2l-2-1c-1 0-2 3-4 3-1 0-3 2-2 4s3 2 2 3l-2 2s0-2-2-2c-1 0-3 4-2 7l1 4 1 1v3l4 1-1 2c-1 1-2 3 0 4 1 2 3 1 3 1 0 1-1 2 3 3 3 1 5 0 6-1l-1-3h2v-25z" fill="#e7a669"/>
    <path d="M188 187v3c2 2 6 1 6-1l-1-2 2 1h2c-1 1-2 1-2 3v4l3 1-1 3 2 4v2l-1-2c-1 0-2 2-1 4 2 2 3 4 1 6-2 3-6 2-6 2 0-1 2-1 2-3l-2-1s0-2 1-1c1 0 3 1 3-1 1-2-1-6-4-5l-3 4h-1l2-3-2-1c0-1 0-2 1-1l5-1c1 0 2-1 1-4 0-2-3-3-4-2l-2 3-1-2-2-1v-1-1h1v1h1l1-3-2-2c-1-2 1-3 1-3z" fill="#c88854"/>
    <path d="M195 198v3c-2 2-4 2-5 2h-2v1l1 2c0 1-1 2-3 2l-2-2 1-1 1 2 2-2-2-1c-1-1 0-3 1-3h6l2-3zM185 194l1 1v1l2 1c1 1 1 2-1 3h-3s3 0 3-2l-2-1v-2-1zM195 205s2 1 1 3c0 2-1 2-2 2h-2v1l2 1c1 1-1 2-2 3l-1 1-3-1-1-2s0 2 2 2 4-2 3-3l-1-1c-1-1-1-2 1-3h3v-3zM189 186l-1 2c0 2 2 3 4 2 1 0 2-1 1-2v-1l3 1 3-3v-2l-1 3-2-1s1 2-1 1l-3-1v3h-3v-2zM192 216l-1 1 5 2c3 0 4 0 3-2v-2l2-1h-3v3h-6v-1zM197 203v3l2 4v2l2 1-1-2s1-1-1-3l-2-5zM199 195s-2 2-1 4c0 2 1 3 2 3h1v-1s-2 0-2-2v-4zM195 189v5c0 2 2 2 3 1 2 0 2-2 1-2h-1-2l-1-4z" fill="#d89a63"/>
    <path d="M201 190l1 1 1 2c1 0 3-1 1-3l-2-7c0-1 2-2 3-1 2 0 2 1 2 2l2-1s2 3 4 3c1 0 3 2 2 4l-3 3 2 2 2-2c2 0 3 4 3 7l-1 4-1 1v3l-4 1 1 2c1 1 2 3 0 4-2 2-3 1-3 1 0 1 1 2-3 3s-5 0-6-1l1-3h-2v-25z" fill="#e7a669"/>
    <path d="M214 187s1 1-1 3-5 1-5-1l1-2-3 1h-1c0 1 2 1 2 3 1 1 1 3-1 4l-2 1v3l-2 4 1 2 1-2c1 0 2 2 1 4-2 2-3 4-1 6 2 3 5 2 5 2l-2-3 3-1s0-2-1-1c-1 0-3 1-4-1 0-2 2-6 4-5 3 1 3 3 3 4h1l-1-3 2-1c0-1 0-2-1-1l-5-1c-1 0-2-1-2-4 1-2 4-3 5-2l2 3v-2l3-1v-1-1h-1v1h-1c-1-1-2-2-1-3l2-2c1-2-1-3-1-3z" fill="#c88854"/>
    <path d="M207 198v3c1 2 3 2 5 2h2v1l-1 2c0 1 0 2 2 2s3-2 2-2v-1l-1 2-2-2 2-1-1-3h-6l-2-3zM217 194l-1 1v1l-2 1v3h3s-2 0-2-2l2-1-1-2 1-1zM207 205s-2 1-2 3c1 2 2 2 3 2h2v1l-2 1c-1 1 1 2 2 3l1 1 3-1 1-2s-1 2-3 2-3-2-2-3l1-1-1-3h-4l1-3zM212 186s2 0 2 2-2 3-4 2l-2-2 1-1-3 1-3-3v-2l1 3 2-1s-1 2 1 1l3-1-1 3h4c1-1-1-2-1-2zM210 216l1 1-6 2c-2 0-3 0-3-2l1-2-2-1h3v3h6v-1zM204 203s2 1 1 3l-3 4v2l-1 1 1-2v-3c2-3 3-3 2-5zM203 195s2 2 1 4c0 2-2 3-2 3h-1v-1l2-2v-4z" fill="#d89a63"/>
    <path d="M206 189s2 2 1 5c-1 2-3 2-4 1l-1-2h4v-4z" fill="#d89a63"/>
  </g>
  <g fill-rule="nonzero">
    <path d="M181 187l-1-2-2-1-2-2-4-2v-3l-1-1-3-1-3 4-1 9 1 2 2 2 1 3 1 3c-1 1-2 1-2 3v6l-1 3-2 3h-1c0 3 1 5 5 6 5 0 13-8 14-19 1-5 0-9-1-13z" fill="#eed0a3"/>
    <path d="M164 213l2-3 1-3v-6c0-2 1-2 2-3l-1-3-1-3-2-2-1-2v7l-1 16v2h1zM172 177v3l4 2 2 2 2 1 1 2c-1-5-4-8-6-10l-4-1 1 1z" fill="#8b6c5a"/>
    <path d="M168 218c-3 0-5-2-5-5h1l2-3 1-3 5 2h1c6 0 9-10 9-14 0 0 1 10-4 16-4 6-7 7-10 7z" fill="#e7c293"/>
    <path d="M163 213v-1l1-13v-9l1 10 2 7-1 3-2 3h-1z" fill="#876651"/>
    <path d="M178 201l-2-7c0-4-2-11-5-13-2-2-3-5-1-5l2 1v3l4 2 2 2c3 6 3 14 1 16l-1 1z" fill="#f0d5ab"/>
    <path d="M178 184l-2-2-4-2v-1-2c2 1 4 3 6 7z" fill="#977a6a"/>
  </g>
  <g fill-rule="nonzero">
    <path d="M17 215l2-8c2-3 2-6 2-7v5l-2 8c-1 2-1 4 2 2 2-1 5-11 5-11l1-12-2-8-2-1-1 12c-1 6-4 12-5 14 0 2-1 8-2 7l3-16c3-6 3-18 3-18l-1-1h-2s1 8-1 13a116 116 0 0 0-5 22v-8l4-20v-6c-1-1-2 0-3 1-2 1-4 5-6 18-2 9-1 13 0 15 0 0 1 2 1-1l2-8 3-8-2 7-2 8 3 3 1 1 1 1 2-1 1-3z" fill="#9c6c4f"/>
    <path d="M15 216c1 1 2-5 2-7 1-2 4-8 5-14l1-12 2 1-1-1c-1-1-1 1-2 1v-1l-1-1s0 12-3 18l-3 16zM16 188l-4 20v8l1-4 4-18c2-5 1-13 1-13v1h-2v6zM18 219c2 0 4-3 5-5l3-10s-3 10-5 11c-3 2-3 0-2-2l2-8v-5c0 1 0 4-2 7l-2 8-1 3 2 1z" fill="#855638"/>
    <path d="M12 217l-3-3 2-8 2-7-3 8-2 8c0 3-1 1-1 1l1 2h5l-1-1z" fill="#855638"/>
    <path d="M16 216zm0 0z" fill="#e5dcd4"/>
    <path d="M14 219l-1-1-1-1-3-3 1-4 1 1v2l1 3 1-4a6 6 0 0 0 2 0v4h1l1-4h1l-1 3-1 3-2 1z" fill="#906044"/>
    <path d="M19 216zm0 0v-3 3zm2-1l4-8-4 8z" fill="#e5dcd4"/>
    <path d="M19 216v-3-2l2-2c4-5 5-11 5-11l-1 9-4 8-2 1z" fill="#906044"/>
    <path d="M16 216h-1v-1-3h2l-1 4zM12 216l-1-3v-2l2 1-1 4zM18 219l-1-1h-1l1-3 1-3 1-1a19 19 0 0 0 0 2v3a3 3 0 0 0 2-1l4-8-1 4c-2 5-4 7-6 8z" fill="#7a4c30"/>
    <path d="M8 217l-1-1-1-6 2-14v11l1 2a17 17 0 0 0-1 6v2z" fill="#906044"/>
    <path d="M10 218H9l-2-2 1 1v-1-1-1l1-5 1 1-1 4 3 3 1 1h-1-2z" fill="#7a4c30"/>
  </g>
  <g fill-rule="nonzero">
    <path d="M67 203s-2-3 0-6 6-4 7-7c2-2 1-7-5-8-6 0-14 6-17 17-4 10 4 19 12 20 8 2 13-1 12-7 0-4-4-4-6-5-3-2-3-4-3-4z" fill="#eed0a3"/>
    <path d="M68 219h-3c-8-1-13-8-14-14 0-6 3-12 3-12a15 15 0 0 0 12 22c4 0 5-2 4-4s-5-5-5-8c0-4 2-6 2-6l-1 5c0 3 4 5 6 6 3 1 5 3 4 6 0 3-2 5-8 5z" fill="#e7c293"/>
    <path d="M69 214c-1 0-12-4-11-13s10-14 10-14h1v2c-2 1-9 6-9 13s8 9 9 10v2z" fill="#f1d7b0"/>
  </g>
  <g fill-rule="nonzero">
    <path d="M105 190l-1 1v4c-2 2-8 10 0 20 6 8 15 3 19 2 3-2 11-9 5-18-5-9-11-9-15-8l-5-1h-3z" fill="#eed0a3"/>
    <path d="M112 219c-3 0-5-1-8-4-4-4-4-10-4-10s2 8 10 8l7-2c13-4 10-14 7-17 0 0 5 4 6 9 1 6-3 12-10 14l-8 2z" fill="#e7c496"/>
    <path d="M122 200h-1c-2 0-4-3-7-3-4-1-7-3-7-5l1-1 1 1 6-1h1c3 0 6 2 8 4 1 3 0 5-2 5z" fill="#f1d7b0"/>
  </g>
  <g fill-rule="nonzero">
    <path d="M137 194c-3 1-5 7 1 13 7 6 15 2 17-3 2-6 4-8 6-9l1-1c-1-3-2-6-5-7-4-3-6-2-6-2l-10 4 2 1-6 4z" fill="#a66b3e"/>
    <path d="M131 204c2 8 13 17 24 13 8-4 8-13 8-17l-1-6-1 1c-2 1-4 3-6 9-2 5-10 9-17 3-6-6-4-12-1-13l6-4-2-1-6 2s-7 4-4 13z" fill="#935a32"/>
    <path d="M136 191l12-4 3-3c-1 0-6 0-10 2l-2 1c-1 0-4 3-3 4z" fill="#bfa78f"/>
    <path d="M133 193l10-3c6-2 8-5 8-5v-1l-3 3-12 4c-1-1 2-4 3-4-5 2-6 6-6 6z" fill="#a28f7e"/>
    <path d="M142 209l-3-5c-3-4-3-8-3-8l3 6-1-4 2 5v-2l1 1-2-6 3 4-2-5 4 7v-3l2 3-1-3a45 45 0 0 0 2 2l-2-4 2 1-3-6 6 9-2-1 2 4-4-3a138 138 0 0 0 1 3l-3-3 2 7-6-10 3 7-2-2 1 2-2-2 2 6zM157 197l-2-3 1 2-3-5-4-3 3 2 2 2v-1l3 2-1-2a21 21 0 0 0 2 2l-3-4-2-2 3 2 1 2-1-2 2 1s-2-3-5-4l5 3 2 5-2-4 1 3-1-2 1 4-1-2v2l-3-3 2 5zm-4-11h-1 1z" fill="#bc7b45"/>
  </g>
  <g fill-rule="nonzero">
    <path d="M82 180l-3 11 9 22 10-22s-1-7-4-11l-1-1 1 2c1 2-1 3-2 6 0 2-2 6-4 6-2-1-4-8-4-11-1-3 3-5 3-5-2 0-3 1-5 3z" fill="#acce7f"/>
    <path d="M84 182c0 3 2 10 4 11 2 0 4-4 4-6 1-3 3-4 2-6l-1-2c-2-3-5-3-5-3l-1 1s-4 2-3 5z" fill="#acce7f"/>
    <path d="M88 213v-1l-2-14c-1-5-4-10-6-13l2-5c2-2 3-3 5-3 0 0-3 2-3 5s2 10 4 11c2 0 4-4 4-6l2-5v-1l-1-2 1 1 2 5a54 54 0 0 0-8 27v1z" fill="#9fbc6d"/>
    <path d="M88 193zm0 0c2 0 4-4 4-6 0 2-2 6-4 6zm4-6zm0 0zm-8-5c0-3 3-5 3-5s-3 2-3 5zm10 0v-1 1z" fill="#9fbc6d"/>
    <path d="M80 184l1-1c1 0 3 3 3 5l1 4 2 6 1 7-8-21z" fill="#8d7961"/>
    <path d="M79 183h1l5 11c3 6 3 14 3 17 0 2-4-1-4-1l-5-27z" fill="#ded2c4"/>
    <path d="M79 183a58 58 0 0 0 9 29v8s-8-1-11-12c-2-11 2-25 2-25z" fill="#c5b096"/>
    <path d="M96 184v-1c-1 0-3 3-3 5l-2 4-1 6-1 7 7-21z" fill="#8d7961"/>
    <path d="M98 183h-1l-5 11c-3 6-4 14-4 17 0 2 5-1 5-1l5-27z" fill="#ded2c4"/>
    <path d="M98 183s-5 7-7 15l-3 14v8s9-1 11-12c3-11-1-25-1-25z" fill="#c5b096"/>
    <path d="M88 219c-2 0-4-2-5-3-2-1-5-6-6-11v-7s0 11 7 16a6 6 0 0 0 4 1v4zM88 219v-4c6-1 12-9 12-13 0 0 0 10-6 14l-6 3z" fill="#bba58c"/>
  </g>
  <g fill-rule="nonzero">
    <path d="M51 202c-1-14-10-26-12-26-1 0-11 12-12 26 0 15 12 18 12 18s12-3 12-18z" fill="#a97b54"/>
    <path d="M39 219c-2 0-3-1-6-4-4-3-5-10-5-16l4-12c-2 5-4 22 6 24h2c9 0 10-10 10-10s1 5-1 10c-3 5-7 7-9 8h-1z" fill="#9e704b"/>
    <path d="M36 183v10l1 3v12l2 4v7h-2l1-7-2-4v-13l-1-3 1-9zM43 188v9c0 1 2 2 2 5l-1 10-2 3-1 4 2-1v-3c0-1 2-1 2-3l1-11c0-2-3-4-3-5v-8zM31 198v10l1 6 2 1v2l-1-1-1-2-2-5 1-7v-4z" fill="#976743"/>
    <path d="M38 189l-1 5v1h-1l1-2 1-4zM46 191l-1 3-1 4v1l2-4v-4zM41 200l1 6c1 2 3 1 3 1v2s-3 0-4-2v-7zM34 199v5l2 2v-1l-2-2v-4zM49 202l-1 8c-1 2-3 2-3 2l-1 2s4-2 4-4l1-8zM34 210l1 5c1 2 3 2 3 2v-1l-2-2-2-4zM33 207v4l-2 2v-1l1-2 1-3zM29 195v8l1 4v-1l-1-4v-7zM40 193v9c-1 2-3 2-3 2v-1s2 0 2-2l1-8zM48 196v5l-2 3v1s2-1 2-3v-6zM40 205v7l-1 2v1s2-1 2-3l-1-4v-3z" fill="#976743"/>
  </g>
</svg>
