<svg viewBox="0 0 215 239" version="1" xmlns="http://www.w3.org/2000/svg" fill-rule="evenodd" clip-rule="evenodd" stroke-linejoin="round" stroke-miterlimit="1">
  <path d="M122 217s-24 13-51 6c-28-7-59-69-68-122-10-52 7-83 33-87s93 67 104 122c10 55-18 81-18 81z" fill="#c0927e" fill-rule="nonzero"/>
  <path d="M87 222l-14-1c-17-4-38-36-45-50-5-10-14-35-17-44 4 9 16 34 42 35 32 0 37-80 33-99-4-18-8-24-8-24l25 28c-9 22-16 48-17 77-1 37 13 61 28 75 0 0-13 3-27 3zm-76-95z" fill="#b88773" fill-rule="nonzero"/>
  <path d="M215 144C212 64 160 0 150 0c-9 0-61 64-64 144s64 95 64 95 68-15 65-95z" fill="#a97b54" fill-rule="nonzero"/>
  <path d="M149 235c-8 0-18-5-35-20-20-18-28-56-24-89 4-34 19-68 19-68-12 32-21 124 37 132h9c49 0 57-56 57-56s4 28-9 56a80 80 0 0 1-48 44l-6 1z" fill="#9e704b" fill-rule="nonzero"/>
  <path d="M132 39s-4 47-2 53c3 6 8 12 8 15l-1 71c0 3 13 12 13 21 1 8-1 37-1 37l-9-3s5-28 4-36c-2-9-11-12-11-20-1-7 1-69 1-71-1-3-8-8-8-17l6-50zM169 67v45c1 9 12 14 14 28s-3 54-5 58-12 8-15 14l-4 22 10-5 2-17c1-2 10-6 12-15s5-50 4-59c-1-10-15-22-15-27l-3-44zM108 121v25c-1 6-5 21-5 27 1 6 4 28 10 33 7 6 8 5 8 8l2 10-9-7-2-7c-1-1-12-16-12-32-1-16 3-25 5-34l3-23z" fill="#976743" fill-rule="nonzero"/>
  <path d="M142 74l-1 23-4 9-2-4s2-2 4-10l3-18zM185 81l-2 20c0 10-6 22-6 22l1 2s7-7 7-19V81zM160 131s0 23 5 32c6 10 19 9 19 9l-2 7s-16-1-20-12c-3-11-2-36-2-36zM120 127s-1 17 2 26c3 10 12 12 12 12v-6s-9-2-11-9l-3-23zM202 143s-1 31-5 43c-3 12-16 13-16 13l-3 7s18-6 21-17 3-46 3-46zM125 188s-1 13 4 24c4 11 14 13 14 13l1-6s-9-3-13-8c-3-6-6-23-6-23zM117 168s1 14-2 22c-2 9-7 11-7 11l-3-6s5 0 7-7c3-6 5-20 5-20zM96 106s-5 26-4 42c2 16 9 23 9 23l1-7s-6-8-8-21c-1-13 2-37 2-37zM156 93s0 33-3 47c-4 15-17 15-17 15v-6s12-2 14-11c3-10 6-45 6-45zM199 110s0 23-2 29c-1 7-12 15-12 15v6s13-8 14-18v-32zM154 157v25c1 6 3 9 3 14 0 6-8 12-8 12v4s11-5 11-15c-1-9-6-14-6-20v-20z" fill="#976743" fill-rule="nonzero"/>
  <path d="M28 52c-2-2-2-1-4-6l-3-8c-1-1-2-2-3 5-1 6 0 9 3 12 4 3 3 1 4 5 1 5 2 9 5 6 2-4 4-5 3-8s-5-6-5-6zM37 31c0-3 2-8-1-8-3-1-3-4-5 0-3 4-2 3 0 7 1 3 0 4 2 5h4v-4zM64 37c-2-2-3-7-6-6-2 2-8 2-3 6 4 5 8 6 9 9 1 4-1 5 2 7 2 2 6 2 6 2s3-5 0-9l-5-6-3-3zM66 83c-1-1-3 0-4-4s1-4-2-7c-2-2-4-6-6-3-3 2-6 5-1 9 4 4 6 2 5 6 0 4-2 8 3 8l7-2-2-7zM19 86l-3 4 3 14s-4 4 0 6 3 3 6 2c4-1 6 0 5-6l-1-8c1-3 2-2-1-6s-9-6-9-6zM66 133c-2-3 1-4-3-9-3-5-1-5-6-6-5 0-10 2-6 6 3 4 5 3 5 9 0 5-8 9 2 11 10 3 12 4 13 1s6-1 1-6l-6-6zM93 90c1-3 4-6 2-10-3-4-7-7-9-6-3 0-1-1 0 5 1 5 2 4 1 7-1 4 0 7 1 7 1 1 5-3 5-3zM56 176c1-2 0-4-1-7l-2-7-7-6s-4-1-4 2 2 5 4 8l1 6c2 5 2 7 6 9 4 1 5-1 5-2v-1l-2-2zM89 196c-3-4-4-9-6-10-2-2-6-4-7 0v9c1 4-2 3 0 8s3 9 9 8c5-1 7 2 7-2 1-4 2-3 1-6-1-4-4-7-4-7z" fill="#a37566" fill-rule="nonzero"/>
</svg>
