<svg viewBox="0 0 209 239" version="1" xmlns="http://www.w3.org/2000/svg" fill-rule="evenodd" clip-rule="evenodd" stroke-linejoin="round" stroke-miterlimit="1">
  <path d="M113 90s-4-13-30-37C57 28 14 14 11 15c-4 1-7 5-7 5S-7 92 8 140c16 47 36 78 48 80 12 3 45 10 57 2 11-7 0-132 0-132z" fill="#77695f" fill-rule="nonzero"/>
  <path d="M67 43S42 28 32 24c-11-5-19-7-20-5-2 3 34 89 52 130 17 41 39 71 39 71l3-13s-21-24-41-67C45 96 18 26 17 23c0-3 40 13 50 20z" fill="#61544e" fill-rule="nonzero"/>
  <path d="M25 39s21 55 38 92 40 70 40 70l2-9s-20-22-40-63C45 87 25 39 25 39z" fill="#61544e" fill-rule="nonzero"/>
  <path d="M1 59s1-32 4-36c3-5 5-2 8 10s35 91 52 127 40 66 40 66h-8s-25-34-42-72S12 43 9 33s-4-3-4 4L1 59z" fill="#4f443f" fill-rule="nonzero"/>
  <path d="M25 89s12 42 34 82c21 41 34 55 34 55l-8-1s-15-21-36-65-24-71-24-71z" fill="#4f443f" fill-rule="nonzero"/>
  <path d="M104 224h-1c-4-6-21-29-35-58l1-1h2a421 421 0 0 0 33 59zm-9 0l-4-1c-4-5-16-20-32-52l-1-1 4-2c14 27 29 49 33 56zm5-24c-5-7-14-20-23-37l2-1 21 34v4zm1-12l-19-28c6-5 12-12 16-25 11-30-5-72-5-72l12 14 1 30c2 26-3 62-5 81z" fill="#62564d" fill-rule="nonzero"/>
  <path d="M103 220c-1-1-17-23-32-55l6-2c9 17 18 30 23 37v10c1 4 1 7 3 10zM100 196l-21-34 3-2 19 28-1 8z" fill="#4f443e" fill-rule="nonzero"/>
  <path d="M103 224h-8c-4-7-19-29-33-56l6-2c14 29 31 52 35 58z" fill="#413632" fill-rule="nonzero"/>
  <path d="M84 223c-31-2-36-9-47-24-10-15-24-46-25-49 1 2 6 13 23 19a39 39 0 0 0 19 2c14 29 25 46 30 52m-72-73z" fill="#62564d" fill-rule="nonzero"/>
  <path d="M91 223h-7c-5-6-16-23-30-52l4-1 1 1c16 32 28 47 32 52z" fill="#413632" fill-rule="nonzero"/>
  <path d="M201 66c-1-2-3-7-7-9-5-3-6-3-11-8-6-5-5-8-12-12-6-4-12-3-18-8-7-5-5-11-4-18 2-6-2-8-2-9-13-4-20-1-20-1s-10 6-16 22c-4 10-6 27-6 46 0 1 0 8 4 10 5 2 15 7 16 15s-1 11 1 14 8 14 7 19c-2 4-11 5-10 13 2 9 7 22 2 33-4 11-8 13-8 18-1 5-7 14-9 16l-8 3c2 13 7 26 27 29 28 4 75-41 81-104 2-26-1-49-7-69z" fill="#eed0a3" fill-rule="nonzero"/>
  <path d="M108 207c2-2 8-11 9-16 0-5 4-7 8-18 5-11 0-24-2-33-1-8 8-9 10-13 1-5-5-16-7-19s0-6-1-14-11-13-16-15c-4-2-4-9-4-10-1 12 0 25 1 38 2 32-5 77-6 90v13l8-3zM149 11c-1 7-3 13 4 18 6 5 12 4 18 8 7 4 6 7 12 12 5 5 6 5 11 8 4 2 6 7 7 9-9-27-23-46-37-55l-17-9c0 1 4 3 2 9z" fill="#8b6c5a" fill-rule="nonzero"/>
  <path d="M130 237h-4c-13-1-22-13-24-27l6-3c2-2 8-11 9-16 0-5 3-6 7-15 5 7 14 12 28 12l2 1c35 0 53-57 53-79 0 0 2 54-24 88-23 32-38 39-53 39z" fill="#e7c293" fill-rule="nonzero"/>
  <path d="M102 210v-10l6-70c1-18-2-47-2-47s8 31 8 52c1 13 1 30 10 41-4 9-7 10-7 15-1 5-7 14-9 16l-6 3z" fill="#876651" fill-rule="nonzero"/>
  <path d="M182 142c-7 0-11-21-10-38 1-20-11-60-25-73-14-12-20-26-7-26h1l9 4-1 2-1 8c0 4 1 7 5 10 6 5 12 4 18 8 7 4 6 7 12 12 15 34 15 76 5 89-2 3-4 4-6 4z" fill="#f0d5ab" fill-rule="nonzero"/>
  <path d="M183 49c-6-5-5-8-12-12-6-4-12-3-18-8-4-3-5-6-5-10l1-8 1-2c9 6 23 18 33 40z" fill="#977a6a" fill-rule="nonzero"/>
</svg>
