<svg viewBox="0 0 235 264" version="1" xmlns="http://www.w3.org/2000/svg" fill-rule="evenodd" clip-rule="evenodd" stroke-linejoin="round" stroke-miterlimit="1">
  <path d="M137 186c-21-2-29 22-12 43 16 22 51 9 46-5s-12-7-21-16-7-12 5-12h5c7-1 12-1 17-6l1-4c-1 1-21 3-41 0z" fill="#ae9a82" fill-rule="nonzero"/>
  <path d="M166 172l-36-4s-14-2-23 19c-10 20-5 57 28 63 34 6 44-15 43-25-1-9-8-15-18-17-10-3-14-8-5-11l5-1h-5c-12 0-14 3-5 12s16 2 21 16-30 27-46 5c-17-21-9-45 12-43 20 3 40 1 41 0 0-6-12-14-12-14z" fill="#99826e" fill-rule="nonzero"/>
  <path d="M172 24c-9 16-11 35-24 56-14 22-29 57 7 80 36 24 79 4 79-30-1-17-6-32-9-39-5-12-7-50-7-69 0-13-11-18-18-20 0 0-19 6-28 22z" fill="#f47d4e" fill-rule="nonzero"/>
  <path d="M157 26c-9 16-45 36-65 54-20 19-11 57-6 70 4 12 37 22 69 31 31 9 52 9 70-15 8-11 10-24 9-36 0 34-43 54-79 30-36-23-21-58-7-80 13-21 15-40 24-56s28-22 28-22l-4-2c-22-3-30 11-39 26z" fill="#f0693a" fill-rule="nonzero"/>
  <path d="M209 150c-17 0-25-20-23-38 2-19 7-39 7-59s-5-34 0-40c3-3 6-4 7-4h2s12 8 12 24c-1 16 1 43 6 60 5 18 19 50-4 56l-7 1z" fill="#f68e66" fill-rule="nonzero"/>
  <path d="M86 172s-8-14 3-31c10-16 29-25 37-38 9-12 7-42-26-44-34-2-77 32-95 89a87 87 0 0 0 67 113c45 8 73-5 67-39-4-25-22-21-36-30a47 47 0 0 1-17-20z" fill="#eed0a3" fill-rule="nonzero"/>
  <path d="M94 261c-5 0-11 0-18-2-44-6-71-41-73-76-3-34 16-65 16-65a81 81 0 0 0 65 120c19 0 28-13 21-22-9-13-28-26-27-45s9-30 9-30-6 12-4 26c2 15 19 28 34 33 16 5 24 14 21 32-2 15-14 29-44 29z" fill="#e7c293" fill-rule="nonzero"/>
  <path d="M98 231c-7 0-64-19-58-68 5-50 52-76 52-76 4-3 7-4 9-4 5 0 5 6-2 11-10 7-48 33-49 72-2 38 41 50 48 54 6 5 6 10 0 11z" fill="#f1d7b0" fill-rule="nonzero"/>
</svg>
