<svg viewBox="0 0 230 166" version="1" xmlns="http://www.w3.org/2000/svg" fill-rule="evenodd" clip-rule="evenodd" stroke-linejoin="round" stroke-miterlimit="1">
  <path d="M2 92L0 80l2-11c1-2 1-6 3-7l8-11 4-5 10-7c4-2 8-13 15-18s27-9 29-10c1-1 3-7 5-8 3-2 25-3 27-3s16 1 23 8c6 7 8 33 8 33l-2 29-45 37s-36 12-40 12S6 97 6 97l-4-5z" fill="#8f664c" fill-rule="nonzero"/>
  <path d="M126 8s34 20 41 65c8 44-15 87-71 91-55 4-79-37-85-47-7-10-9-25-9-25l5 1 15 8c5 2 14 1 16 2h11l7-5s3-8 5-9l22-1 11-6c1-2 4-14 6-15l6-4h8l11-8-6-12 1-6v-8l8-11-2-10z" fill="#745a49" fill-rule="nonzero"/>
  <path d="M121 6s-8-4-17-5C94 0 78 3 77 4s-3 7-6 8c-3 2-22 6-29 11-6 4-10 14-12 16-2 1-10 5-13 9l-4 7-9 9-2 16 2 10 4 1 17 9 13 1c2 0 9 2 10 1l7-5c1-1 3-8 5-9 1-1 20 0 23-2l10-5 5-15 8-5h8l9-6-6-12 1-14c1-4 7-10 7-12 1-1-1-9-2-9l-2-2z" fill="#f8e5cf" fill-rule="nonzero"/>
  <path d="M153 38s15 24 14 51c0 26-11 54-40 67-28 12-53 9-73 0-19-8-33-27-38-34s-7-16-7-16 41 64 109 30c59-29 35-98 35-98z" fill="#664b3c" fill-rule="nonzero"/>
  <path d="M100 23s12 5 3 19C93 56 65 82 43 83c-21 0-21-8-14-20 7-11 41-37 54-40s17 0 17 0z" fill="#e0cdb9" fill-rule="nonzero"/>
  <path d="M43 50S29 62 26 70c-2 8 5 12 14 12s26-8 26-8-13-6-19-11c-5-5-4-13-4-13z" fill="#d0bfaf" fill-rule="nonzero"/>
  <path d="M56 36s18-16 34-16c16 1 17 8 17 12l-3 8s9-11 1-18-31-6-49 14zM52 98l2-2 5-9 22-1 10-5 6-15 8-6h-1l-8 6-6 12H80l3 3-3 4-16-1-7 1-4 11-1 2z" fill="#fff6eb" fill-rule="nonzero"/>
  <path d="M188 86s-1 20-18 26c-18 7-33 4-39 0-5-4-9 7-9 7s2 12 18 16c17 3 21 4 33 0 13-3 19-10 24-12s11-14 11-14l2-20-7-3h-15z" fill="#e0cdb9" fill-rule="nonzero"/>
  <path d="M88 112l36-6 10 8v3h2s8 6 22 6c13 1 18-2 18-2l5 2v-4l4-3 11 4-8-5s7-9 7-11l1-14-8-4s15-4 21-13 11-21 11-21l7 9v40s-3 27-13 33c-9 7-38 14-38 14l-16 8-21-4-17-8-6-2-14-5s-13-19-14-25z" fill="#f8e5cf" fill-rule="nonzero"/>
  <path d="M85 114s0 22 3 30c3 9 19 27 74 20 51-8 58-31 61-38 4-9 7-28 7-28l-15 36-34 14-8 1-12 6h-7l-15-3-12-5-10-5-15-5-10-17-7-6z" fill="#553e31" fill-rule="nonzero"/>
  <path d="M88 112l7 9 9 16c3 2 15 3 16 4s20 10 25 10c6 1 15 4 19 2s9-6 13-7l20-5c7-3 14-5 18-10l9-20 2-15-1-12-1-18v-6l-4-8h4l4 7v8l2 29-6 25-10 17-32 11-10 2c-1 1-10 6-14 6s-26-5-29-7l-10-6-18-5-10-16-6-9 3-2z" fill="#745a49" fill-rule="nonzero"/>
  <path d="M190 86l7 3s8-3 16-10c9-8 11-18 11-18l-4-6s-5 14-14 22c-9 7-16 9-16 9zM132 114v4h4s3 5 20 6 20-2 20-2l4 2 10 12-8-13v-3l2-3 14 4-8-6 9 6 11 8-12-7-12-2 2 2-4-3-1 2v3l9 15-13-14-3-1-10 2v4l-1-4s-10 1-18-1-10-4-10-4l-10 9 8-10-1-2-3 1-22 8 22-10 1-3z" fill="#fff6eb" fill-rule="nonzero"/>
</svg>
