<svg viewBox="0 0 287 195" version="1" xmlns="http://www.w3.org/2000/svg" fill-rule="evenodd" clip-rule="evenodd" stroke-linejoin="round" stroke-miterlimit="1">
  <path d="M37 53c-15 6-28 38 7 72 34 34 79 13 90-18 11-30 24-44 37-50l3-1c-4-17-13-33-26-43-21-15-35-10-35-10L59 25l9 8S53 46 37 53z" fill="#a66b3e" fill-rule="nonzero"/>
  <path d="M3 107c13 48 69 94 133 70 46-17 42-67 42-93 0-9-1-19-4-28l-3 1c-13 6-26 20-37 50a55 55 0 0 1-90 18C9 91 22 59 37 53c16-7 31-20 31-20l-9-8-34 14s-35 21-22 68z" fill="#935a32" fill-rule="nonzero"/>
  <path d="M261 48s4 2 4 6-1 13 5 20c5 8 35 50 0 98-30 40-77 16-94 9-17-8-57-43-29-89 28-45 59-43 75-41 17 3 23 3 27-1 4-3 9-3 12-2z" fill="#eed0a3" fill-rule="nonzero"/>
  <path d="M164 103c-4 0-3-11 7-18 0 0 13-16 36-21 13-3 23-4 29-4l4 1c-1 2-19 4-39 13-20 10-32 29-37 29zM191 141c-2 0-4-1-5-3-3-4-1-9 22-35 23-25 36-35 36-35l7-5 1 1a885 885 0 0 0-61 77zM249 155c-5 0-1-9 3-16 4-8 9-27 8-42-1-13-5-25-3-25l1 1s9 22 7 46c-2 23-8 34-15 36h-1zM223 158l-12-2c5-6 9-12 12-19 11-21 13-33 17-34h1c3 0 0 15-3 27-3 8-8 19-15 28zM171 135l-7-9c3-10 8-18 17-27 12-11 24-17 28-17 2 0 2 1 1 2-3 6-11 10-11 10s-19 16-26 36l-2 5z" fill="#f1d7b0" fill-rule="nonzero"/>
  <path d="M225 192c-11 0-23-3-37-9-34-13-52-43-48-68 5-26 29-47 29-47-10 10-21 35-5 58-3 7-4 14-4 23-1 15 5 21 8 21l2-1c1-3-3-17 1-34a93 93 0 0 0 40 21c-10 12-21 22-21 22-2 2-1 4 1 4 4 0 13-5 21-12 4-3 8-7 11-12l12 1c41 0 50-36 50-36s0 28-19 50a51 51 0 0 1-41 19z" fill="#e7c496" fill-rule="nonzero"/>
  <path d="M191 182c-2 0-3-2-1-4 0 0 11-10 21-22l12 2c-3 5-7 9-11 12-8 7-17 12-21 12zM168 170c-3 0-9-6-8-21 0-9 1-16 4-23l7 9c-4 17 0 31-1 34l-2 1z" fill="#e8c99f" fill-rule="nonzero"/>
  <path d="M29 36c4 5 53-11 68-21l15-13c-6-3-29-4-56 8l-11 5c-1 1-19 15-16 21z" fill="#bfa78f" fill-rule="nonzero"/>
  <path d="M14 49c1 2 17-2 54-16 37-13 45-30 45-30l-1-1-15 13C82 25 33 41 29 36c-3-6 15-20 16-21-24 14-31 32-31 34z" fill="#a28f7e" fill-rule="nonzero"/>
  <path d="M65 136l-19-28C32 86 33 63 33 63c2 17 11 33 13 36l-4-24 13 28-2-10 5 6-8-32 14 20-13-30 24 43-2-21 12 18-4-18a249 249 0 0 0 11 11l-9-21 10 8-19-37 35 55-12-10 9 24-19-19a758 758 0 0 0 4 20L75 91l13 42-33-57 12 38-9-12 4 14-11-11 14 31zM147 69l-9-15 2 9-18-24c-7-11-20-18-20-18l18 9c5 4 11 14 11 14l-1-7 17 12-7-10a115 115 0 0 0 10 7 77 77 0 0 0-28-29s13 6 18 11c4 5 9 7 9 7l-6-8 8 4s-12-15-25-21a62 62 0 0 1 39 43l-15-20 8 15-8-9 10 20-11-9 4 8-18-15 12 26zm-21-59l-5-2 5 2z" fill="#bc7b45" fill-rule="nonzero"/>
</svg>
