<svg viewBox="0 0 315 215" version="1" xmlns="http://www.w3.org/2000/svg" fill-rule="evenodd" clip-rule="evenodd" stroke-linejoin="round" stroke-miterlimit="1">
  <path d="M255 0s7 0 9 10c3 10 2 25 7 38s39 37 43 79c5 42-23 77-84 82-60 5-98-28-104-39-7-12-29-49-9-90 21-41 58-53 95-56 21-2 30-24 43-24z" fill="#94b55b" fill-rule="nonzero"/>
  <path d="M309 106s5 46-50 64c-54 17-82-25-84-31-2-7 1-30-15-50-17-19-24-21-27-25-2-5 0-8 0-8l-8 11-13 41 30 78s30 22 74 22 72-13 87-36c14-23 13-43 6-66z" fill="#87a34d" fill-rule="nonzero"/>
  <path d="M251 10s6-2 7 17-1 38 6 61c6 23 16 41 6 69-11 28-23 36-50 38-28 3-34-8-34-8s-11-4-9-20c2-17 12-54 26-76 13-21 19-25 26-40 8-15 14-34 17-37l5-4z" fill="#d0e3b0" fill-rule="nonzero"/>
  <path d="M251 20s5 5 4 15c0 11 2 37 7 54s17 47 0 76-41 28-54 28-20-8-20-8-12-1-7-26 16-58 30-75c13-17 23-34 28-47 6-14 10-22 12-17z" fill="#a66b3e" fill-rule="nonzero"/>
  <path d="M28 52s-4 3-4 7c0 5 1 14-5 22-6 9-40 56 0 109 33 44 85 18 104 10 19-9 63-48 32-99-31-50-65-48-83-45-18 2-26 2-31-2-4-4-9-3-13-2z" fill="#eed0a3" fill-rule="nonzero"/>
  <path d="M68 212c-18 0-33-7-45-21-21-24-21-56-21-56s10 41 55 41c10 0 21-2 34-6 74-26 57-80 40-96 0 0 27 24 32 52 5 29-15 62-53 76-16 6-29 10-42 10z" fill="#e7c496" fill-rule="nonzero"/>
  <path d="M119 110h-2c-14-2-22-17-42-21S40 72 38 64c-1-4 1-5 3-5l8 2 34-3h5c17 0 34 9 41 23s2 29-10 29z" fill="#f1d7b0" fill-rule="nonzero"/>
  <path d="M190 179s1-55 18-77c18-22 33-54 35-59 2-6 6-2 6 8 0 11 0 28 6 49 6 22 5 59-17 75-22 17-48 4-48 4z" fill="#eed0a3" fill-rule="nonzero"/>
  <path d="M211 180c-11 0-19-2-19-2s1-24 4-39c2-14 4-16 4-16s-7 32 17 37l10 1c17 0 25-11 28-19 0 0-5 28-24 35l-20 3z" fill="#e7c496" fill-rule="nonzero"/>
</svg>
