<svg viewBox="0 0 227 221" version="1" xmlns="http://www.w3.org/2000/svg" fill-rule="evenodd" clip-rule="evenodd" stroke-linejoin="round" stroke-miterlimit="1">
  <path d="M33 6S57-7 73 6c16 12 31 50 46 96s13 76 7 85c-5 9-14 17-13 23 1 5 1 13-3 10-4-4-5-8-13-9-7-1-27 2-45-19S6 104 1 66 16 6 33 6z" fill="#935226" fill-rule="nonzero"/>
  <path d="M77 58c-7-6-10-16-11-18s-8-10-12-12c-3-1-3-2-11-3l-9-3-5 24v10c-2 2-11 21-11 25s5 8 6 10l6 7s7 1 9 3l8 9c3 4 8 5 8 7v4c1 2 4 3 13-2 5-4 9-11 11-14V85c0-5 4-14 4-17 0-2 0-4-6-10z" fill="#9c6c4f" fill-rule="nonzero"/>
  <path d="M55 121v-4c0-2-5-3-8-7l-8-9c-2-2-9-3-9-3l-6-7c-1-2-6-6-6-10s9-23 11-25V46l5-24c-2-1-3-2-3-4 0-5-7 14-8 18s0 10-6 17c-5 7-11 25-9 30s10 10 12 15c3 6 12 6 15 10 2 3 10 12 11 16 0 4 2 8 4 6l11-6 7-5c-9 5-12 4-13 2z" fill="#783e19" fill-rule="nonzero"/>
  <path d="M39 28l12 44c5 15 6 35 8 38 1 4 6 11 6 11l3-2 3-3s-7-13-9-20c-2-6-4-20-7-25L39 28zM52 27c1 1 15 31 16 39l5 29c1 2 0-26-2-32l-6-20-5-10-8-6zM29 46a444 444 0 0 0 10 32l3 17 3 10-10-17a255 255 0 0 0-10-25l4-10v-7z" fill="#855638" fill-rule="nonzero"/>
  <path d="M112 217l-5-4c-2-2-5-4-8-4h-1-1c-9 0-31-6-42-17-11-13-26-45-30-54-3-5-7-18-10-26 4 9 14 27 40 45 8 5 16 8 24 8 13 0 24-8 31-18-2 28 1 43 5 52l-3 6v12zM15 112l-2-7 2 7z" fill="#874520" fill-rule="nonzero"/>
  <path d="M33 23l19 6c5 1 11 9 13 13s3 12 6 14l11 12-4 17c0 3 3 16 1 20l-4 7 6-10V84c0-1 5-17 4-20 0-2-12-12-12-13l-6-16-11-9-22-4-1 1z" fill="#dea17b" fill-rule="nonzero"/>
  <path d="M173 196c1-13 4-30 11-46s10-32 11-37c2-6 1 15-3 28-5 14-10 32-12 44-1 12-1 20 13 12 13-8 27-64 27-64 3-20 6-43 7-61 0-25-5-39-10-46 0 0-6-6-11-3-4 4-4 36-9 65-5 28-20 66-24 77-3 11-6 41-11 38-4-2 5-56 17-90 11-35 16-100 16-101-2-1-5-3-10-3-5-1-8 1-9 2 0 0 4 44-5 68a636 636 0 0 0-27 122c-2 0-8-19 0-41 7-23 19-84 22-110 3-24 2-32-2-38-3 0-8 1-16 6-11 9-24 31-34 101-8 48-4 70 1 82 0 0 9 10 7-3-1-13 3-32 10-45 6-12 16-43 16-43s-3 26-8 38c-5 11-13 36-10 44s11 15 15 16c3 1 3 6 3 6l5 2c1 2 6-3 11-4h1s7-4 8-16z" fill="#9c6c4f" fill-rule="nonzero"/>
  <path d="M162 203c5 3 8-27 11-38 4-11 19-49 24-77 5-29 5-61 9-65 5-3 11 3 11 3-4-5-7-7-9-8-5-1-7 10-8 10-2 0-2-6-2-10l-3-6c0 1-5 66-16 101-12 34-21 88-17 90zM166 50c-3 26-15 87-22 110-8 22-2 41 0 41s3-8 4-24c0-16 15-75 23-98 9-24 5-68 5-68l-2 4c-2 1-7-3-7-3h-3c4 6 5 14 2 38zM177 216c12 0 23-15 29-27 4-7 10-30 14-56 0 0-14 56-27 64-14 8-14 0-13-12 2-12 7-30 12-44 4-13 5-34 3-28-1 5-4 21-11 37s-10 33-11 46c-1 12-8 16-8 16 3 0 2 5 12 4z" fill="#855638" fill-rule="nonzero"/>
  <path d="M145 208c-4-1-12-8-15-16s5-33 10-44c5-12 8-38 8-38s-10 31-16 43c-7 13-11 32-10 45 2 13-7 3-7 3l8 10c6 7 20 3 22 2l3 1s0-5-3-6z" fill="#855638" fill-rule="nonzero"/>
  <path d="M163 204zm0 0z" fill="#e5dcd4" fill-rule="nonzero"/>
  <path d="M154 215l-6-2c0-2-1-5-3-5-4-1-12-8-15-16l-1-4c0-6 2-13 4-20l7 7v8c0 11 2 18 4 18s3-8 4-23a34 34 0 0 0 15 2l-2 17 1 6 1 1c3-1 5-14 7-25l6-2-3 19c-1 8-5 13-7 15a3 3 0 0 0-2 0c-3 0-9 4-10 4z" fill="#906044" fill-rule="nonzero"/>
  <path d="M184 200zm0 0c-5 0-5-6-4-15-1 9-1 15 4 15zm8-2l1-1c8-5 16-27 21-43-5 16-13 38-21 43l-1 1z" fill="#e5dcd4" fill-rule="nonzero"/>
  <path d="M184 200c-5 0-5-6-4-15l3-13 8-8c24-28 32-62 32-62l-9 52c-5 16-13 38-21 43l-1 1c-3 2-6 2-8 2z" fill="#906044" fill-rule="nonzero"/>
  <path d="M163 204l-1-1-1-6 2-17 7-1c-2 11-4 24-7 25zM144 201c-2 0-4-7-4-18v-8l8 3c-1 15-2 23-4 23zM176 215l-7-2-3-2c2-2 6-7 7-15l3-19 7-5a107 107 0 0 0-3 13c-1 9-1 15 4 15a18 18 0 0 0 9-3c8-5 16-27 21-43l-5 21c-8 25-23 40-31 40h-2z" fill="#7a4c30" fill-rule="nonzero"/>
  <path d="M121 205l-2-1c-4-7-7-19-8-37-1-32 9-76 9-76s-3 30 4 60l4 10a92 92 0 0 0-6 37v1c1 4 0 6-1 6z" fill="#906044" fill-rule="nonzero"/>
  <path d="M132 214l-6-2c-2-1-5-4-7-8l2 1c1 0 2-2 1-6v-1-6c0-10 2-21 6-31l5 7c-2 7-4 14-4 20l1 4c3 8 11 15 15 16 2 0 3 3 3 5l-3-1-13 2z" fill="#7a4c30" fill-rule="nonzero"/>
</svg>
