<svg viewBox="0 0 226 239" version="1" xmlns="http://www.w3.org/2000/svg" fill-rule="evenodd" clip-rule="evenodd" stroke-linejoin="round" stroke-miterlimit="1">
  <path d="M127 23c-12 21-18 57-18 57l51 123 50-123s-5-36-17-57l-6-8-1 1s5 4 7 12c1 8-6 18-11 30-5 13-12 36-25 34-12-2-21-42-23-58-2-15 16-31 16-31-7 3-16 9-23 20z" fill="#acce7f" fill-rule="nonzero"/>
  <path d="M134 34c2 16 11 56 23 58 13 2 20-21 25-34 5-12 12-22 11-30-2-8-7-12-7-12l1-1C175 2 160 0 160 0s-4 0-10 3c0 0-18 16-16 31z" fill="#acce7f" fill-rule="nonzero"/>
  <path d="M160 203v-8s-1-32-12-74c-8-27-23-55-32-70l11-28c7-11 16-17 23-20 0 0-16 14-16 29v2c2 16 11 56 23 58h2c12 0 18-21 23-33v-1c4-11 11-20 11-28v-2c-2-8-7-12-7-12l1-1 6 8 11 28c-10 15-24 42-32 70-11 42-12 74-12 74v8z" fill="#9fbc6d" fill-rule="nonzero"/>
  <path d="M159 92zm0 0c12 0 18-21 23-33-5 12-11 33-23 33zm23-33zm0-1zm-48-26c0-15 16-29 16-29s-16 14-16 29zm59-2v-2c-2-8-7-12-7-12s5 4 7 12v2z" fill="#9fbc6d" fill-rule="nonzero"/>
  <path d="M11 27s-3-12 5-11c8 0 14 6 16 6s37-4 70 27c33 30 50 104 50 104l-28 61s-14 13-65-18C9 165-4 85 1 61c5-25 10-28 10-34z" fill="#ae9a82" fill-rule="nonzero"/>
  <path d="M12 17l99 166v-10L16 16s-3-1-4 1z" fill="#9f8975" fill-rule="nonzero"/>
  <path d="M117 215c-6 0-22-2-44-15a135 135 0 0 1-63-77s15 37 42 37l13-3c8-4 15-11 19-19l13 22 3 14c4 18 12 31 20 40l-3 1zm-22-67l-9-16c10-26 6-63 6-70 1-13-2-22-2-22l14 12c-5 20-12 59-9 96z" fill="#9f8870" fill-rule="nonzero"/>
  <path d="M97 160l-13-22 2-6 9 16 2 12z" fill="#917865" fill-rule="nonzero"/>
  <path d="M116 45s4-10 5-9c2 0 12 18 16 31 5 12 4 16 7 19 2 4 6 16 10 35 3 19 3 40 3 40L116 45z" fill="#8d7961" fill-rule="nonzero"/>
  <path d="M108 38h4s18 29 31 61c13 33 17 78 17 91s-26-6-26-6L108 38z" fill="#ded2c4" fill-rule="nonzero"/>
  <path d="M108 38s28 41 40 83c11 42 12 74 12 74v44s-45-5-60-65 8-136 8-136z" fill="#c5b096" fill-rule="nonzero"/>
  <path d="M204 45s-4-10-5-9c-2 0-12 18-17 31-4 12-4 16-6 19-2 4-6 16-10 35-3 19-3 40-3 40l41-116z" fill="#8d7961" fill-rule="nonzero"/>
  <path d="M212 38h-4s-19 29-31 61c-13 33-17 78-17 91s26-6 26-6l26-146z" fill="#ded2c4" fill-rule="nonzero"/>
  <path d="M212 38s-28 41-40 83c-11 42-12 74-12 74v44s45-5 60-65-8-136-8-136z" fill="#c5b096" fill-rule="nonzero"/>
  <path d="M159 235c-14 0-23-9-30-14-10-8-27-33-30-61-3-29-2-37-2-37s2 59 40 83a35 35 0 0 0 23 6v23h-1zM160 235v-23c32-3 62-46 63-71 0 0 0 54-32 80a50 50 0 0 1-31 14z" fill="#bba58c" fill-rule="nonzero"/>
</svg>
