<svg viewBox="0 0 309 209" version="1" xmlns="http://www.w3.org/2000/svg" fill-rule="evenodd" clip-rule="evenodd" stroke-linejoin="round" stroke-miterlimit="1">
  <path d="M158 28S119-3 61 18-1 103 0 119s6 27 6 28c0 2-4 4-3 9s8 5 8 5-3 4 0 8c1 2 4 2 6 1 3 0 5 0 6 2 1 3 15 31 69 17 53-14 71-42 71-42l-5-119z" fill="#8e705e" fill-rule="nonzero"/>
  <path d="M11 161s45-11 91-31c45-20 65-33 65-33v3s-43 29-90 46c-46 17-67 19-67 19l1-4z" fill="#795a4b" fill-rule="nonzero"/>
  <path d="M160 151l3-4-2-43 6-4v-3l-6 4-3-66 15 31-6 79-7 6z" fill="#d8ccc5" fill-rule="nonzero"/>
  <path d="M65 191c-28 0-38-16-40-19-1-3-6-2-12-3-2-1-2-3-2-4l27-6 11 1c9 0 20-4 34-16 34-13 65-32 78-40l2 43-3 4-24 18s-32 20-65 22h-6zm-52-30s-5 0-8-4c-2-5 3-8 4-9s-4-8-6-19c-2-12-1-26-1-26 1 26 10 41 20 47l9 6-18 5zm80-28l8-10c41-55 3-108 3-108h11c11 0 40 13 40 13l3 7 3 66a526 526 0 0 1-68 32z" fill="#7c5d4c" fill-rule="nonzero"/>
  <path d="M11 165l2-4 18-5 7 3-27 6zm72-21l10-11a549 549 0 0 0 68-32l6-4v3l-6 4c-13 8-44 27-78 40z" fill="#694a3d" fill-rule="nonzero"/>
  <path d="M208 45s-4 1-4 6c-1 5-3 9-9 10s-12-4-5-16c7-11 13-26 13-35s-10-11-18-9c-9 2-11 7-11 10 1 4-3-2-8-1-4 0-14 14-22 15s-18 9-13 20c4 10 15 10 15 16s-9 15-12 12c-4-2-3-8-10-9-7 0-17 18-16 35 2 17 3 22 6 23 4 1 8 1 5 4-2 2-5 10 3 18 9 8 18 2 21 5 3 4 0 8-5 13-6 4-12 14-3 23 10 9 16 3 18 5 1 3-3 9 16 15 20 7 30 2 32-4 2-7-3-11-3-18 1-2 10-3 10-3V45z" fill="#e7a669" fill-rule="nonzero"/>
  <path d="M136 28s-6 9 4 19c11 9 28 2 28-5s-4-9-2-10c2-2 8 4 12 3s9-6 7-1-8 5-11 15c-4 10-4 18 4 23 9 6 16 2 15 5-1 2-6 14-4 20l11 19c0 3 1 11-2 12-3 0-1-10-6-10-5-1-12 10-4 20s15 21 5 35c-10 15-31 10-31 9 0-2 10-3 10-13 1-10-14-10-14-10s2-6 7-4c4 1 14 4 18-7 5-10-6-29-21-24-16 6-14 17-17 19h-5s7-7 7-12-11-8-11-10c1-2 2-7 9-5 6 2 18 3 25-2 6-5 12-10 8-23s-18-15-25-11c-6 3-10 14-12 14-1 0 2-6-1-11-3-6-13-4-13-4l1-7c0-3-3-6-3-6s4 1 5 4l1 6s5-1 8-4c5-4 7-11 3-15-6-7-9-4-11-12-3-9 5-17 5-17z" fill="#c88854" fill-rule="nonzero"/>
  <path d="M175 87s7 12-1 21c-7 9-18 11-25 9s-11-3-13 0c-3 3-2 5 0 5 1 1 8 6 8 11s-5 13-15 12c-10-2-12-9-11-12 0-3 2-4 2-4s-1 8 5 9c7 0 13-6 10-10-3-5-4-3-8-7s-3-14 6-13c10 1 23 6 33-3 9-9 9-18 9-18zM122 66s4 1 4 6c0 4-2 7 0 7 2 1 9-2 12 4 4 6 3 13-4 18s-16 1-16 1 15 0 14-10c-1-9-9-4-11-7-2-2 2-7 2-13l-1-6zM176 128s9 8 7 17-8 11-14 10c-6-2-8-2-10 0l-2 5s11-1 14 6c2 7-8 14-10 15l-6 6c-3 2-10 4-17-2-8-5-6-13-6-13s2 12 13 11c12-2 18-13 13-18-4-4-5-2-6-5s-1-12 6-13c6 0 16 2 20-5 3-7-2-14-2-14zM146 26s-10 1-10 10 12 15 21 12c10-2 11-6 10-11-1-4-4-6-3-7 2-1 7 4 15 3s14-5 17-12 1-12 1-12-2 13-7 14c-6 2-8-6-9-5s7 12-5 8c-11-4-14-9-15-7-1 3 2 10 1 15-2 6-13 7-18 0-5-6 2-8 2-8zM158 186s-5 4-3 9 18 12 29 12c11 1 19-3 16-11-3-9-5-13-2-15 2-2 9-2 9-2s-9-3-13 1 0 10-2 15-26 0-31-3-3-6-3-6zM189 119s-6 5-3 12c2 8 14 19 14 26 0 6-4 9 0 12 4 4 7 2 7 2s-6-4-5-7 8-9-2-21-15-16-11-24zM195 76s-7 10-5 20c3 10 10 16 14 17l4 1v-8s-8 0-13-10c-4-11 0-20 0-20zM178 43s-9 11-5 23c5 11 16 11 22 8 6-2 7-11 5-12s-6 1-8 3c-1 2-7 4-13-1-5-6-4-16-1-21z" fill="#d89a63" fill-rule="nonzero"/>
  <path d="M208 45s4 1 5 6c0 5 2 9 8 10s13-4 6-16c-7-11-14-26-13-35 0-9 10-11 18-9s10 7 10 10c0 4 3-2 8-1 5 0 15 14 22 15 8 1 19 9 14 20-4 10-15 10-15 16s8 15 12 12c3-2 3-8 10-9 7 0 16 18 15 35s-2 22-6 23-7 1-5 4c3 2 6 10-3 18-8 8-17 2-20 5-3 4-1 8 5 13 5 4 12 14 2 23-9 9-16 3-17 5-2 3 3 9-17 15-19 7-29 2-31-4-3-7 2-11 2-18 0-2-10-3-10-3V45z" fill="#e7a669" fill-rule="nonzero"/>
  <path d="M280 28s7 9-4 19c-10 9-28 2-28-5s4-9 2-10c-1-2-7 4-11 3s-9-6-7-1c1 5 7 5 11 15 3 10 4 18-4 23-9 6-16 2-16 5 1 2 7 14 4 20-2 6-10 16-10 19s-1 11 2 12c3 0 1-10 6-10 5-1 12 10 4 20s-15 21-5 35c10 15 31 10 31 9 0-2-10-3-11-13 0-10 14-10 14-10s-2-6-6-4c-4 1-15 4-19-7-4-10 7-29 22-24 15 6 14 17 16 19h5s-6-7-6-12 11-8 10-10c0-2-1-7-8-5s-18 3-25-2-12-10-8-23c3-13 18-15 24-11 7 3 11 14 12 14 2 0-2-6 1-11 3-6 14-4 14-4s-2-4-1-7l2-6s-3 1-4 4l-1 6s-5-1-9-4c-4-4-6-11-2-15 6-7 8-4 11-12 3-9-6-17-6-17z" fill="#c88854" fill-rule="nonzero"/>
  <path d="M241 87s-6 12 1 21c8 9 19 11 26 9s11-3 13 0 2 5 0 5c-2 1-9 6-9 11 1 5 5 13 15 12 10-2 13-9 12-12l-2-4s1 8-6 9c-6 0-13-6-10-10 4-5 4-3 8-7s4-14-6-13c-9 1-22 6-32-3s-10-18-10-18zM295 66s-4 1-4 6v7c-2 1-10-2-13 4s-3 13 4 18 17 1 17 1-15 0-14-10c1-9 9-4 11-7 2-2-3-7-2-13l1-6zM241 128s-9 8-8 17c2 9 9 11 15 10 6-2 8-2 10 0l2 5s-11-1-14 6 8 14 10 15l5 6c3 2 11 4 18-2 7-5 5-13 5-13s-2 12-13 11c-11-2-18-13-13-18 5-4 6-2 7-5s0-12-6-13c-7 0-17 2-20-5-4-7 2-14 2-14zM271 26s10 1 10 10-13 15-22 12c-9-2-10-6-9-11 1-4 3-6 2-7s-6 4-14 3-14-5-17-12-2-12-2-12 2 13 8 14c5 2 8-6 9-5s-7 12 4 8c12-4 15-9 16-7 0 3-3 10-1 15 1 6 13 7 18 0 4-6-2-8-2-8zM259 186s5 4 3 9-18 12-30 12c-11 1-18-3-15-11 2-9 4-13 2-15-3-2-10-2-10-2s10-3 14 1 0 10 2 15 26 0 31-3c4-3 3-6 3-6zM228 119s6 5 3 12c-3 8-14 19-14 26-1 6 3 9 0 12-4 4-8 2-8 2s6-4 5-7c0-3-7-9 3-21 9-12 15-16 11-24zM221 76s8 10 5 20c-2 10-10 16-13 17l-5 1v-8s9 0 13-10c5-11 0-20 0-20zM239 43s8 11 4 23c-4 11-15 11-21 8-6-2-7-11-5-12 1-1 6 1 7 3 2 2 8 4 13-1 6-6 4-16 2-21z" fill="#d89a63" fill-rule="nonzero"/>
</svg>
